<svg xmlns="http://www.w3.org/2000/svg" xmlns:xlink="http://www.w3.org/1999/xlink" viewBox="0 0 288 288" enable-background="new 0 0 288 288"><defs><path id="2" d="m2735 2477h480v801h-480z"/><path id="3" d="m649 2133h1280v402h-1280z"/><clipPath><use xlink:href="#2"/></clipPath><clipPath><use xlink:href="#3"/></clipPath><linearGradient id="1" gradientUnits="userSpaceOnUse" y1="144" x2="0" y2="-144"><stop stop-color="#394050"/><stop offset="1" stop-color="#292f3d"/></linearGradient></defs><symbol id="0" viewBox="-115 -144 231 288"><path d="m108 144h-215c-4.4 0-8-3.6-8-8v-272c0-4.4 3.6-8 8-8h215c4.4 0 8 3.6 8 8v272c0 4.4-3.6 8-8 8m-181-222c-8 0-14.4 6.4-14.4 14.4 0 8 6.4 14.4 14.4 14.4 8 0 14.4-6.4 14.4-14.4 0-7.9-6.4-14.4-14.4-14.4m0 77.9c-8 0-14.4 6.4-14.4 14.4s6.4 14.4 14.4 14.4c8 0 14.4-6.4 14.4-14.4s-6.4-14.4-14.4-14.4m0 77.9c-8 0-14.4 6.4-14.4 14.4s6.4 14.4 14.4 14.4c8 0 14.4-6.5 14.4-14.4s-6.4-14.4-14.4-14.4" fill="url(#1)" fill-rule="evenodd"/><path fill="none" stroke="#e4e4e4" stroke-width="6" stroke-miterlimit="10" d="m-35 102h120"/><path fill="none" stroke="#e4e4e4" stroke-width="6" stroke-miterlimit="10" d="m-35 65h120"/><path fill="none" stroke="#e4e4e4" stroke-width="6" stroke-miterlimit="10" d="m-35 29h120"/><path fill="none" stroke="#e4e4e4" stroke-width="6" stroke-miterlimit="10" d="m-35-8h120"/><path fill="none" stroke="#e4e4e4" stroke-width="6" stroke-miterlimit="10" d="m-35-45h79"/></symbol><use xlink:href="#0" width="231" height="288" x="-115" y="-144" transform="matrix(1 0 0-1 143 144)"/></svg>
