<svg xmlns="http://www.w3.org/2000/svg" xmlns:xlink="http://www.w3.org/1999/xlink" viewBox="0 0 288 288" enable-background="new 0 0 288 288"><defs><path id="1" d="m3455 1037h480v801h-480z"/><path id="2" d="m1369 693h1280v402h-1280z"/><clipPath><use xlink:href="#1"/></clipPath><clipPath><use xlink:href="#2"/></clipPath></defs><symbol id="0" viewBox="-144 -144 288 288"><path d="m0 134c35.8 0 69-13.9 95-39 25.3-25.4 39-59 39-95s-13.9-69-39-95c-25.4-25.3-59-39-95-39s-69 13.9-95 39c-25.3 25.4-39 59-39 95s13.9 69 39 95c25.4 25.3 59 39 95 39m0 10c-79 0-144-64-144-144s65-144 144-144 144 65 144 144-64 144-144 144z" fill="#bebebe"/><path d="m-72-.4c0 13 3.2 25 9.6 36 6.4 11 15 19.7 26 26 11 6.4 23 9.6 36 9.6 13 0 25-3.2 36-9.6s19.7-15 26-26c6.4-11 9.6-23 9.6-36 0-13-3.2-25-9.6-36-6.4-11-15-19.7-26-26s-23-9.6-36-9.6c-13 0-25 3.2-36 9.6-11 6.4-19.7 15-26 26-6.4 11-9.6 23-9.6 36m10.5 0c0-7.7 1.4-15 4.1-22 2.7-7 6.6-13.3 11.6-18.9 3.1 5.5 7 10.7 11.6 15.6 4.6 4.8 9 8.7 13.3 11.6 4.3 2.9 8.4 5.5 12.2 7.6 3.8 2.1 6.9 3.6 9.3 4.5l3.5 1.2c.2.1.7.2 1.2.3.6.2 1 .3 1.2.4-1.3 3.1-3 6.5-5 10.4-19.4-5.8-40-8.7-63-8.7 0-.4 0-1 0-1.9m1.3 12.7c18.8 0 37.7 2.5 56.7 7.5-7.5 13.2-15 25-22.8 35-8.6-4.1-15.9-9.9-21.9-17.4-6-7.5-10-16-12-25.4m21-60c11.5-9.4 24.5-14 39-14 8.2 0 16.2 1.6 24 4.9-2.6 15-7 30.6-13 46.6h-.2-.2c-1-.4-2.3-.9-4-1.5-1.7-.7-4.8-2.2-9.5-4.6-4.6-2.4-8.9-5-12.8-7.7-3.9-2.7-8-6.3-12.3-10.7s-7.5-9-9.6-13.8l-1.4.9m24 107c.1.1.1.1.2.1s-.1 0-.2-.1m.4.1c8.2-10.6 15.8-22.5 23-35.7 4.3 1.6 8.4 3.5 12.2 5.7 3.8 2.2 6.8 4.1 9 5.8 2.2 1.7 4.3 3.5 6.1 5.3s3 3.1 3.5 3.8l1.2 1.6c-11.6 10.2-25 15.3-40.5 15.3-4.8 0-9.6-.6-14.5-1.8m27.7-44.9c1.5-3.3 2.9-6.3 4.1-8.9.1-.4.3-.9.6-1.6.3-.7.5-1.2.7-1.5 2.3.3 4.6.5 7 .7 2.4.1 4.7.2 6.9.2s4.3 0 6.5-.1c2.1-.1 4.1-.2 6-.4 1.9-.2 3.6-.3 5.3-.5 1.6-.2 3.1-.4 4.5-.6 1.2-.4 2.4-.6 3.3-.7.9-.2 1.7-.3 2.3-.4l.9-.2c-.2 14.5-4.8 27.3-14 38l-.1-.1c-.6-.8-1.2-1.5-1.8-2.3-.6-.8-2-2.2-4.1-4.2-2.1-2-4.3-3.9-6.6-5.7-2.3-1.8-5.5-3.8-9.4-6.1-3.7-2.2-7.8-4.2-12-6m9.1-21.7c5.4-14.9 9.4-29.5 12-43.9 6.9 4.7 12.7 10.6 17.3 17.7 4.6 7.1 7.6 15 9 23.4-13 3.8-25.8 4.7-38 2.8" fill="#bebebe"/></symbol><use xlink:href="#0" width="288" height="288" x="-144" y="-144" transform="matrix(1 0 0-1 144 144)"/></svg>
