<svg xmlns="http://www.w3.org/2000/svg" xmlns:xlink="http://www.w3.org/1999/xlink" viewBox="0 0 288 288" enable-background="new 0 0 288 288"><defs><path id="1" d="m2735 1397h480v801h-480z"/><path id="2" d="m649 1053h1280v402h-1280z"/><clipPath><use xlink:href="#1"/></clipPath><clipPath><use xlink:href="#2"/></clipPath></defs><symbol id="0" viewBox="-144 -143.8 288 288"><path d="M72-42c0-4.4-3.6-8-8-8H-64c-4.4,0-8,3.6-8,8v83c0,4.4,3.6,8,8,8H64c4.4,0,8-3.6,8-8V-42z" fill="none" stroke="#bebebe" stroke-width="10" stroke-miterlimit="10"/><path fill="none" stroke="#bebebe" stroke-linejoin="round" stroke-linecap="round" stroke-width="10" stroke-miterlimit="10" d="m-68 50h137l-69-62z"/><path d="m0 134c35.8 0 69-13.9 95-39 25.3-25.3 39-59 39-95s-13.9-69-39-95c-25.3-25.3-59-39-95-39s-69 13.9-95 39c-25.3 25.3-39 59-39 95s13.9 69 39 95c25.4 25.3 59 39 95 39m0 10c-79 0-144-64-144-144s65-144 144-144 144 65 144 144-64 144-144 144z" fill="#bebebe"/></symbol><use xlink:href="#0" width="288" height="288" x="-144" y="-144" transform="matrix(1 0 0-1 144 144)"/></svg>
