<svg xmlns="http://www.w3.org/2000/svg" xmlns:xlink="http://www.w3.org/1999/xlink" viewBox="0 0 288 288" enable-background="new 0 0 288 288"><defs><path id="2" d="m3455 1757h480v801h-480z"/><path id="3" d="m1369 1413h1280v402h-1280z"/><clipPath><use xlink:href="#3"/></clipPath><clipPath><use xlink:href="#2"/></clipPath><linearGradient id="1" gradientUnits="userSpaceOnUse" y1="-107" x2="0" y2="109"><stop stop-color="#eee021"/><stop offset="1" stop-color="#cbb620"/></linearGradient></defs><symbol id="0" viewBox="-144 -144 288 288"><path d="m144 0c0-79-64-144-144-144s-144 65-144 144 65 144 144 144 144-64 144-144" fill="#292f3d"/><path d="m108 1c0-60-48-108-108-108s-108 48-108 108 48 108 108 108 108-48 108-108" fill="url(#1)"/><path d="m-36 0c0-19.9 16-36 36-36s36 16 36 36-16 36-36 36-36-16-36-36" fill="#292f3d"/></symbol><use xlink:href="#0" width="288" height="288" x="-144" y="-144" transform="matrix(1 0 0-1 144 144)"/></svg>