<svg xmlns="http://www.w3.org/2000/svg" xmlns:xlink="http://www.w3.org/1999/xlink" viewBox="0 0 288 288" enable-background="new 0 0 288 288"><defs><path id="1" d="m2735 1757h480v801h-480z"/><path id="2" d="m649 1413h1280v402h-1280z"/><clipPath><use xlink:href="#1"/></clipPath><clipPath><use xlink:href="#2"/></clipPath></defs><symbol id="0" viewBox="-144 -145 288 288"><path d="m-56.9 66c-26.7-21.5-21.4-69.8 16-107 37.5-37.6 86-43.6 108-16.2l.4.6c3.5 4.5 5.4 10 5.6 15.6.2 5.6-39 24.8-42 22.8-7.8-5.5-11.3-13.8-11.3-22v-.7c-18 1-33.7 16.3-38 20.9-4.6 4.6-19.3 19.4-21.6 38 0 0 .2 0 .2 0 8.1 0 16 4.4 20.8 10.7 3.4 4.5-17.9 43-21.4 43-5.6 0-10.6-1.7-14.7-4.4l-1.2-1.1" fill="none" stroke="#bebebe" stroke-linejoin="round" stroke-width="10" stroke-miterlimit="10"/><path d="m0 133c35.8 0 69-13.9 95-39 25.3-25.4 39-59 39-95s-13.9-69-39-95c-25.4-25.3-59-39-95-39s-69 13.9-95 39c-25.3 25.4-39 59-39 95s13.9 69 39 95c25.4 25.3 59 39 95 39m0 10c-79 0-144-64-144-144s65-144 144-144 144 65 144 144-64 144-144 144z" fill="#bebebe"/></symbol><use xlink:href="#0" width="288" height="288" x="-144" y="-145" transform="matrix(1 0 0-1 144 143)"/></svg>
