<svg xmlns="http://www.w3.org/2000/svg" xmlns:xlink="http://www.w3.org/1999/xlink" viewBox="0 0 288 288" enable-background="new 0 0 288 288"><defs><path id="1" d="m3096 2477h480v801h-480z"/><path id="2" d="m1010 2133h1280v402h-1280z"/><clipPath><use xlink:href="#1"/></clipPath><clipPath><use xlink:href="#2"/></clipPath></defs><symbol id="0" viewBox="-145 -119 288 243"><path d="m143-48c0-4.4-3.6-8-8-8h-272c-4.4 0-8 3.6-8 8v164c0 4.4 3.6 8 8 8h272c4.4 0 8-3.6 8-8v-164" fill="#292f3d"/><path d="m-28-56c0 0-1-27-18.5-45h90c-17.5 18-18.5 45-18.5 45h-53" fill="#bebebe"/><path d="m62-111c0-4.3-4.5-8.3-9-8.3h-108c-4.5 0-9 4-9 8.3v2.5c0 4.3 4.5 7.3 9 7.3h108c4.5 0 9-3 9-7.3v-2.5" fill="#a5a5a5"/><path fill="#bebebe" d="m-126-38v144h252z"/><path fill="#a5a5a5" d="m126 106v-144h-252z"/></symbol><use xlink:href="#0" width="288" height="243" x="-145" y="-119" transform="matrix(1 0 0-1 145 160)"/></svg>