<svg xmlns="http://www.w3.org/2000/svg" xmlns:xlink="http://www.w3.org/1999/xlink" viewBox="0 0 288 288" enable-background="new 0 0 288 288"><defs><path id="2" d="m3095 2117h480v801h-480z"/><path id="3" d="m1009 1773h1280v402h-1280z"/><clipPath><use xlink:href="#3"/></clipPath><clipPath><use xlink:href="#2"/></clipPath><linearGradient id="1" gradientUnits="userSpaceOnUse" y1="135" x2="0" y2="-135"><stop stop-color="#394050"/><stop offset="1" stop-color="#292f3d"/></linearGradient></defs><symbol id="0" viewBox="-144 -135 288 270"><path d="m144-127c0-4.4-3.6-8-8-8h-272c-4.4 0-8 3.6-8 8v254c0 4.4 3.6 8 8 8h272c4.4 0 8-3.6 8-8v-254" fill="url(#1)" fill-rule="evenodd"/><path fill="#bebebe" fill-rule="evenodd" d="m117 45h-234v63h234z"/><path fill="#bebebe" fill-rule="evenodd" d="m117-108h-126v126h126z"/><path fill="#bebebe" fill-rule="evenodd" d="m-36-108h-81v126h81z"/></symbol><use xlink:href="#0" width="288" height="270" x="-144" y="-135" transform="matrix(1 0 0-1 144 144)"/></svg>