<?xml version="1.0" encoding="utf-8"?>
<!-- Generator: Adobe Illustrator 16.0.0, SVG Export Plug-In . SVG Version: 6.00 Build 0)  -->
<!DOCTYPE svg PUBLIC "-//W3C//DTD SVG 1.1//EN" "http://www.w3.org/Graphics/SVG/1.1/DTD/svg11.dtd">
<svg version="1.1" id="Layer_1" xmlns="http://www.w3.org/2000/svg" xmlns:xlink="http://www.w3.org/1999/xlink" x="0px" y="0px"
	 width="215px" height="93px" viewBox="0 0 215 93" enable-background="new 0 0 215 93" xml:space="preserve">
<g>
	<path fill-rule="evenodd" clip-rule="evenodd" fill="#46483E" d="M45.2,50c0-0.5-0.3-1-0.8-1.3l-12.5-7.2c-0.2-0.1-0.4-0.2-0.7-0.2
		c0,0-0.1,0-0.1,0c-0.2,0-0.5,0.1-0.7,0.2L18,48.7c-0.5,0.3-0.8,0.8-0.8,1.3l0,19.3c0,0.3,0.1,0.5,0.4,0.7c0.2,0.1,0.5,0.1,0.7,0
		l7.4-4.2c0.5-0.3,0.8-0.8,0.8-1.3v-9c0-0.5,0.3-1,0.8-1.3l3.2-1.8c0.2-0.1,0.5-0.2,0.8-0.2c0.3,0,0.5,0.1,0.7,0.2l3.2,1.8
		c0.5,0.3,0.8,0.8,0.8,1.3v9c0,0.5,0.3,1,0.8,1.3L44,70c0.2,0.1,0.5,0.1,0.8,0c0.2-0.1,0.4-0.4,0.4-0.7L45.2,50z"/>
	<path fill-rule="evenodd" clip-rule="evenodd" fill="#46483E" d="M111.7,23.4c-0.2-0.1-0.5-0.1-0.7,0c-0.2,0.1-0.4,0.4-0.4,0.6
		v19.1c0,0.2-0.1,0.4-0.3,0.5c-0.2,0.1-0.4,0.1-0.5,0l-3.1-1.8c-0.5-0.3-1-0.3-1.5,0l-12.5,7.2c-0.5,0.3-0.8,0.8-0.8,1.3v14.4
		c0,0.5,0.3,1,0.8,1.3l12.5,7.2c0.5,0.3,1,0.3,1.5,0l12.5-7.2c0.5-0.3,0.8-0.8,0.8-1.3V28.9c0-0.5-0.3-1-0.8-1.3L111.7,23.4z
		 M110.6,60c0,0.1-0.1,0.3-0.2,0.3l-4.3,2.5c-0.1,0.1-0.3,0.1-0.4,0l-4.3-2.5c-0.1-0.1-0.2-0.2-0.2-0.3v-4.9c0-0.1,0.1-0.3,0.2-0.3
		l4.3-2.5c0.1-0.1,0.3-0.1,0.4,0l4.3,2.5c0.1,0.1,0.2,0.2,0.2,0.3V60z"/>
	<path fill-rule="evenodd" clip-rule="evenodd" fill="#46483E" d="M156.4,55c0.5-0.3,0.8-0.8,0.8-1.3v-3.5c0-0.5-0.3-1-0.8-1.3
		L144,41.7c-0.5-0.3-1-0.3-1.5,0L130,48.9c-0.5,0.3-0.8,0.8-0.8,1.3v14.4c0,0.5,0.3,1,0.8,1.3l12.4,7.1c0.5,0.3,1,0.3,1.5,0l7.5-4.2
		c0.2-0.1,0.4-0.4,0.4-0.7c0-0.3-0.1-0.5-0.4-0.7l-12.5-7.2c-0.2-0.1-0.4-0.4-0.4-0.7v-4.5c0-0.3,0.1-0.5,0.4-0.7l3.9-2.3
		c0.2-0.1,0.5-0.1,0.8,0l3.9,2.3c0.2,0.1,0.4,0.4,0.4,0.7v3.5c0,0.3,0.1,0.5,0.4,0.7c0.2,0.1,0.5,0.1,0.8,0L156.4,55z"/>
	<path fill-rule="evenodd" clip-rule="evenodd" fill="#8CC84B" d="M67.8,41.6c0.5-0.3,1-0.3,1.5,0l12.5,7.2c0.5,0.3,0.8,0.8,0.8,1.3
		v14.4c0,0.5-0.3,1-0.8,1.3L69.3,73c-0.5,0.3-1,0.3-1.5,0l-12.5-7.2c-0.5-0.3-0.8-0.8-0.8-1.3V50.1c0-0.5,0.3-1,0.8-1.3L67.8,41.6z"
		/>
	<path fill="#8CC84B" d="M180.6,73.2c-0.4,0-0.9-0.1-1.2-0.3l-3.9-2.3c-0.6-0.3-0.3-0.4-0.1-0.5c0.8-0.3,0.9-0.3,1.8-0.8
		c0.1,0,0.2,0,0.3,0l3,1.8c0.1,0.1,0.3,0.1,0.4,0l11.8-6.8c0.1-0.1,0.2-0.2,0.2-0.3V50.4c0-0.1-0.1-0.3-0.2-0.3l-11.8-6.8
		c-0.1-0.1-0.3-0.1-0.4,0l-11.8,6.8c-0.1,0.1-0.2,0.2-0.2,0.3V64c0,0.1,0.1,0.3,0.2,0.3l3.2,1.9c1.7,0.9,2.8-0.2,2.8-1.2V51.5
		c0-0.2,0.2-0.3,0.3-0.3h1.5c0.2,0,0.3,0.1,0.3,0.3v13.4c0,2.3-1.3,3.7-3.5,3.7c-0.7,0-1.2,0-2.7-0.7l-3.1-1.8
		c-0.8-0.4-1.2-1.3-1.2-2.1V50.4c0-0.9,0.5-1.7,1.2-2.1l11.8-6.8c0.7-0.4,1.7-0.4,2.5,0l11.8,6.8c0.8,0.4,1.2,1.3,1.2,2.1V64
		c0,0.9-0.5,1.7-1.2,2.1l-11.8,6.8C181.4,73.1,181,73.2,180.6,73.2z"/>
	<path fill="#8CC84B" d="M184.2,63.9c-5.1,0-6.2-2.4-6.2-4.3c0-0.2,0.2-0.3,0.3-0.3h1.5c0.2,0,0.3,0.1,0.3,0.3
		c0.2,1.5,0.9,2.3,4,2.3c2.5,0,3.5-0.6,3.5-1.9c0-0.8-0.3-1.3-4.1-1.7c-3.2-0.3-5.2-1-5.2-3.6c0-2.4,2-3.8,5.4-3.8
		c3.8,0,5.6,1.3,5.9,4.1c0,0.1,0,0.2-0.1,0.3c-0.1,0.1-0.2,0.1-0.2,0.1h-1.5c-0.2,0-0.3-0.1-0.3-0.3c-0.4-1.6-1.3-2.1-3.7-2.1
		c-2.7,0-3,0.9-3,1.6c0,0.9,0.4,1.1,4,1.6c3.6,0.5,5.3,1.2,5.3,3.7C190.1,62.4,187.9,63.9,184.2,63.9z"/>
	<g>
		<path fill="#8CC84B" d="M200.4,41.5v0.3h-1v2.6H199v-2.6h-1v-0.3H200.4z"/>
		<path fill="#8CC84B" d="M200.8,41.5h0.6l0.8,2.5l0.8-2.5h0.6v2.9h-0.4v-1.7c0-0.1,0-0.2,0-0.3c0-0.1,0-0.3,0-0.4l-0.8,2.5H202
			l-0.8-2.5V42c0,0.1,0,0.2,0,0.3c0,0.1,0,0.3,0,0.3v1.7h-0.4V41.5z"/>
	</g>
	<path fill-rule="evenodd" clip-rule="evenodd" fill="#8CC84B" d="M143,54.3c0.1-0.1,0.2-0.1,0.3,0l2.4,1.4c0.1,0.1,0.1,0.1,0.1,0.3
		v2.8c0,0.1-0.1,0.2-0.1,0.3l-2.4,1.4c-0.1,0.1-0.2,0.1-0.3,0l-2.4-1.4c-0.1-0.1-0.1-0.1-0.1-0.3v-2.8c0-0.1,0.1-0.2,0.1-0.3
		L143,54.3z"/>
</g>
</svg>
