<svg xmlns="http://www.w3.org/2000/svg" xmlns:xlink="http://www.w3.org/1999/xlink" viewBox="0 0 288 288" enable-background="new 0 0 288 288"><defs><path id="2" d="m3455 2477h480v801h-480z"/><path id="3" d="m1369 2133h1280v402h-1280z"/><path id="4" d="m0 103c0 2.8 0 5 0 5 19.9 0 36-16 36-36 0-19.9-16-36-36-36s-36 16-36 36c0 19.9 16 36 36 36 0 0 0-2.2 0-5-17 0-31-13.9-31-31 0-17 13.9-31 31-31 17 0 31 13.9 31 31 0 17-13.9 31-31 31"/><clipPath><use xlink:href="#2"/></clipPath><clipPath><use xlink:href="#3"/></clipPath><clipPath id="1"><use xlink:href="#4"/></clipPath></defs><symbol id="0" viewBox="-99 -144 198 288"><path d="m-73 144h146c0 0 26 0 26-27 0-27 0-261 0-261l-99 55-99-55c0 0 0 233 0 261 0 27 26.4 27 26.4 27" fill="#292f3d"/><g enable-background="new"><g><g clip-path="url(#1)"><path d="m0 103v5c19.9 0 36-16 36-36 0-19.9-16-36-36-36s-36 16-36 36c0 19.9 16 36 36 36 0 0 0-2.2 0-5-17 0-31-13.9-31-31 0-17 13.9-31 31-31 17 0 31 13.9 31 31 0 17-13.9 31-31 31" fill="#d4c71d"/><path d="m0 103c-.5-.6-1.8 0-2.6 0-3.6-.1-13-1.5-21.7-11-6.2-6.7-9.5-18.2-9.5-25.6.1-16.6 15.6-30.6 34-30.5 30.9.1 44.7 35.9 22.4 58-10 10-22.6 9.5-22.7 9.4 0 2.5 0 4.5 0 4.5 19.9 0 36-16 36-36 0-19.9-16-36-36-36s-36 16-36 36c0 19.9 16 36 36 36v-5" fill="#d4c71d"/><path d="m0 104c-.5-.6-1.8-.1-2.6-.1-17-.7-31.8-17.3-31.7-35.5 0-17.9 15.5-32.4 34.5-32 31.7 0 45.8 36 22.9 58-10.4 10-23 9.5-23 9.5 0 2.3 0 4 0 4 19.9 0 36-16 36-36 0-19.9-16-36-36-36s-36 16-36 36c0 19.9 16 36 36 36v-4" fill="#d1c51d"/><path d="m0 104c-.6-.6-1.9 0-2.7 0-15.2-.6-32-15.3-32-35.6.1-15.8 14-32.6 34.9-32.6 31.4.1 46 36.9 23.3 58.8-10.6 10.2-23.4 9.6-23.5 9.5 0 2.1 0 3.7 0 3.7 19.9 0 36-16 36-36 0-19.9-16-36-36-36s-36 16-36 36c0 19.9 16 36 36 36v-4" fill="#cec21d"/><path d="m0 105c-.6-.6-1.9-.1-2.7-.2-15.3-.6-32-15.2-32-35 0-18.5 15.8-33.5 35-33.5 31.8.1 46.6 37 23.6 59-10.8 10.3-23.7 9.7-23.8 9.6 0 1.9 0 3.3 0 3.3 19.9 0 36-16 36-36 0-19.9-16-36-36-36s-36 16-36 36c0 19.9 16 36 36 36v-3" fill="#cbbf1c"/><path d="m0 105c-.6-.6-1.9 0-2.7-.1-17-.7-32.5-17-32.4-34 0-21.7 18-34.6 35-34.6 32 .1 47 37 23.9 59-10.9 10.5-24 9.9-24 9.7 0 1.8 0 3 0 3 19.9 0 36-16 36-36 0-19.9-16-36-36-36s-36 16-36 36c0 19.9 16 36 36 36v-3" fill="#c8bc1c"/><path d="m0 105c-.6-.6-1.9 0-2.7 0-15.4-.6-32.6-14.9-32.5-34.6.1-19 16-34.7 35.5-34.6 31 .1 46.8 37 24.6 59-11.2 11-24.8 10.5-24.9 10.4 0 1.5 0 2.6 0 2.6 19.9 0 36-16 36-36 0-19.9-16-36-36-36s-36 16-36 36c0 19.9 16 36 36 36v-3" fill="#c5ba1b"/><path d="m-30.6 66c12.9-38 48.7-26.4 58-8.5.5 1 .5 1 4.1 11.3 6.5-8.6-9.1-36.8-37-32.4-20 3.1-31 22.9-26 32.5.5-1 .9-2 1.2-2.9" fill="#d7ca1e"/><path d="m0 106c-.6-.6-1.9-.1-2.8-.2-15.5-.6-32.7-15-32.7-34.9.1-19 16-34.8 35.7-34.8 31.4.1 46.9 38 24.4 59.8-11 10.7-24.5 10-24.6 9.9 0 1.4 0 2.3 0 2.3 19.9 0 36-16 36-36 0-19.9-16-36-36-36s-36 16-36 36c0 19.9 16 36 36 36v-2" fill="#c2b71b"/><path d="m0 106c-.6-.6-2-.1-2.8-.1-13.8-.5-32.8-13-32.7-35 0-19 16-34.7 35.7-34.6 30.6.1 46.7 36.9 25.8 58.7-11.8 12.3-25.9 11.4-26 11.3 0 1.2 0 2 0 2 19.9 0 36-16 36-36 0-19.9-16-36-36-36s-36 16-36 36c0 19.9 16 36 36 36v-2" fill="#c0b41b"/><path d="m0 106c-.6-.6-2 0-2.8 0-13.8-.5-32.9-13-32.8-35 .1-19.3 16-34.9 35.8-34.8 31.4.1 47 38 24.7 60-11.2 10.8-24.8 10-24.9 10 0 1.1 0 1.7 0 1.7 19.9 0 36-16 36-36 0-19.9-16-36-36-36s-36 16-36 36c0 19.9 16 36 36 36v-2" fill="#bdb11a"/><path d="m-29.6 59c1.9-2.2 3.2-4.8 5.2-7 1-1.1 3.8-4 7-5.9 2.2-1.3 8.8-5.3 17.6-5.1 11.7.2 21 5.7 28.4 16.4.9 1.4 1.9 2.8 2.3 2.8 1.3 0 .2-7.2-7-14-24.8-24-57 2.4-55 13.3 0 .3.2.7.4.8l1.4-1.3" fill="#dacd1e"/><path d="m-27.8 53.7c2.2-1.8 3.9-4.1 6.1-5.8 3.3-2.5 4.2-3.1 8-4.9 2.3-1.1 7.8-3 13.9-2.9 12.7.2 21.3 6.8 26 12.3 2 2.3 2.5 2.3 2.7 2.3 1.5-.4-2.7-8.4-11.2-13.5-25-15-48 7.8-47 13.5.4-.5.9-.7 1.3-1" fill="#ddd01f"/><path d="m-26 50c4.5-1.9 7.5-5.9 12-7.8 2.3-1 7.2-2.9 14.2-2.9 3.6 0 10.7.7 18 5.1 3 1.8 5 5 8.6 5.7-1.1-2.7-9.2-13.9-27-14-13.4-.2-24.3 8.6-26.4 13.3-.1.2-.2.5-.3.8.4-.1.8-.1.9-.1" fill="#dfd21f"/><path d="m0 107c-.6-.6-2-.2-2.8-.2-13-.5-29-11.4-32-27.9-3.8-20.3 8.8-35 22-40-13.6 5.1-23 18.2-23 33.5 0 19.9 16 36 36 36v-1" fill="#baaf1a"/><path d="m13 38.5c32.6 14.2 27.5 55-.7 65.8-5.3 2-9.8 2.1-12.4 2.2 0 .9 0 1.5 0 1.5 19.9 0 36-16 36-36 0-15.4-9.6-28.5-23-33.6.1 0 .2 0 .3.1" fill="#baaf1a"/><path d="m0 107c-.6-.6-2-.1-2.8-.2-12.2-.5-27.3-10-31.5-25.4-3.4-12.5-1-29.7 16.3-40-10.8 6.2-18 17.8-18 31 0 19.9 16 36 36 36v-1" fill="#b7ac19"/><path d="m22 43.6c24.9 19.5 14.5 58-16.9 62.7-1.6.2-3.7.3-5.2.4 0 .8 0 1.3 0 1.3 19.9 0 36-16 36-36 0-13.3-7.2-24.9-17.9-31 .7.4 1.6 1 2.3 1.5.5.4 1.2.9 1.7 1.3" fill="#b7ac19"/><path d="m-21.7 45.9c7.6-4.1 13-7.1 21.9-6.9 9.3.2 16 3.4 20 6.1 2.4 1.6 3.3 1.9 3.3 1.9 1-.5-4.2-6.1-13.2-9.1-17-5.7-33 4.7-34 9.2.7-.5 1.4-.8 2.1-1.2" fill="#e2d51f"/><path d="m0 107c-.6-.6-2-.1-2.9-.1-11-.4-25.7-8.7-30.7-23-2.5-7.1-6.3-25.3 11.5-40-8.5 6.7-13.9 16.9-13.9 28.5 0 19.9 16 36 36 36v-1.1" fill="#b4a919"/><path d="m25.9 47c19.9 20.8 8.2 58.8-25.9 59.9 0 .7 0 1.1 0 1.1 19.9 0 36-16 36-36 0-11.6-5.4-21.8-13.9-28.4.6.5 1.5 1.2 2.1 1.7.5.5 1.2 1.2 1.7 1.7" fill="#b4a919"/><path d="m0 107c-.6-.6-2-.1-2.9-.1-12.2-.4-25-9.4-29.8-20.8-8.8-20.9 3.3-35.6 7.2-39.6-6.5 6.6-10.5 15.6-10.5 25.5 0 19.9 16 36 36 36v-1" fill="#b1a719"/><path d="m25.9 47c21 23.7 6 59-25.9 60 0 .6 0 .9 0 .9 19.9 0 36-16 36-36 0-9.9-4-18.9-10.5-25.4.1.1.3.3.4.4" fill="#b1a719"/><path d="m0 107c-.6-.6-2 0-2.9 0-11.3-.4-23.7-8.4-28.8-18.7-8.9-17.8-1.8-31.7 3.1-38-4.7 6.1-7.5 13.7-7.5 22 0 19.9 16 36 36 36v-1" fill="#aea418"/><path d="m29 50.9c16.6 24.9.7 55-29 56 0 .5 0 .8 0 .8 19.9 0 36-16 36-36 0-8.3-2.8-15.9-7.5-22 .2.3.5.7.7.9" fill="#aea418"/><path d="m-19.9 43.8c1 0 2.1-1 3-1.4 3.4-1.4 9-3.9 17-3.9 7.7 0 13.8 2.6 16.7 3.9.9.4 2 1.4 3 1.4.2 0 .4-.2.5-.2-12.4-10.7-31-8.7-40.8 0 .2 0 .4.2.6.2" fill="#e5d820"/><path d="m0 107c-.6-.6-2 0-2.9 0-9.1-.3-21.5-6.2-27.8-16.9-9.2-15.7-4.3-29.4-.6-36-3 5.3-4.7 11.4-4.7 17.9 0 19.9 16 36 36 36v-1" fill="#aba118"/><path d="m31.9 55c11.9 25-4.2 51-31.9 52 0 .4 0 .6 0 .6 19.9 0 36-16 36-36 0-6.5-1.7-12.6-4.7-17.9.2.4.4.9.6 1.2" fill="#aba118"/><path d="m0 108c-.6-.6-2-.2-2.9-.2-8.1-.2-19.8-5.4-26.3-14.7-9.6-13.7-7-26.9-4.6-33.5-1.4 3.9-2.2 8.2-2.2 12.6 0 19.9 16 36 36 36" fill="#a89e17"/><path d="m34 60c7.4 24-8.8 46.8-34 47 0 .3 0 .4 0 .4 19.9 0 36-16 36-36 0-4.4-.8-8.7-2.3-12.6.1.2.2.5.3.7" fill="#a89e17"/><path d="m-14.4 40.6c14-3.5 14-3.5 30.6.4-8.9-6.1-23.5-6.1-32.6 0 .7-.2 1.4-.3 2-.4" fill="#e8db20"/><path d="m-7.8 38c5.9-.8 10.7-1 18 .4-9.5-3.8-17.6-1.3-20.7 0 .8-.1 1.8-.3 2.6-.4" fill="#ebdd21"/></g></g><path d="m0 103c17 0 31-13.9 31-31 0-17-13.9-31-31-31-17 0-31 13.9-31 31 0 17 13.9 31 31 31" fill="#d7ca1e"/></g></symbol><use xlink:href="#0" width="198" height="288" x="-99" y="-144" transform="matrix(1 0 0-1 144 144)"/></svg>
