<svg xmlns="http://www.w3.org/2000/svg" xmlns:xlink="http://www.w3.org/1999/xlink" viewBox="0 0 288 288" enable-background="new 0 0 288 288"><defs><path id="3" d="m-144-2.8v-132h288v132 84h-288z"/><path id="4" d="m2736 2117h480v801h-480z"/><path id="5" d="m650 1773h1280v402h-1280z"/><clipPath id="2"><use xlink:href="#3"/></clipPath><clipPath><use xlink:href="#4"/></clipPath><clipPath><use xlink:href="#5"/></clipPath><linearGradient id="1" gradientUnits="userSpaceOnUse" x2="0"><stop stop-color="#22357a"/><stop offset="1" stop-color="#162051"/></linearGradient></defs><symbol id="0" viewBox="-144 -135 288 270"><path d="m-144 9.2c0-6.6 0-17.4 0-24v-108c0-6.6 5.4-12 12-12h264c6.6 0 12 5.4 12 12v108c0 6.6 0 17.4 0 24v59.8c0 6.6-5.4 12-12 12h-264c-6.6 0-12-5.4-12-12v-59.8" fill="#292f3d" fill-rule="evenodd"/><path fill="url(#1)" fill-rule="evenodd" d="m141-3h-285"/><path d="m-45 81c0 0 0 11.9 0 17.5 0 9.5 0 17.6 18.2 17.6 8.6 0 44 0 53.7 0 18 0 18-8.1 18-17.5 0-7.3 0-17.6 0-17.6h27c0 0 0 12.9 0 27 0 17.9-9 26.9-27.3 26.9-13.9 0-75 0-90 0-17.8 0-26.8-9-26.8-26.9 0-10.2 0-27 0-27h27" fill="#292f3d" fill-rule="evenodd"/><g opacity=".3" clip-path="url(#2)"><path fill="#fff" fill-rule="evenodd" d="m-144-3h288v84h-288z"/></g><path d="m90-19c0-4.4-3.6-8-8-8h-20c-4.4 0-8 3.6-8 8v38c0 4.4 3.6 8 8 8h20c4.4 0 8-3.6 8-8v-38" fill="#eee021" fill-rule="evenodd"/><path d="m-54-19c0-4.4-3.6-8-8-8h-20c-4.4 0-8 3.6-8 8v38c0 4.4 3.6 8 8 8h20c4.4 0 8-3.6 8-8v-38" fill="#eee021" fill-rule="evenodd"/></symbol><use xlink:href="#0" width="288" height="270" x="-144" y="-135" transform="matrix(1 0 0-1 144 144)"/></svg>
