<svg xmlns="http://www.w3.org/2000/svg" xmlns:xlink="http://www.w3.org/1999/xlink" viewBox="0 0 288 288" enable-background="new 0 0 288 288"><defs><path id="1" d="m3095 1037h480v801h-480z"/><path id="2" d="m1009 693h1280v402h-1280z"/><clipPath><use xlink:href="#1"/></clipPath><clipPath><use xlink:href="#2"/></clipPath></defs><symbol id="0" viewBox="-144 -144 288 288"><path d="m0-45c-2.7 0-5.4 1.4-8.2 4.2-1.1 1.1-1.1 2.9 0 4 1.1 1.1 2.9 1.1 4 0 1.7-1.7 3.1-2.5 4.2-2.5s2.5.8 4.2 2.5c1.1 1.1 2.9 1.1 4 0 1.1-1.1 1.1-2.9 0-4-2.8-2.8-5.5-4.2-8.2-4.2m-72 43c0-7 .6-13.4 1.8-19 1.2-5.7 2.9-10.7 5.1-14.8 2.2-4.2 4.9-7.9 8.2-11 3.3-3.2 6.9-5.8 10.8-7.8 3.9-2 8.4-3.7 13.4-5 5-1.3 10-2.1 15.3-2.6 5.2-.5 10.9-.8 17.2-.8 6.3 0 12 .3 17.2.8 5.2.5 10.3 1.4 15.4 2.6 5 1.3 9.5 2.9 13.4 5 3.9 2 7.6 4.6 10.9 7.8 3.3 3.2 6.1 6.8 8.3 11 2.2 4.2 3.9 9.1 5.1 14.8 1.3 5.7 1.9 12 1.9 19 0 12.6-3.9 23.4-11.7 32.5.5 1.2.8 2.6 1.2 4.2.3 1.6.6 3.8.9 6.6.3 2.9.2 6.2-.3 9.9-.5 3.7-1.5 7.5-3 11.4l-1.1.2c-.8.2-2 .1-3.7-.2-1.7-.3-3.7-.7-6-1.4-2.3-.7-5.2-2-8.8-3.9-3.6-1.9-7.4-4.4-11.4-7.4-6.8 2.1-16.2 4.2-28 4.2-12 0-21.3-2.2-28-4.2-4 3-7.8 5.4-11.4 7.3-3.6 1.9-6.5 3.2-8.7 3.9-2.2.7-4.2 1.2-6 1.4-1.9.2-3 .3-3.6.2-.5-.1-.9-.2-1.2-.3-1.5-3.9-2.5-7.7-3-11.4-.6-3.7-.7-7-.4-9.8.3-2.8.6-5.1 1-6.7s.8-3 1.2-4.2c-7.8-8.9-11.7-19.7-11.7-32m19-16c0 8.2 3 15.6 9 22 1.8 2 3.9 3.6 6.3 4.6 2.4 1 5.1 1.6 8.1 1.8s5.9.1 8.7-.1c2.8-.2 6.2-.5 10.2-.8 4-.3 7.5-.5 10.4-.5s6.4.2 10.5.5c4.1.3 7.5.6 10.2.8 2.8.2 5.6.2 8.7.1 3-.1 5.7-.7 8.1-1.8 2.4-1 4.5-2.6 6.3-4.6 6-6.6 9-14 9-22 0-4.8-.5-9-1.5-12.8-1-3.7-2.3-6.9-3.8-9.4s-3.6-4.6-6.4-6.4c-2.8-1.7-5.4-3.1-8-4.1-2.6-1-5.9-1.7-10-2.2-4.1-.5-7.7-.9-11-1-3.2-.1-7.3-.2-12.2-.2-4.8.1-8.8.1-12 .3-3.2.1-6.8.4-10.9 1-4.1.5-7.4 1.3-10 2.2-2.6 1-5.2 2.3-8 4.1-2.8 1.7-4.9 3.9-6.4 6.4-1.5 2.5-2.8 5.7-3.8 9.4-1 3.7-1.5 8-1.5 12.7m16.8 4.5c0 7.5 4 13.5 9 13.5s9-6 9-13.5-4-13.5-9-13.5-9 6-9 13.5m54 0c0 7.5 4 13.5 9 13.5 5 0 9-6 9-13.5s-4-13.5-9-13.5c-5 0-9 6-9 13.5" fill="#bebebe"/><path d="m0 134c35.8 0 69-13.9 95-39 25.3-25.4 39-59 39-95s-13.9-69-39-95c-25.4-25.3-59-39-95-39s-69 13.9-95 39c-25.3 25.4-39 59-39 95s13.9 69 39 95c25.4 25.3 59 39 95 39m0 10c-79 0-144-64-144-144s65-144 144-144 144 65 144 144-64 144-144 144z" fill="#bebebe"/></symbol><use xlink:href="#0" width="288" height="288" x="-144" y="-144" transform="matrix(1 0 0-1 144 144)"/></svg>
