<svg xmlns="http://www.w3.org/2000/svg" xmlns:xlink="http://www.w3.org/1999/xlink" viewBox="0 0 288 288" enable-background="new 0 0 288 288"><defs><path id="1" d="m3091 1397h480v801h-480z"/><path id="2" d="m1005 1053h1280v402h-1280z"/><clipPath><use xlink:href="#1"/></clipPath><clipPath><use xlink:href="#2"/></clipPath></defs><symbol id="0" viewBox="-144 -144 288 288"><path d="m0 134c35.8 0 69-13.9 95-39 25.3-25.4 39-59 39-95s-13.9-69-39-95c-25.4-25.3-59-39-95-39s-69 13.9-95 39c-25.3 25.4-39 59-39 95s13.9 69 39 95c25.4 25.3 59 39 95 39m0 10c-79 0-144-64-144-144s65-144 144-144 144 65 144 144-64 144-144 144z" fill="#bebebe"/><path d="m-76 55.8c0 4.6 1.6 8.4 4.8 11.5 3.2 3 7.4 4.5 12.6 4.5 5.2 0 9.3-1.5 12.4-4.5 3.1-3 4.7-6.8 4.8-11.5.1-4.5-1.5-8.4-4.7-11.4-3.2-3.1-7.4-4.6-12.7-4.6h-.2c-5.1 0-9.2 1.5-12.3 4.6-3.1 3-4.7 6.8-4.7 11.4zm1.8-121v93h30.8v-93h-30.8zm47.8 0c.1 24.9.2 45 .2 61 0 15.5 0 24.7-.1 27.7l-.1 4.5h30.8v-13.5h-.2c1.2 2 2.5 3.7 3.8 5.2 1.3 1.5 3.1 3.1 5.3 4.9 2.2 1.7 4.9 3.1 8.1 4.1 3.2 1 6.8 1.4 10.7 1.4 10.7 0 19-3.5 25.7-10.6 6.6-7.1 9.8-17.4 9.8-31v-53h-30.8v50c0 6.5-1.3 11.7-3.8 15.4-2.5 3.8-6.4 5.6-11.8 5.6-3.9 0-7.2-1.1-9.9-3.2-2.6-2.2-4.6-4.8-5.9-8-.7-1.9-1-4.4-1-7.6v-51.7h-30.8z" fill="none" stroke="#bebebe" stroke-linejoin="round" stroke-width="10" stroke-miterlimit="10"/></symbol><use xlink:href="#0" width="288" height="288" x="-144" y="-144" transform="matrix(1 0 0-1 144 144)"/></svg>
