<svg xmlns="http://www.w3.org/2000/svg" xmlns:xlink="http://www.w3.org/1999/xlink" viewBox="0 0 288 288" enable-background="new 0 0 288 288"><defs><path id="3" d="m3455 2117h480v801h-480z"/><path id="4" d="m1369 1773h1280v402h-1280z"/><path id="5" d="m0 67c0 .6 0 1 0 1 9.9 0 18-8.1 18-18 0-9.9-8.1-18-18-18-9.9 0-18 8.1-18 18 0 9.9 8.1 18 18 18 0 0 0-.4 0-1-9.4 0-17-7.6-17-17 0-9.4 7.6-17 17-17 9.4 0 17 7.6 17 17 0 9.4-7.6 17-17 17"/><clipPath><use xlink:href="#3"/></clipPath><clipPath><use xlink:href="#4"/></clipPath><clipPath id="2"><use xlink:href="#5"/></clipPath><linearGradient id="1" gradientUnits="userSpaceOnUse" y1="86" x2="0" y2="-22.4"><stop stop-color="#eee021"/><stop offset="1" stop-color="#cbb620"/></linearGradient></defs><symbol id="0" viewBox="-144 -130.4 288 260.8"><path fill="#394050" d="m-72-94l-72-36v224l72 36z"/><path fill="#292f3d" d="m72 130l72-36v-224l-72 36z"/><path fill="#394050" d="m72-94l-72-36v225l72 35z"/><path fill="#292f3d" d="m0-130l-72 36v224l72-35z"/><path d="m0-22.4c0 0 36 45 36 72s-18 36-36 36-36-9-36-36 36-72 36-72" fill="url(#1)" fill-rule="evenodd"/><g opacity=".6" enable-background="new"><g><g clip-path="url(#2)"><path d="m0 67v.6c9.9 0 18-8.1 18-18 0-9.9-8.1-18-18-18-9.9 0-18 8.1-18 18 0 9.9 8.1 18 18 18 0 0 0-.4 0-1-9.4 0-17-7.6-17-17 0-9.4 7.6-17 17-17 9.4 0 17 7.6 17 17 0 9.4-7.6 17.2-17 17.2" fill="#cacaca"/><path d="m0 66.8c-.3-.3-1-.1-1.4-.1-6.3-.3-15.7-6.1-15.7-17.7 0-9.5 7.7-17.2 17.2-17.2 15.3 0 22.8 18.6 12 29.7-5.3 5.4-12.2 5.2-12.2 5.1 0 .5 0 1 0 1 9.9 0 18-8.1 18-18 0-9.9-8.1-18-18-18-9.9 0-18 8.1-18 18 0 9.9 8.1 18 18 18v-.6" fill="#cacaca"/><path d="m0 66.8c-.3-.3-1-.1-1.4-.1-6.6-.3-15.8-6.5-15.8-17.5 0-9.6 7.8-17.4 17.3-17.4 15.3 0 22.9 18.7 12 29.7-5.3 5.4-12.2 5.2-12.2 5.2 0 .5 0 1 0 1 9.9 0 18-8.1 18-18 0-9.9-8.1-18-18-18-9.9 0-18 8.1-18 18 0 9.9 8.1 18 18 18v-.7" fill="#c6c6c6"/><path d="m0 66.8c-.3-.3-1-.1-1.4-.1-6.4-.2-15.8-6.1-15.8-17.7 0-9.5 7.8-17.3 17.3-17.2 15.4 0 23 18.7 12 29.8-5.2 5.4-12.2 5.1-12.2 5.1 0 .5 0 .9 0 .9 9.9 0 18-8.1 18-18 0-9.9-8.1-18-18-18-9.9 0-18 8.1-18 18 0 9.9 8.1 18 18 18v-.6" fill="#c2c2c2"/><path d="m0 66.8c-.3-.3-1-.1-1.4-.1-6.4-.2-15.9-6.1-15.9-17.7 0-8.3 6.7-17.3 17.4-17.3 15.4 0 23 18.7 12.2 29.9-5.5 5.5-12.3 5.1-12.3 5.1 0 .5 0 .9 0 .9 9.9 0 18-8.1 18-18 0-9.9-8.1-18-18-18-9.9 0-18 8.1-18 18 0 9.9 8.1 18 18 18v-.6" fill="#bebebe"/><path d="m0 66.9c-.3-.3-1-.1-1.4-.1-6.7-.2-15.9-6.6-15.9-17.8 0-8.3 6.7-17.3 17.4-17.3 15.4 0 23 18.8 12.2 29.9-5.3 5.4-12.3 5.2-12.3 5.1 0 .5 0 .9 0 .9 9.9 0 18-8.1 18-18 0-9.9-8.1-18-18-18-9.9 0-18 8.1-18 18 0 9.9 8.1 18 18 18v-.6" fill="#bababa"/><path d="m0 66.9c-.3-.3-1-.1-1.4-.1-6.7-.2-16-6.6-16-17.7 0-9.8 7.7-17.4 17.5-17.4 15.5 0 23 18.8 12.2 30-5.4 5.5-12.3 5.1-12.3 5s0 .9 0 .9c9.9 0 18-8.1 18-18 0-9.9-8.1-18-18-18-9.9 0-18 8.1-18 18 0 9.9 8.1 18 18 18v-.6" fill="#b6b6b6"/><path d="m0 66.9c-.2-.2-.6-.1-.9-.1-8-.2-16.6-7-16.6-17.8 0-9.8 7.7-17.5 17.5-17.4 15.6 0 23 18.8 12.2 30-5.3 5.6-12.2 5.2-12.2 5.2s0 .8 0 .8c9.9 0 18-8.1 18-18 0-9.9-8.1-18-18-18-9.9 0-18 8.1-18 18 0 9.9 8.1 18 18 18v-.6" fill="#b2b2b2"/><path d="m6.6 32.8c14.7 6 14.4 27-.4 32.9-2.6 1-4.9 1.1-6.2 1.1 0 .5 0 .8 0 .8 9.9 0 18-8.1 18-18 0-8.2-5.5-15.2-13-17.3.4.1.9.3 1.2.4.1 0 .3.1.5.1" fill="#adadad"/><path d="m0 66.9c-.3-.3-1-.1-1.4-.1-5.7-.2-14.5-5-15.9-15.2-1-7.2 2.4-16.4 12.4-19.3-7.6 2.1-13 9.1-13 17.3 0 9.9 8.1 18 18 18v-.7" fill="#adadad"/><path d="m8.9 34c14.7 9 9.2 29-5.1 32.5-1.5.3-2.9.4-3.8.4 0 .4 0 .8 0 .8 9.9 0 18-8.1 18-18 0-6.8-3.8-12.8-9.4-15.8.1 0 .2 0 .3.1" fill="#a9a9a9"/><path d="m0 66.9c-.3-.3-1-.1-1.4-.1-6.7-.2-13.7-5.9-15.4-12.7-2.2-8.4 1-16.3 8.2-20.3-5.6 3.1-9.4 9-9.4 15.8 0 9.9 8.1 18 18 18v-.7" fill="#a9a9a9"/><path d="m12.9 37c9.6 10 3.6 29-12.9 29.8 0 .4 0 .7 0 .7 9.9 0 18-8.1 18-18 0-5.7-2.7-10.8-6.8-14 .2.2.5.5.8.6.2.3.7.7.9 1" fill="#a5a5a5"/><path d="m0 66.9c-.3-.3-1-.1-1.4-.1-5.4-.2-12.5-4.3-15-11.5-2.1-5.8-1.8-14 5.3-19.9-4.2 3.3-6.8 8.4-6.8 14 0 9.9 8.1 18 18 18v-.6" fill="#a5a5a5"/><path d="m14.6 39c7.5 10.6 1 27.4-14.6 27.8 0 .4 0 .7 0 .7 9.9 0 18-8.1 18-18 0-4.7-1.8-9-4.8-12.2.2.2.4.5.6.7.3.3.6.7.8 1" fill="#a1a1a1"/><path d="m0 66.9c-.3-.3-1-.1-1.4-.1-4.1-.1-11.3-3-14.6-10.3-2.3-5.2-2.8-13 2.8-19-3 3.2-4.8 7.5-4.8 12.2 0 9.9 8.1 18 18 18v-.6" fill="#a1a1a1"/><path d="m16 41c5.4 10.7-1.6 25.3-16 25.6 0 .4 0 .7 0 .7 9.9 0 18-8.1 18-18 0-3.7-1.1-7.1-3-9.9.1.2.3.5.5.8.1.2.3.5.5.8" fill="#9d9d9d"/><path d="m0 67c-.3-.3-1 0-1.4 0-4.4-.1-10.8-3-14.2-9.2-3.2-5.7-3-12.8.5-18-1.9 2.8-3 6.3-3 9.9 0 9.9 8.1 18 18 18v-.6" fill="#9d9d9d"/><path d="m0 67c-.3-.3-1 0-1.4 0-1.4 0-8.4-.6-13.6-8.1-.5-.8-5.1-7.9-1.6-16.2-.9 2.1-1.4 4.5-1.4 7 0 9.9 8.1 18 18 18v-.7" fill="#999"/><path d="m17 43.7c3.4 10.3-3.4 23-17 23.3 0 .4 0 .6 0 .6 9.9 0 18-8.1 18-18 0-2.5-.5-4.8-1.4-7 .1.2.2.6.3.8 0 .1.1.2.1.3" fill="#999"/><path d="m-15 41.7c6.9-11.9 23.5-13.3 31 1.5-6-15.5-25.6-14.3-31-1.6-.2.5-.5 1.1-.6 1.6.1-.4.4-1 .7-1.5" fill="#cecece"/><path d="m-13.9 39.6c6.7-8.8 20.3-10.3 28.4.9-6.4-11.4-22.9-11.4-29 0 .3-.3.5-.6.7-.9" fill="#d2d2d2"/><path d="m-12.3 37.7c7.2-7 17.9-6.9 24.9.2 0-.1-3.8-5.8-12.6-5.9-6.7-.1-11.8 4.6-12.3 5.5 0 .1-.1.2-.1.3-.1 0 0-.1.1-.1" fill="#d6d6d6"/><path d="m-10.6 36c4-2.2 6.2-3.5 10.7-3.5 3.8 0 4.5.3 10.6 3.5-6.2-5.3-15.3-5.3-21.5 0 .1 0 .2 0 .2 0" fill="#dadada"/><path d="m-8.6 34.6c5.9-2.8 11.2-2.8 17.2 0-5.2-3.3-12-3.3-17.2 0" fill="#dedede"/><path d="m-3.9 32.8c4.8-.9 8.2.1 9.4.4-1.9-.6-5.7-1.9-11 0 .5-.1 1.2-.3 1.7-.4" fill="#e3e3e3"/></g></g><path d="m0 67c9.4 0 17-7.6 17-17 0-9.4-7.6-17-17-17-9.4 0-17 7.6-17 17 0 9.4 7.6 17 17 17" fill="#cdcdcd"/></g></symbol><use xlink:href="#0" width="288" height="261" x="-144" y="-130" transform="matrix(1 0 0-1 144 140)"/></svg>
