<svg xmlns="http://www.w3.org/2000/svg" xmlns:xlink="http://www.w3.org/1999/xlink" viewBox="0 0 288 288" enable-background="new 0 0 288 288"><defs><path id="1" d="m3455 1397h480v801h-480z"/><path id="2" d="m1369 1053h1280v402h-1280z"/><clipPath><use xlink:href="#1"/></clipPath><clipPath><use xlink:href="#2"/></clipPath></defs><symbol id="0" viewBox="-144 -144 288 288"><path d="m-71-56.9c2.1-.2 4.5-.4 7.1-.4 13.7 0 26 4.2 36.7 12.6-6.4.1-12 2.1-17.2 5.9-5.1 3.8-8.5 8.7-10.4 14.6 2-.3 3.9-.5 5.6-.5 2.6 0 5.2.3 7.8 1-6.8 1.4-12.5 4.8-17 10.2-4.5 5.5-6.8 11.7-6.8 18.9v.4c4.1-2.3 8.6-3.6 13.4-3.7-4 2.7-7.2 6.2-9.6 10.5-2.4 4.3-3.6 9-3.6 14 0 5.4 1.3 10.3 4 14.9 7.4-9.1 16.4-16.4 26.9-21.8 10.6-5.5 21.9-8.5 34-9.1-.5 2.3-.7 4.6-.7 6.8 0 8.2 2.9 15 8.6 20.9 5.8 5.8 12.7 8.6 20.9 8.7 8.5 0 15.7-3.1 21.6-9.3 6.6 1.3 12.9 3.7 18.8 7.1-2.3-7-6.6-12.4-13-16.3 5.7.6 11.3 2.1 17 4.6-4.1-6-9-11-14.8-15.3.1-.9.1-2.1.1-3.8 0-8.1-1.1-16-3.5-23.9-2.3-7.9-5.8-15.5-10.6-22.7-4.7-7.3-10.4-13.7-16.9-19.3-6.5-5.6-14.4-10-23.6-13.4-9.2-3.3-19-5-29.6-5-16.4 0-31.5 4.4-45 13.3z" fill="none" stroke="#bebebe" stroke-linejoin="round" stroke-width="10" stroke-miterlimit="10"/><path d="m0 134c35.8 0 69-13.9 95-39 25.3-25.4 39-59 39-95s-13.9-69-39-95c-25.4-25.3-59-39-95-39s-69 13.9-95 39c-25.3 25.4-39 59-39 95s13.9 69 39 95c25.4 25.3 59 39 95 39m0 10c-79 0-144-64-144-144s65-144 144-144 144 65 144 144-64 144-144 144z" fill="#bebebe"/></symbol><use xlink:href="#0" width="288" height="288" x="-144" y="-144" transform="matrix(1 0 0-1 144 144)"/></svg>
