<svg xmlns="http://www.w3.org/2000/svg" viewBox="0 0 212.9 201.9" enable-background="new 0 0 212.9 201.9"><path fill-rule="evenodd" fill="#4d4b47" d="m52.6 23.5c.6 0-.3.3 0 .8.4-.8.9-1.4 1.8-1.8-.1-.4-.5-.6-.4-1.2.8-.2 1.5-.7 1.3-1.8 1-.7 2-1.3 2.2-2.6 1.3-.9 2.3-2 2.4-4 1-.1 1.1-1.1 1.8-1.6.6 0 .3.8.9.8.5-.1.1-1-.4-.8.9-3.1 3.4-4.8 4.8-7.4.5.1.8 0 1.1-.2.9-1.2 1.2-3 2.7-3.7 4.4.2 6.4 2.5 10.6 2.8 0 .2 0 .4 0 .6 2.3.5 4.9.2 6.4 1.4.2-.2 1.6-.4 1.8 0 .2.9-.6-.3-.7.4.1.4 1.3.3.9-.4 2.4.4 4.6 1.1 7 1.6.2.6-.3.5-.2 1 .4.4.7-.2 1.5 0 .1-.7-1.3 0-1.1-.8.4 0 1.1-.2.9.4.2 0 .1-.4.4-.4 1.7.7 4.7.7 7 1 .7.1 2.2.2 2 1 .2-1.1 2.3-.1 3.7-.4.4.4-.1.4 0 1 .4 0 .3-.5.9-.4 0-.2-.3-.2-.4-.2.8-.3 2.3.1 2.6.2 3.4.7 8 .4 10.8 2.4.3-.3.6-.6.9-.8.6 1.2 3.2.4 3.5 1.4.2-.1.4-.2.7-.2 0-.4-.1-.7-.4-.8.4-.6.8.5 1.1.6 3.8-1 8.8 2.7 13.4 2.2.5 0 .1.7 0 .8.4 0 .5-.3.4-.8.7.1 1.4.2 1.8.6.3 0 .2-.4 0-.4 2.3-.2 3.9.7 5.7 1.6 1.3-.1 3.8.2 4.4 1.4 1.1-.6 4.2-.1 4.8 1 .3 0 .2-.4.2-.6.3.3 1 .2 1.5.2.1.3-.2.3-.2.6 3.5-.5 7 1.5 10.3 1.8.4.1-.9 1.3-.9.4-.5.1.3.6.4.8.6-.6.5 0 .7-.8 3.7.9 5.9 2.3 9 3.2 0 .4-.3.4-.2.8 1.4-.9 4.1.8 5.5 1 .1.4 0 .6-.4.6.1.2.2.4.4.4.2-.2.1-.4.2-1 .6 0 1.4.2.9.6.4-.2.8-.3 1.3-.4.1.4.9.2.7.8.3-.7 3 .8 4.8 1.2 1.3.3 2.9 0 3.1 1.6.3 0 .1-.6.4-.6.6.1 0 1.5 1.5 1.2.5 3.1 2 7.2 1.1 9.8 1.7 3.7 2.4 8.9 3.1 13.5.4 2.7 1 5.3.4 7.4.5.1.4-.3.4-.6 1.9 5.4 1.1 11.7 2.9 16.3 1.3 3.6 1.8 7.5 2.6 11.7 0 .2.3.2.4.2.1 4.4.5 7.9 1.3 11.9-.4.3-.7.7-1.3.8.1.3.3-.1.7 0-.7.8-1.6 1.3-1.8 2.6-.5.1-.6-.1-.9-.2 0 2.8-1.7 5.7-3.3 7.6-.1-.6.5-.6.4-1.2 0-.4-.9.4-.7-.6-.2.1-.3.4-.4.6 1.1 1 .4 2.3 0 3.8-.9.2-.8.4-1.8.2-.1.5.9.2.7.8-.8.8-.9 3.1-2 3 0 1-1.2 4.2-2.4 3.4.6-.1.5-.7 1.1-.8.2-.6-.2-.7-.2-1.2-.4 0-.5.2-.9.2-.2-1.1 1-.8 1.3-.4 0-.5-.3-.6-.4-1-.8.3-1 1.1-1.8 1.4.4 1.1-.4 2.2.9 2.6-2 3.7-5.3 6.1-6.8 10.2-.3.2-.3.1-.7 0-.1.9-.3 1.6-1.1 1.8.4-.4.1-1-.7-.8.2.2.9.6 0 .6.5.2.5.7.4 1.4-.7.2-.3-.7-.7-.8-.7 0-.3.9-.7 1.2.1.7.6-.7.7 0-1.3 1.9-2.9 3.7-4 5.8-.8-1.3 1.1-1.8.9-3.2.7 1.1.6-.7 1.3-.8 0-.4-1.1.4-1.1-.4-.7.2-.4 1.3-.9 1.6-.4-1-1.2.6-1.5-.4-.7.1-.3 1.2-.7 1.6.9.3.5-.5.9-.6 2.1 1.1-1 5.7-1.3 5.2-.6 1.7-2.4 2.4-2.9 4.2-.4-.4-.4-.9-.2-1.4-.2-.2-.4-.3-.7-.4-.1.5-.3.2-.9.4.3.4.2 1.3.4 1.8.5-.1.4-.5.7-.8-1.6 3.8-4.7 7.9-7.9 10.8-.2-.7-1.1 0-1.5-.8-.5 0-.1.7-.2 1 .6 0 .9.5 1.5 0-.3 1-.8 1.8-2 2 0 .3 0 .5 0 .8-.4.1-.4-.2-.7-.2-.2 1-1 2.4-1.8 2.2-.3 1.2-1 2.9-2.2 2.6-.5 2.6-3.8 4.3-5.3 6.6-.3-.1-.3-.4-.7-.4.1 1.3-1 2.7-2.4 3.2 0-.3 0-.5 0-.8 1.2.7.6-1.3 1.8-1.2-.2-.4-1.3 0-1.3-.6-.8.3.6.3.2 1-.7.1-1.2.3-1.5.8 0 .8.8.7.9 1.4-1.5.9-2 2.6-3.3 3.6-.2-.6.6-.4.4-1-1.1 1-.7 2.4-1.8 4-1.1 0-.5-1.4-1.3-1.6-.5 0-.5.5-.4 1 0 .6 1 .3 1.3.6.2 1-.6.8-1.1 1.2-2.7 2.4-4.2 5.7-6.6 8.4-.2-.1-.4-.2-.7-.2-1.2 3.1-4 4.6-5.7 7.2-.2-.6.6-.4.4-1-1.1.6-.5 1-.7 1.8-.4 0-.7-.1-.9-.4-.3 1-1.9.8-2.2 1.8-1.3 0-2-.7-3.5-.6.1-.4.9-.2.7-.8-1.1 1.3-2.2-.5-4.2-.2.6-.5.3-.8-.2-1.2-.9.3.1.4 0 1-2.1.1-2.5-1.3-4.8-1 .4-.8 1.3-1 1.8-.2-.2-.6-.2-1.5-.9-1.6-.8-.2-.4.7-.9.8-.8-.3-.5-.5-1.1-1-.5.1-.2.7-.7.8.2.6.6.3 1.1.2.2.7-.4.7-.9.8 0-.2 0-.4 0-.6-.5.2-1 .5-1.8.4.1-.4-.3-.4-.7-.4-.1-.3.2-.3.2-.6-.6-.1-.9-.3-.9.4-.5-.1-.2-.7-.7-.8-.6-.1-.8.1-.7.6-.3-.9-1.7-1.3-2.6-.6-1.6-.7-2.3-2.2-5.1-1.8.2-.7.4-.6.9-.2.2-.8-.8-.5-.9-1-.9.2.1.8-.4 1.2-.6-.4-1.3-.7-2.4-.6 0-.3 0-.5 0-.8-.5-.1.1.9-.7.6 0-.7-.6 0-.7-.8-.4.8-1.4.2-1.5-.4-.5.4-1.5.5-2.4.6-.5-1.2-3.3-.5-4-1.8-.5.9-1.4.1-1.5-.6-.3 0-.2.4-.2.6-.3 0-.4-.8-.4 0-1.5-1-3.7-1.2-5.5-1.4-.1-.4-.6-.6-.2-1-1.6.8-2.6-.6-4.4-.4-.2-.5-.5-.9-.4-1.6-.6 0-.4.3-.9 0 .1.3 1.1 1 .2.6.1.7.6 0 .7.4-1.4.1-4.8-1.2-6.8-1.2-.1-.3-.3-.5-.7-.6-.4.1-1.3-.2-1.3.2-.4 0-.5-.3-.4-.8-.7.6-2.3-.2-2.9-1-1.7.4-2.2-.7-4-.6.2-.6.3-.7-.2-1-1.5 1.5-2.9-1-5.3-.4-.1-.4.2-.5.2-.8-.5-.1-.4.3-.4.6-5.3-.7-8.7-2.9-14.5-3.4-.2-.9.1-1.2-.2-1.8-.4.4-.4.9-.2 1.4-1.9.1-2.1-.3-3.7-.4 0-.3 0-.5 0-.8-2.6.9-5.1-1.2-7.9-1.2.1-.8-.4-1.1-.2-2-.8.1-.3 1-.2 1.4-2.3-1.2-4.5-.6-5.9-1.8-5.6-.5-11.2-3.7-17.6-5.4.1-.4-.1-.5-.2-.8-3.5 0-5.6-2.9-9-3.6-.1-.7.6-.7.9-1-.1-.4-.6.3-.9-.2.1-2.9-.2-5.1.2-7-.7-2.4-.8-5.5-1.3-8.6-.2-1.3-.4-2.9-.2-4-.1.7 1.1-.4.2-.6-.4 0-.1.7-.4.8 0-1.4.8-2.2 0-4 .3 0 .6 0 .7-.2 0-.4-.7-.1-.9-.4.3-3.4-.1-6.8.4-9.2.2-.6-.6-.4-.7-.8.9-1.7.8-5.2.4-6.4.6-2 1.3-4.5.9-7 .2 0 .4 0 .7 0 .4-1.7-1.7-2.4-.2-3.4-1.2-1.1-.2-4.6-1.3-5.4 1.9-2-.9-4-.2-7.2.2-.5-.2-.6-.8-.3.3-.9-.2-2.2.4-3.2 1.7 0 3.4-.4 4.8-.2.7.1.7.2.7.2.3-.1 2.8-.8 2.6-.2 2-1.1 4.3.6 6.6 1 .1.4-.2.5-.2.8.3 0 .6 0 .7.2.7-.2-.5-.3-.2-.8 2.3 1.4 6.4 1.2 8.4 3.4.7.1-.6-.6.2-.6.6-.1.8.1.7.6 1.2-.9 2.4.6 4.2.4 0 .3 0 .5 0 .8.9 0-.1-.3.4-.6.7.7 2.7.2 2.9 1.4.5.1.4-.3.4-.6 1.9.5 3.4 1.3 5.7 1.4.2.5-.4.4-.4.8.7.2.3-.7.9-.6 2.3 1 9.8 2.2 10 3.4 2.6-.7 5.6 1.2 8.1 1.2.6 0 .7.5 1.1.6 1.7.3 4.6.1 5.7 1.6 2.3-.6 5 1.4 7.3 1.4-.2.2-.2.5-.2.8-.1-.9 2.1-.6 1.5 0 .9-.1 3.2 0 3.1 1 1.1-.5.9 0 2.6-.2 0 .5 0 1 .2 1.2.6.1.4-.4.7-.6 1.5.2 2.8 1 3.7 1.4 1.1.5 3.7 0 4 1.6.9-.4 4.3.3 4.6 1.8-.8.1-1.4 0-2-.2.3 1.1 2.5.4 3.1.8.1-.8-.9-.6-.9-1.4 2.2.7 4.4 1 7.5 1.4.3.2.2.7.2 1.2.3-.1.2-.5.2-.8 1.7-.1 3.1 1 5.3 1 0 .2 0 .4 0 .6 1.4-.7 4.4.5 5.9 1.4 1.5-.1 4 .6 4.8 1.8 1.7-.5 4.7 1 5.9 1.2 1-1 2.4-4 4.4-4 .3-.7-.7-.2-.4-.8.9.1.5-1.1.9-1.4 1.4 1 3.7-2.2 5.3-2.2 0 .4-.7.1-.9.4.1.3.3.5.7.6.4-.3.4-1 .9-1.2 0-.7-.6-.8-1.1-1 .5-.2.8-.5.9-1 1.5.3 1.7-1.3 2-2 .8-1.7 4-3 4.2-4.8.5 0 .1.9.2 1.2.7.2.4-.4.4-.8.3.2.4.5.9.6.4-.3.7-.7.7-1.4-.2-.8-.8 0-1.5-.2.2-.6.8-.9 1.1-1.4.6 1 1.6 1.6 2.2 2.6-.9-.4-1.6.3-2.4.6.1.6 1.1.4 1.5.6.6-.2-.3-.5.2-.8.4-.4.4.1.9.2.6-.3.2-.5.4-1.4-1.4.3.6-.4-.9-.4 0-.3 0-.7 0-1 .4 0 1.1.2.9-.4-.4-.8-1 1-.9-.4-.8-.2-.3.8-1.1.6.1-.4-.2-.4-.2-.2-.7-.8.7-1.5.9-2.2.3.2.5.7 1.1.6-.7-1-.2-2.1.9-2.4.5.4.5.8 0 1.2.6 0 1.3-.1 1.3.4.4 0 .5-.3.4-.8-.5-.2-.8-.3-1.5-.6.3 0 .3-1.2 0-.6.9-3.6 5.2-6.9 6.8-9.8.4 0 .5.2.9.2.1-.3-.2-.4-.4-.4 2.5-3.6 4.4-7.6 6.8-11.3.3.1.3.4.7.4 0-2.3 2.8-3.8 4-5.8.4-.1.4.2.7.2 0-1 .8-2.3 1.5-3.2.6-.1.4.4.9.4-1.2-2.1.9-5 2.9-4.8-.6-1.8 1.4-1.1 1.5-2.6.4-.1.4.2.4.4 3.7-4.8 5.7-11.3 10-15.5.5.2.9.6 1.3.8.1-.7-.5-.8-1.1-.8.9-1 2-3.8 3.3-5.6.2.4.8.5 1.5.4-.3-.2-.5-.6-1.1-.6 1.8-3.8 6.2-6.1 5.7-11.3 3.3-.6 2.7-5.1-1.3-3.8-1.5-1.6-5.6-.6-5.9-2.4-.5-.1-.4.3-.4.6-.5-.1-.5-.6-.9-.8-.1.6-1.7.4-2.6 0-.2-.6.2-.8.4-1-.4-.6-.5.7-.9-.2-.8.1.8.5 0 .6-.7.2-.7-.3-.7-.8-.2.7-.5.2-.7.8-4.4-1.8-9.9-3.2-15.4-4.8-.4-.6 1.2.6 1.5 0-.8-1-2 0-2.6-.8 0 .3.4.5 0 .6-2.6-.3-5.6-.4-8.4-1-.1-.4.1-.5.2-.8-.5.4-.2 0-.7-.2-.8.4.4.6.2 1-2.5-.6-5-.8-7.5-.6-.1-.6.5-.6.4-1.2-.4.3-.4.8-.9 1-1.3-.9-4.2-1.4-4.8-1.2-4.1-1.3-8.1-.5-11.4-1.6-.4.1-.9.1-1.1.4-.5 0-.1-.7-.2-1-.7.1-.3.5-.2 1-3.6-.8-7.6-1.9-11.4-3-.1-.4.4-.3.4-.6-.3-.8-1.2.5-.4.6-3.5.5-6.6-1.6-11.4-1.4-.1-.5 0-.8.2-1-.4.1-.6.5-.7 1-.4-.1-1.3.2-1.3-.2-.1-.4.3-.4.7-.4-.4-.2-.6-.6-.4-1.2-.2-.5-.4.5-1.1.2-.2.6.6.4.4 1-.6-.6-.8.1-1.3.2 0-.2 0-.4 0-.6-2.7.6-4.1-.4-6.6-.6-.3-.2-.3-.8-.7-1 .2 1.4-1.1-.7-1.5.4-1.2-.5-3.2-.8-2.6-1.8-.5-.3-1.2.4-.8.4-.1.5-.4-.3-.9 0 0-.5.3-.6.4-1 .4 0 .9 0 1.3 0-.3-1-2 0-2-.8-.6.8-.1.4-1.3 0 0 .1 0 .3 0 .4.1.3.3-.1.7 0-.1.6.3.8.7 1-1.2 0-4.8-.5-5.1-1.4-.4 0-1.1-.2-.9.4-.3-.4-1.9-.2-1.3-.8-.4 0-.5.2-.9.2-.3-.3-.1-.3 0-.6-1.1-.3-.8.4-2 0-.1-.5.6-.2.7-.6-.1-.5-1-.2-.7.4-.8 0-1.3-.3-2-.4-.1-.3.2-.4.4-.4-.1-.2-.2-.4-.4-.4-.5.6-.4 1.7-.4 2.8-.5.2-1.7-.2-2.2.4-.2 2.1-2.4 2.3-3.5 3.6-.7 1.9-2.3 3-3.3 4.6-.8-.6-1 .4-2 .2.3 1.3.9.1 1.5.8-1.6 2.9-4.3 4.6-5.7 7.6-2.4 0-3.2 1.5-3.5 3.4-1.7.8-1.8 3.1-3.7 3.6.2.6.1.5-.2 1-1.2-.3-1.7.2-2.6.2-.2.5.4.4.4.8.5-.1.5-.8 1.3-.6-.3 1.8-2.1 2.3-2.4 4-.5 0-1.1 0-1.1.4.6.6-1.2 3.5-1.8 5-.6-.2.5-.9-.4-1-.7.4.4 1.5-.2 1.8-1.1.2-.4-1.3-.9-1.6-.2 0-.2.2-.4.2-.2.4.6 1.3-.7 1.4.7.2.4 1.3 1.3.8-.3.8-.4 1.8-1.5 1.8.5 1.5-1.2 2.1-2.2 2.4 1.5.9-.8 2.5-1.3 3.4-.7.1-.1-1-.9-.8.9 1-1.1 3.9-2.4 4-1.1 3.3-4 5.3-4.8 8.2-.2 0-.2-.2-.2-.4-.1 1.8-2.5 3-2.9 5.2-5.8 5.7-10.2 12.6-15.4 18.9-.8 0-.6-.2-1.3 0 .4.6.4.7-.2 1.2-.6-.2.1-.6 0-1-.9-.1-.2 1.1-.2 1.4-1.5 1.5-3.2 3.5-3.1 5.8-1.5.2-2.4.3-5.1.2 0-.6.7-.6.4-1.4-1 .1-.4 1.7-1.8 1.4-1.4-2.7 2.3-4.1 3-6.5.6-2.2 0-3.5 1.5-4.8.5-.4 1.5-.4 2-1 .3-.4.3-1.5 1.3-1.2 0-1 1-1.3 1.5-1.8-.1-1.7 1.6-1.8 1.5-3.4 2.2-1.1 2.6-3.7 4.8-4.8.2-1.5 1.3-2.3 2.4-3-.2-1.1.7-1.3 1.3-1.6-.1-1.8 1.4-2.2 1.8-3.6.3 0 .2.4.2.6.8-.4.2-2.2 1.3-2.4.4.2.7 1 1.3.4-.3-.4-.6-.8-.9-1.2.2-.4.5-.6.7-1 .3.1.2.5.2.8.6-.6 1.7-.7 1.8-1.8-.4.1-.2.8-.9.6-.3-.2-.2-.7-.2-1.2 2.1-.8 1.7-3.8 4.4-4-.9-.8.8-.8.4-2.2.5.1 1 .1.9.8.5-.1.1-1.1-.4-1 .6-.4.9-1.9 1.8-1.4-.9-1.2 1.4-2 1.5-3.4.4 0 .1.7.4.8.4-.2.8-.4.7-1-.2-.5-.8.4-1.1-.2 1-.4 1.7-.8 2.4 0-.3-.7-.8-2 0-2.6.5.2-.2.9-.2 1.2.9-.3.6-1.5 2-1-.9-1.7.7-2.8 1.1-4 .9.4-.4 1.4-.9 1.8 2.3.5.6-4.1 3.1-3.6-1-1.2 1.2-2.5 2-3.4.5-.6.8-3 2-1.8-1-1.1.7-1.6 1.5-.6.1.5-.5.4-.7.6 0 .2.2.2.2.4.8 0 .7-.8 1.1-1.2.1-.5-.3-.7-.9-.6 1-.5.4-2 1.8-3.2.5 0 .5.5.4 1 .3-.5.7-.9 1.1-1.2-.3-.1-.6-.1-1.1-.4.3-.4.6-.8.7-1.4.5 0 .1.7.2 1 .6 0 .6-.6 1.1-.8-.1-.3-.6-.2-.9-.2.2-.7.6-1.1 1.3-.8-.6-.6.1-1.3.4-2 .5-.4 0 .8.7.1m137 112c-.9.2-.8 1.6-.2 1.8.4-.5-.1-1 .2-1.8m-4.6 2.8c-1 0-.9-.9-1.5-1.2-.4.5.3.8-.4.8.1.7 1.2 1 .4 1.8 1.1.1.8-1.1 1.5-1.4m-5.7 7.5c-.1 1-.8-.1-1.1-.2.1.5.5.7-.4.6.1 1.2 1.6-.2 1.5 1.2.3 0 .5-.1.7-.2-.1-.6-.2-1.2-.7-1.4m-18 26.9c-.2-.8-1.1-.9-1.1-1.8-1.4-.1-1.4 1-1.3 2.2.5.1 1.9 0 1.1-.4 0 .2-.2.2-.4.2.4-.3-.5-1.3.7-1.2.1.5.4.8 1 1m-8.6 8.4c.3.3.7.8 1.1.4.1-.4-.3-.4-.4-.6.1 0 .2-.2 0-.2 0 .4-.6.1-.7.4m-125-123c0-.2 0-.4.2-.4.3 0 .3.3.7.2.2-.5-.4-.4-.4-.8 1.2.3.9-.7 1.1-.8.7-.5 1 .6 1.3-.2-.7-.4-.9-1-2-.6-.4.7-.1 1.5-.7.8.1.4-.5 1.3-.2 1.8m10.3-11.3c.3 0 .6 0 .9 0 0-.6-.4-.9-.2-1.6-.6 0-.5-.6-1.1-.6-.2.6.6.4.4 1-.4.7-.5-.7-.9 0 .5.3 1.5.7.9 1.2m45.8-41c.8-.2.7 0 1.3-.4.8.7-1.2-1-1.3.4m-.2 2.8c.9-.2.7.6 1.5.4.2-.9-1.3-.9-1.5-.4m-18.5 1.4c1.1.3.5-1.6 0-.8.5.1.1.7 0 .8m29.5 0c-.5-.1-1.9-.2-1.5 0 .4.2 1.3.8 1.5 0m6.5 0c0 .3-.1.7.2.8 0-.1 0-.2.2-.2 0 .1 0 .3 0 .4.3 0 1.2-.3.7-.4-.7.6.1-.7-1.1-.6m18.3 1.4c.2-.5 1.1 1.1 1.1-.2-.6-.1-1.6-.2-1.1.2m-18.3 0c-.6.2-1-.6-1.3 0 .6.4 1 .7 1.3 0m17 0c.1.4-.6.8 0 1 .3-.6.8.1 1.1.2-.3-.5.5-1 0-1-.4 1-.5-.2-1.1-.2m-51.7 1.5c.4 0 .7 0 .9-.2.1-.6-.6-.6-.9-.8 0 .3 0 .6 0 1m39 0c.3-.6-.9-.9-1.1-.4.7-.2.3.6 1.1.4m-40 2.6c.6 0 1.1-.5.7-.8-.6-.1-.6.4-.7.8m-4.8.4c.5-.1 1-.1.9-.8-.4 0-.7 0-1.1 0-.1.3 0 .6.2.8m88 1.2c0-.2 0-.4.2-.4 0 .1 0 .2.2.2 0-.4 0-.6.2-.8-.4-.1-.7-.3-1.1 0 .3.1.5.3.4.6-.2 0-.2.3.1.4m9 3.2c.3.3.9 0 1.1-.4-.5-.4-1 0-1.1.4m3.9-.2c.5 0 .1.7.2 1 2 1.5.4-1.1-.2-1m12.4 2.8c.5-.4.1-1.1-.4-1.2.1.3 0 1 .4 1.2m-4.4.8c.7-.3 1.3.5 1.5 0-.4-.4-1.2-.6-1.5 0m10 3.2c-.1-1.5 1.1.6 1.3-.6-.8.3-.1-.7-.7-.6-.2.7-2.2-.3-1.5.2.4.3.3 1 .9 1m-132 8.9c-.4 0-.5-.2-.4-.6-.3 0-.6 0-.9 0 0 .5 1.1.9 1.3.6m146 1.2c.2-1.2-1.9-.3-2.2-1 0 .1 0 .3 0 .4 0 .1 0 .2.2.2.6-.2 1.3.4 2 .4m-9.9 19c-.8 0-.8 1 0 1 0-.4 0-.7 0-1m-5 7.6c-.1.5.4.4.2 1-4.1 3.1-5.4 8.8-9.5 11.9-.2.7-.6 2-1.3 1.6-.1 1.6-1 1.5-1.8 1.8 0 .8.2.1.7.2-1.5 1.8-2.1 4.5-4.4 5.6-.3 1.2-.7 2.1-1.8 2.6-.5 1.8-2.2 4.1-3.3 5.6-.2.3-1.3 1.2-1.8 1-.8 3.7-3.8 5.4-5.7 8-.2-.6-.3-1.3-.7-1.8-.6.4-.9.4-1.5 0 .2.5-.7 1 0 1.2.8-.5 2 .1 2.2.8-.8.2-.3 1.6-1.3 1-1.5 3-4 5.1-6.2 7.4 0-.3-.2-.5-.4-.6-.3.8.6.4.4 1-1.8 2.4-3.9 5.5-6.2 6.8-.2 1.3-.6 2.9-1.5 3 .1 0-.5-.4-.2.6-.1-.1-.8-.5-.9 0 .5 0 .1.9.2 1.2-.8.1-.8 1.3-1.5 1-.1.9-1.8 3.2-2.6 3.4-.5 1.3-1 2.6-2.4 3-.3-.2-.4-.5-.9-.6-1.1.4-3.7.6-4.4-.6-1.8-.4-3.5.1-4.8-.2 0 0-.1-.6-.2-.6-1-.5-3.5 0-3.3-1.2-2.2.3-3.8-1.2-6.6-1.6 0-.2.4-.5 0-.6-.8 1.1-2.5-.9-3.7-.2 0-.5 0-.9 0-1.4-1.1-.2.1 1.1-.4 1-1.1-.5-2.2-1-3.1-.8-.3-.1 0-.8-.4-.8-.5.4-2.7.5-2.9-.6 0 .2 0 .4-.2.4-1.5-.4-3 .3-3.7-.6-1.2.4-3.8.1-5.5-1.2.5 0 1.3-.8.7-1.2-.5.7-.9.9-1.3 1.4-2.7-1-5.6-1.8-8.1-3-1.1 0-3.2-.2-4-1.4-2.4.5-7.5-1.6-10.3-2.4.3-.3.2-1-.4-1-.3.5.6.8 0 .8-6.6-1.8-14.4-3.2-20.4-4.8 0-.5-.4-.7-.7-1 .1.5-.1.9-.7.8.1-1-2.3-.1-2-1.2-.8 1-2.1-.6-2.9-1-.3.5 1 .5.2.8-.9.1-.6-.8-1.1-1-.2.4.7.7 0 .8-2.2-1.3-5.7-1.3-7.9-2-.1-.6.4-.7.2-1.4-.6-.4-1.3-.3-2.2-.2-.3.9 1.2.2.9 1.2-1.5 0-1.5-1.3-2.2-2 .5-.3 1.3-.3 1.3-1-.6.1-.7-.3-.7-.8-.7-.2-.3.7-1.1.4 0 .7.4 1 .2 1.8-.6.2-1.1-.7-1.1.2.1.3 1.1-.2.9.8-1.6-.5-1.5 0-2.4-.8.7.3 1-.1 1.3-.6-.9-.4-2.2-.5-2.2-1.8-.6 1.1-.3 1.8.7 2.2-.5.6-.7.2-1.5.4-.4-.5.3-.7-.2-1 0 .3-.2.5-.4.6-.6-.7-2-1-3.1-.8 0-.6-.1-1-.4-1.2-.1 1.4-1.3-.3-2-.2 0-.3.4-.2.4-.4-1.8.1-3.8-.6-6.6-1.4.2.6-.5.4-.9.4-.2 1 .2 1.4.9 1.6-.7 2.9 0 6.2 0 9.6 0 5.6 1.8 11.8-.4 16.3-.1-.1-.8-.5-.9 0 .3.2.4.5.9.6.1-.4.4-.7.9-.8-.6 6.7-.2 13.4-.2 19.3 0 5.3-1.4 13 2.2 16.7.7-.7 1.7-.1 2.4.2-.1.4-1 0-.9.6 3.6 1.1 6.4 2.9 9.7 4.2-.2 0-.3.2-.4.4.4.1.4-.3.7-.4 4.5 1.2 7.3 2.9 12.8 3.6 0 .3 0 .7 0 1 1 .2-.1-.7.4-.6 6.1 1.5 15.8 3.5 22 5.8-.3 0-.2-.3-.2-.6 3.2 1.3 7.1 1.1 9.7 3.2 0-.5-.4-.6.2-.8.7.3.4.6.7 1 0-.3.2-.5.4-.6 2.4 1 5.4.5 7 2.4.1-.3.3-.4.7-.4 9.6 3.3 19.3 4.2 26.8 8 2.6-.2 5.5 1.2 9.5 1.4.5.6 1.4.7 2.4.8.1.4.7.4.2.8.7.2.3-.7 1.1-.4.4.8-.2 2.3-.9 2 .3.7 2.1 1.5 2.2.2-.4-.3-1.1-.2-1.3-.6.5-.4.6-1.1 1.1-1.4 3.7 1.3 9.3 1.3 12.3 2.6 0-1.6 1.9-4.5-.7-6.8 1.5-5-.1-9.6-.2-14.7.3 0 .7.8.7 0-1.4-1.6-.8-4.3-1.3-7 .4 0 .7 0 1.1 0 .2-.8-1.2-.1-1.1-.8-.6-5.2.3-12-2.6-15 .4-.3.2-1.2.2-1.8-1.7-5.1-.2-13-2.6-17.5.9-.3 1.8-.5 2.6-1.2 1 .8 2.1 1.6 3.1 2.8-.6 8.1 3.3 13.8 3.3 22-.6.2-.6-.3-1.1-.2 1.6 1.1 2.4 5.5 1.3 7 .6.4 1.1-.2 1.3.6-.3.9.1 1.3-.2 1.8 0-.3-.2-.5-.4-.6-.3 1 1.3 1.2.7 1.8-.7-.4-1.5-.7-2.2-1.2 0-.2 0-.4-.2-.4 0 2 1.6 1.6 2.6 2.4-.1 2.2 2.3 4.6.4 6.4.3 0 .5-.1.7-.2-.4 1.1.6 1.6-.4 2.4 1.4.3-.5 4.1-.9 4.2.1-.1-.9-.4-.9 0 .2.8-.2 1.2.4 1.2.6-.6 1.2-1.1 2-1.4-.3.7.9 1.8.2 2.4-.8.3-.4-.6-1.1-.4-.2 1.2 1.2.9 1.5 1.6 1.7 3.1-.3 7.3 1.1 10.8.5-.8 1.4-1.2 2.2-1.8.1.4-.3 1.3.2 1.4.1-.9.3-1.2 0-2 3.1.6 3.7-3.8 5.5-4.4 0-.5 0-1.1 0-1.6.8-.2 1.5-1 2.2-.2-.3-1 .6-.2.7-.6-.2-.2-.1-.4-.2-1 .4-.4.4.1.9-.2 0-.5 0-1.1 0-1.6 1.9-.5 1.8-2.9 3.3-3.8.1.4-.7 1.1-.2 1.2.5-.6.7-1.1 1.1-.8.3-.8-1 0-.7-.8 1.3-1.3 2.4-1.6 2.9-3.4 3.1-1.9 4.8-6.2 7.7-7.6-.2-1.2.8-1.5 1.1-1.6-.3.1 0-.9.2-1 0 .2.2.1.4 0-.3.3-.2.9-.2 1.4.9 0 .9-.9.9-1.8-.4-.1-.6.3-.7 0 .3-1 1-1.1 1.5-1.4-.9-.3 0-1.2.7-1.2.1.6-.6.5-.7 1 .6-.2.7-.2 1.3 0 .2-1-.3-1.2-.7-1.6 2.3-1.3 3.7-4.5 5.9-6.4-.3 0-.2-.5-.2-.8.5-.3.8.5.9 0 .2-1.6 2-3.4 3.1-4.8.2.2.1.7.7.6.6-.3-.8-.4-.4-1.2.7.2.3-.7.9-.6.3.1.9.9.9 0 .2-.9-.7.1-.7-.4 3.5-4.3 6.1-9.5 9.7-13.7.2 0 .3.3.4 0 .4-1.4 1.3-4.1 3.1-4.8 0-.4 0-.8 0-1.2 1.1.3 1.6-2.3 2.4-3.4.9-1.2 1.9-2.1 2.6-3 .1.1 1 .5 1.1 0-.2-.6-.7-.1-.9-.4 0-.6.7-.4.4-1.2.3.3.9.1 1.1-.2-.5 0-.7.4-.9-.2 2.7-4.2 4.4-6.9 7.7-10.6 0 .4.2.6.7.6-.1-.4 1.2-.5.4-.8-.5 0-.8.6-1.1 0 1.7-1.7 3-3.8 4-6.2.9-.2 1.7.6 2.2 0-.8-.1-1.4-.3-2.4-.2.8-6.4-2-9.6-1.8-15.5-.2-.4-.7-.6-.7-1.2.3 0 .8 0 .7-.4-.3-.5-.7.4-.9-.2.3-2-1-4.4-.9-6.4.5.1 1.2 1.1 1.8.4-.5-.1-.1-.9-.7-.8 0 .2-.1.5-.4.4.8-.7-.6-.5-.7-1 .6-2.6-2.2-4.5-.4-6.2-2.9.3-1.6-4.6-1.5-5.8-.4-.1-.6.3-.7 0 .5-1.5-.8-4.6.7-5.6-3-3.1-2.3-10.2-3.3-14.5 1.5-.1-.2-3.3 1.3-3.4-.5-.7-.7-.3-1.1-.4 1.2-6-4.2-4.9-3.1-.6-.4.1-.9.1-1.1.4.4 0 .6.2.7.4-1.5 2.3-2.3 4.7-3.5 6.8-.3.1-.4.3-.9.2-.1 1-.8 1.5-.9 2.6-.4-.4-.6 0-1.1 0-.6 2-1.5 3.7-3.7 4.2-1 1.7-2 3.2-3.3 4.6 0-.1-.2-.2-.2 0-.5 1.1-1.9 3.8-3.2 3.7m-23.6 32c-.2 0-.4 0-.7 0 0 .4 0 .8 0 1.2.6-.1 1-.9.7-1.2m2.4 78c0-.2.3-.2.7-.2-.1-.4.3-1.3-.2-1.4-.1 1-.4-.2-.9 0 .1.7.4 1.3.4 1.6m-115-134c.6-.1.7.5 1.3.4.1-.4-.3-.4-.4-.6.5-.1 0-.8-.4-.6-.2.3-.4.5-.5.8m3.5 1.8c0-.5 0-.9 0-1.4-.4 0-.5-.2-.9-.2-.2 1-.2 1.4.9 1.6m156 1.2c-.2-.7-.5-1.3-.9-1.8-.7.6-.2 1.3.2.6-.1.7.4.8.7 1.2m-160-.6c.5.1.8.4.9.8.6-.1 1.9.4 1.5-.6-1.3 0-1.8.3-1.1-.6-.3.2-1.1.1-1.3.4m148 .8c.3-.3.2-1.2-.4-1.2-.3.2-.1 1.1.4 1.2m-149 .6c.3.3 1.3.2 1.3-.4-.6 0-1.3-.1-1.3.4m-.5 2.2c.2-1 .2-2.5-1.3-2.4 1.4.6.7 1.7 1.3 2.4m-1.5.4c-.1-.6 0-1.4-.7-1.4 0 .7.2 1.2.7 1.4m147-.4c-.1-.3.9-.5.2-.6-.2.5-.8-.3-1.1-.4 0 .1 0 .3 0 .4 0 .1 0 .2.2.2 0-.1 0-.2.2-.2.1.2.3.5.5.6m-152 4.2c-.2.7.9.2 1.1.6 0-.6-.6-1-1.1-.6m168 4c.1-.7.3-1.1-.2-1.6-.5.4-.1 1.3.2 1.6m-16.7 1.2c.5-.1 1-1.2.7-1.4-.4.4-.7.9-.7 1.4m-153 7.7c-.3-.3.1-1.3-.7-1.2-.1.7-.5 1.3.7 1.2m-.9 0c-.7 0-.7-.7-1.3-.8-.2.8 1.1 1.5 1.3.8m174 .6c.1-.7.7.9.9.2-.3-.1-.2-.4 0-.6-.3-.2-1.6-1.3-1.3-.8.8.1.1 1.1.4 1.2m-179 .4c-.1.2-.1.7-.2 1.4.7.1 1.6.8 1.8-.2-.6.1-.9-.9-1.6-1.2m152 1.4c-.6-.2 1.2-.9.2-1.4-.1.3-.3.4-.7.4-.1.5.2 1.6.5 1m27 .2c0-.5 0-1-.4-1-.5.4-.1.8.4 1m.2 1.8c-.7-.1.2-.4 0-.8-1-.2-1.1-1.2-1.8-1.8-.2.8 1.5 2.4 1.8 2.6m-177 1.4c1 0 .6-1.2 1.5-1.2-.1-1.1-.2-1.1.2-1.8-.3-.3-1.3 0-1.8.2 1 .6.6 2.2.1 2.8m-5.2-1.6c.3 0 .2.4.4.4 0-.1 0-.2.2-.2 0 .2 0 .4.2.4-.1-.5 1-1 .2-1.4 0 .5-.9.4-1 .8m182 4.6c.7-.1.8.3.9.8.5-.3.8.5.9 0-1.4-.1-.7-1.7-1.3-2 0 .3-.2.5-.4.6 0-.2 0-.4-.2-.4-.2.5.2.5.1 1m-180 .8c.3-.6.3-1.5-.4-1.6 0 .7.1 1.3.4 1.6m-2-.6c.6 0 1.1-.5.7-.8-.6 0-.6.4-.7.8m149 .8c-.7.1-.5-.8-1.1-.8-.3.8.7 1.3 1.1.8m35 1.6c.3-.6-.1-.7.7-1-.7-.7-1.8.8-.7 1m-39.6.6c.7-.1.4-.1 1.1 0-.4-.5.5-.9-.4-1 .1.7-.6.6-.7 1m0 .8c.3 0 .2.4.4.4-.1-.5.9-.2.7-.8-.5 0-.9.1-1.1.4m-150 .6c.3 0 .6 0 .9 0-.1-.4.2-1-.4-.8.2.7-.7.2-.5.8m189 .4c.8-.2.2 1.1 1.1.8.5-.4-.1-.8-.2-1.2.3 0 .7-.5 0-.4.1.7-.9.4-.9.8m-38 .5c.5.7 1.4-.5.9-.8-.3.6-.8-.1-.9.8m-150 .4c.3.2.6.3 1.1.2.1-.7-1-.9-1.1-.2m149-.2c-.3.1-1.1-.2-1.1.2.8.5.9.4 1.8.8 0-1-.7-.4-.7-1m-150 1.8c0 .7.6.8 1.3.8-.2-.5.5-.4.7-.6 0-.5-.4-.7-.7-1 .3.9-.6.8-1.3.8m145 2c.8.3.9-1.2.4-1.4 0 .5-.4.8-.4 1.4m46.8 1c.4-.4 0-1.5-.4-1.8.1.7-.8.5-.7 1.2.1.3 1 0 1.1.4-.1 0-.3.1 0 .2m-48.8-.2c.8.1 1.3-.1 1.1-.8-.4 0-.7 0-1.1 0 0 .2 0 .5 0 .8m48.8 1.4c0-.2.3-.2.7-.2 0-.8-.9-.8-1.8-.8.1.6 1 .4 1.1 1m1.1 2.6c0-.4.2-.4.2-.8-.3 0-.5-.1-.7-.2-.4.4 0 .8.5 1m-3.7 2.2c0-.2.3-.2.2.2.1 0 .3 0 .4 0 0-.3.3-.3.2-.6-.7.2-.3-.7-.9-.6.2.4-.6.8.1 1m-50-.2c0 .8.5 1.2 1.1 1.6-.3-.8.8-1.2.2-1.6 0 .1-.2.2-.2 0 0-.1 0-.2-.2-.2.2.7-.7.3-.9.2m53 2.4c1.7-.2.5.6 1.5 1.2.1-.8-.5-1.1.2-1.4-.4-.5-1.6-1-1.7.2m-51 .4c0 .5.1 1 .4 1.2 0-.4.5-1.5.2-1.6 0 .3-.2.4-.6.4m-4.4.6c.5 0 1 0 1.5 0 0-.4-.3-.4-.2-.8-.5.6-1.1-.2-1.3.8m-146 .8c.1 0 .3 0 .4 0 0-.3.3-.3.2-.6-.7.2-.5-.3-.9-.4-.1.6.4.5.3 1m150 .4c-1.1-.9-1.5-.3-2.2.6 0-.1-.2-.2-.2 0 .7.8 2.3.4 2.4-.6m50.6.4c.3-.3 0-.8-.4-1-.4.3-.3 1.1.4 1m-56 1.2c.4 0 .2.7.7.6-.1-.3.9-.5.2-.6 0 .6-.6-.8-.9 0m2.2 0c.1.6.8.6 1.3.8 0-.6-.9-1.1-1.3-.8m-1.3 1.2c.6 1 .2 1 0 2.2.5.1.9.2 1.3.4-.1-.3.3-.5 0-.6-.8.5-.1-2.1-1.3-2m-1.1 5.1c-.1-.6.6.5.7-.2-.8-.4.7-.4.4-1-.5-.1-.5.4-1.1.2.3.5-.5.9 0 1m-135 .6c-.2-.4-.4-.7-1.1-.6-.1 1 1 .8.9 1.8 1 0 1.8-1 2.4-.2 0-.8.3.1.7-.4 0-.3 0-.5 0-.8-1.3.7-1.4-.7-2.2-1-.3.3-.2 1-.7 1.2m133-.6c-.4-.2-.3-.8-1.1-.6-.3.7.8 1.1 1.1.6m59 .4c.4 0 .5.2.9.2-.1-.3.3-1-.2-1 0 .2-.1.5-.4.4 0-.2 0-.6-.2-.6-.1.3-.1.6-.1 1m-185 1.4c-.3-.1-.2-.6-.9-.4-.4.6.8.8.9.4m124 2.2c.2 0 .1-1.4-.7-1.2.2.5.1 1.2.7 1.2m-2.4 1.8c.3 0 .6 0 .9 0 .2-.8-1-.8-.9 0m-107 0c-.2.8 1.4.4 1.1-.2-.6-.1-.9 0-1.1.2m-32.8.6c.2.3 1.1 0 .9.6.6.1.7-.3.7-.8-.8.4-1-.6-1.6.2m39.8 2.2c0-.6.1-1.1.9-1.4-.6.1-.4-.4-.9-.4-.6.6 0 1-.7 1.4.1-.5-.4-.4-.2-1-.7-.2-.3.7-.7.8.7 0 1 .4 1.6.6m100-1.6c0 .3.1.4.2.6.1 0 .3 0 .4 0-.2-.4.7-.7 0-.8 0 .2-.3.2-.6.2m-96 3.4c.5-.4 0-.9-.4-1-.1.5-.1 1 .4 1m8.6 2c-.5-.8 1.7-1.3.7-1.8-.3.5-1.5.1-2 .6 1.2.5.5.6 1.3 1.2m80 .4c-.6.4-1.3.9-2 1.2.1.6.8.8 0 1.2.6.2 1.1.5 1.5.8.1-.5.3-.7-.2-1 0 .2 0 .6-.2.6 0-.4-.2-.4-.2-.8.3-.5.7.4.9-.2-.6.1-.7-.3-.7-.8 1.6-.2 2.2 1.1 3.7.8-.2-.6.1-.5-.2-1-1.3.7-1.7-.5-2.6-.8m3.3.8c-.4-.7-.9-1.3-1.1-2.2-.5.7-.6-.6-1.1-.6 0 .2-.2.2-.4.2.5.7 1.1.4.7 1.6.9-.1 1.3 1.5 1.9 1m62 1.4c.4 0 .7 0 .9-.2-.6-.6.1-1.2-.7-1.6.2.8-.2 1.2-.2 1.8m-65 1.6c-.1-.5.9-.2.7-.8 0-.4-.6-.4-1.1-.4 0 .5.1 1 .4 1.2m-3.1.4c0-.3 0-.5 0-.8-.2 0-.4 0-.7 0 0 .6.1.9.7.8m-56 1c.6-.4-.5-1.4-.9-.8.8-.1.4.8.9.8m2.2-.2c.4.4.9-.2 1.3-.4-.4-.3-1.1 0-1.3.4m121 .6c.1-.6-.3-.8-.7-1 0 .6.1 1.1.7 1m-122-.2c-.2.5.7.9.9.4-.4 0-.1-.6-.4-.6-.1.2-.3.3-.5.2m118 3.1c.3-.6.1-.7-.4-1-.4.3-.4 1.1.4 1m-64 .6c.2-.8-.5-.8-.9-1 0 .5.5.7.9 1m-2 1.8c.6-.3 1 .3 1.3-.4-.4.1-1.5-.4-1.3.4m60.7 1c.3-.2 1.5-.5.7-1 0 .4-1.2.7-.7 1m3.1-.4c.2 0 .4 0 .7 0 0-.3.1-.4.2-.6-.3 0-.6 0-.9 0 0 .2 0 .4 0 .6m-188 1.2c-.5-.1-.4-.7-1.1-.6-.2.8 1 1.3 1.1.6m186-.4c-.2.4-.5.6-.7 1 .8-.2.3.8 1.1.6.3-1 .5-.9 1.8-.8 0-.8-1.2-.5-1.5-1-.3.5-.3.7-.7.2m2.2 1.6c.7-.4 1.7-1 .2-1.4.4.6-.2.7-.2 1.4m-82 .2c.2-.1.6-1.4-.2-1.2-.4.3-.1.9.2 1.2m78 1.8c-.4 0-.7.1-.9.4-.3 1.3.3.7.9-.4m-184 2.4c-1 .1.8-1.1-.7-1 .1.5 0 .8-.2 1 .4-.2.7.6.9 0m-5.5.2c.4-.2.7.6.9 0-.8-.2.8-.8 0-1-.2.5-.8.5-.9 1m187 1.4c.9-.5 1-.3 1.8.2 0-.8-.7-.9-1.1-1.4-.1.5-.7.6-.7 1.2m2-.2c.7.1.7.7 1.1 1-.1-1.1-.2-1.3-.9-2-.2.2-.3.5-.2 1m-183 2.6c-.1-.3.3-1-.2-1-.6.2-1 1.1.2 1m-1.8 7.3c.1-.6-.3-.8-.7-1 0 .5 0 1 .7 1m-3.3.2c.1-.4.9-.2.7-.8-.3 0-.5-.1-.7-.2.3.4-.5.9 0 1m182 .6c.5-1.1.3-.1.9 0 .1-.9-.6-1.1-1.3-1.2.2.3 0 1 .4 1.2m-2.9.8c.3-.2.2-.7.2-1.2-.7.2-.5-.3-.9-.4-.5.5.3 1.2.7 1.6m-.4 3.4c.7-.2.5-1.3 1.3-.4-.2-.6.3-.5.2-1-.7.2-.7-.3-1.1-.4.1.8-.6.9-.4 1.8m-9.5 7c0 .4.2.4.2.8.7.1.3-.9 1.3-.6 0-.5-.3-.6-.7-.8.2.5-.2.7-.8.6m0 1.2c-.9-.1-.3 1.2-1.1 1.2 0-.1-.2-.2-.2 0 .8.6 1.5-.3 1.3-1.2m-.2 2.2c.6 0 1-.1 1.3-.4-.2 0-.3-.2-.2-.4-.5.1-1.1.2-1.1.8m-3.1 1.6c.1-.3.3 0 .7 0-.1-.5.4-.4.2-1-.6-.1-1.2.9-.9 1m-.4 1.8c.6 0 .9-.3.9-.8-.3-.2-.6-.3-1.1-.2-.1.5.4.5.2 1m.9 0c0 .3.2.5.4.6 0-.3.6-.1.7-.4-.4-.1-.7-.6-1.1-.2m-1.3 2.1c.9.2.9-1.2 0-1-.1.4-.5.6 0 1m-39.6 1.8c-.1.5.3.7.9.6.1-.7-.6-.9-.9-.6m38 .6c.5.1.8 0 .9-.4-.3-.1-.4-.3-.9-.2 0 .2 0 .4 0 .6m-2.6 3.6c.4 0 .5.2.9.2.3-.8-.5-.8-.4-1.4.3 0 .8.1.9-.2-.4-.4-.6-1-1.1-1.2-.9.8.6 2.3-.3 2.6m-3.1-.6c.3-.5.6.5.9.6.5-.4.7-1.1 1.3-.4 0-.3.1-.4.2-.6-.7-.8-1.7.3-2.4-.2.1.3-.3.5 0 .6m1.1 2.2c.5-.1 1-.3 1.1-.8-.7-.1-1.2 0-1.1.8m-32 2c-.2-.5.4-.4.4-.8-1 .1-1.2-.5-1.8-.8.3.9-.1 1.7 1.4 1.6m4.2.2c.2-.5.2-1.4-.7-1.4-.3.6-.2 1.3.7 1.4m-106 1.2c0-.5.4-1.2-.2-1.6-.1.7-.3 1.1.2 1.6m-2.8-.6c0 .6 1 .3 1.3.6 0-.3 0-.7 0-1-.6-.2-1.3-.3-1.3.4m130 1.2c.1.5.2.9.7 1 .1-.8.6-1.2.9-1.8 0-.2-.2-.3-.4-.4 0 .9-.9.8-1.2 1.2m-117 .2c-.2.7.7.3 1.1.4.1-.8-.5-.5-1.1-.4m117 2.6c.8.2 1.6-.6.9-1-.3 1-.6.3-.9-.2-.5.4.1.6 0 1.2m-99 1.2c.2.4-.7.7 0 .8.2-.6.3-.2.9-.2-.4-.4-.6-1.1-1.3-1.2-.1.4.3.4.4.6m97 .6c.4-.3.6-.9-.2-1 .1.3-.3 1.1.2 1m-99-.2c.4 0 1.3.5 1.5 0-.7 0-.5-.7-1.3-.6 0 .3-.1.5-.2.6m6.3 1.4c.3-1.1-1.1-.7-1.1-1.6-.5 0-1.1 0-1.1.4.4.4.4-.1.9-.2.6.3.2 1.6 1.3 1.4m90 0c.7-.6.8.3 2.2 0-.2-1.2-2.1-.5-2.4-.4.1.1.2.2.2.4m-20.3 1.8c.1-.4.4-.5.7-.8-.7.2-.7-.3-1.1-.4-.3.7 0 .8.4 1.2m.9.6c.6-.1.9-1.1.7-1.4-.2 0-.4 0-.7 0-.3.7 0 .7 0 1.4m-59 .4c.3 0 .5.1.7.2-.3-.6.6-1 0-1.2 0 .2-.2.1-.4 0-.3.3-.4.6-.3 1m62 .8c0-.7-.5-.9-.9-1.2-.2.9.5.9.9 1.2m-55.9 1.3c0-.6.1-1.3-.7-1.2 0 .3-.1.4-.2.6.8-.4 1.1 1.3.9.6m5.8.8c0-.3 0-.5 0-.8-.3 0-.8-.1-.9.2.3.2.4.5.9.6m-1.8 2.6c.9-.6.7-.2 1.3-1.4-.9.1-.9.1-1.8 0 0 .6.8.5.5 1.4m48 1c.7-.1 1.4 0 1.5.4 0-.3 0-.7 0-1-1.2.4-.8-.8-1.5-.8 0 .4 0 .9 0 1.4m-29 1.2c.3-.3.4-1.2-.2-1.2-.2.4-.6 1.1.2 1.2m5.2 1.8c0 .2.1.5.2.2.7-.8 1 .1 1.8.2-.2-.4.7-.7 0-.8-.3.6-.7-.6-.2-.8-.5 0-1.1 0-1.3-.2 0 .1 0 .3 0 .4-.1 0-.3 0-.2.2.3 0 .5-.1.7-.2 0 .3 0 .5 0 .8-.5 0-.8 0-1 .2m29-.4c-.7.1-.1-1-.9-.8.1.3-.3 1 .2 1 0-.7.7.4.7-.2m-33.5.6c.4.2.3.9 1.1.8.2-.2.1-.7.7-.6-.3-.5-.4-1.1-.9-1.4-.2.6.1 1-.9 1.2m8.2-.2c0-.3 0-.5 0-.8-.9-.2-.9.9 0 .8m1.3 1.8c.2-.7-.3-.7-.9-.6 0 .5.5.5.9.6m15.2 1.6c.6 0 1-.1 1.3-.4-.9 0-2-.9-2.6-.4.5.2 1.2.2 1.3.8m-3.1 1.4c.6 0 1.1 0 1.1-.6-.6 0-1.2 0-1.1.6m3.1 1.2c.5-.2 1.3 0 1.5-.8-.6-.6-2.5 0-1.5.8m4.8.8c0-.3 0-.5 0-.8-.2 0-.4 0-.7 0 0 .5.1.9.7.8m-55-109c.2-.2.2-.4.3-.7 0 .2.1.4.1.6-.5-6-7.7-12.6-11-16.6.7-.7 1.4-1.2 2.1-1.5-.1-.2 0-.5.3-.6.1.1.2.2.3.4 5.3-1.9 9.2 7.1 12.4 7.5 2.1-8.4-10.2-13.3-16.3-8.8.2.2.5.4.7.6-.7.6-.3 1.9-.8 2.3-.3-.4-1.4-.3-2-.6-.6 1-1 2.3-1.2 3.7 2.1 2.9 5.8 4.9 8.4 7.5 0-.2.1-.4.4-.6.1.2.2.7 0 1 1.8 1.9 2.9 4.1 2.3 7.2-1.5-.4-1.4 2.5-3.2 1.6-4.3-.7-4.7-3.4-8.3-4.5.1 0 .2.1.3.1s-.3 0-.4 0c-2.2 5.4 4.5 8.2 9.5 8.2-.1-.1-.2-.3-.1-.5.1-.4.3-.8.8-.5-.1.3-.3.3-.4.7.5.4.3-.5.8-.1.1.2.1.4 0 .5 1.4-.1 2.5-.5 3.2-1.2 1.7-1.8 2.3-3.7 2.2-5.7-.1 0-.2 0-.4 0m.9-15.3c.3.1.7.1.7.4 0 .7-1.3.2-.7-.4m.9-3.3c-.2.1-.3.5-.7.4 0-.3 0-.7 0-1 .3.2.5.4.7.6m-1.3 2.2c-.2.2-.2-.1-.4-.1.2-.2.5-.1.4.1m-2-4.2c.1 0 .2.1.3.1 0 .1 0 .2-.1.3-.1-.1-.1-.2-.3-.3m-.3 2.1c-.2.4-.6.3-.8 0 .2-.4.7-.3.8 0m-1.9-1.6c.2.1.4.1.5.2-.1.2-.1.4-.2.5-.2-.1-.4-.1-.5-.2.1-.1.2-.3.2-.5m-1.2-1c.5-.6.8.5.2.5-.1 0-.3-.4-.2-.5m-2.9-.4c0 .1 0 .3-.1.4-.2-.1-.5-.2-.8-.2.3-.1.6-.1.9-.2m-6.6 8.4c.1 0 .2-.1.2-.2.4.1.4.4.3.8-.2-.2-.4-.4-.5-.6m1.2-1.7c.2.2.3.4.2.7-.6 0-.5-.5-.2-.7m2.7-5.8c0 .1 0 .1-.1.2-.1 0-.1 0-.2-.1.2-.1.3-.1.3-.1m-.2 1.9c-1-.4.2-.8.2-1.3.2.1.4.1.5.2.1.5-.9.2-.7 1.1m2.9 7.2c-.3-.3-.2-.9 0-1.4.2.1.4.1.5.2-.1.5-.2 1-.5 1.2m-6.3 13.4c0-.4.4-.3.7-.2-.2.2-.4.3-.7.2m8.7 3.2c-.1 0-.2-.1-.4-.1 0-.3.3-.3.4-.5.1 0 .2.1.4.1 0 .3-.3.3-.4.5m1.2.8c-.4.2-1.1-.1-.8-.7.4-.2 1.1.1.8.7m2.5-6.4c-.3-.1-.3-.4-.1-.8.4.1.3.6.1.8m5.1 7.7c.1.1.1.3.2.4 0-.1-.1-.2-.2-.4m-.3-.8c0-.1-.1-.3-.1-.4 0 .1.1.2.1.4m-26.5-22.8c0 .1 0 .1 0 0-.1.3-.7.1-.9-.2-1.7-.4-3.2-.7-5.2-1.2-.1.2-.1.4-.1.4s-.4-.1-.7-.2c0 0 .2-.2.3-.4-.2.1-.3.1-.5 0 .1.4-.4.9-.8.6.1-.4.4-.5.5-.7-.3-.1-.6-.1-.8-.2.9-3.8 2.7-6.1 4.5-8.3.8.6 1.5.9 2.3 1.3 0 0-.2-.1-.2-.1 0-.1.2-.5.2-.5s0 0 .7.2l-.2.7c-.7-.2-.2-.1-.3-.1 1.6.5 3.1 1 4.9 1.6s0 0 .2-.7c0 0 .3.1.5.2-.2.7-.2.4-.3.5 1.3.4 2.6.9 4.2 1.6-.1-4.7-7.9-5.4-12.7-7.6-6 6.3-10.4 16.5-11.2 26.6 3.7 2.1 10.2 2.8 14.9 2.2 0-.3.1-.6.4-1.2.2.1.5.2.7.2-.2.7-.2.6-.3.8.5-.1 1-.1 1.4-.2.1-.9-.1-1.6-.5-2.2-.3.3-.8.1-1.3 0-.1-.2-.1-.5 0-.8-.2 0-.4.1-.6 0-.1.3.2 1.3-.5 1-.3-.2.3-.9-.1-1 0-.4.5-.1.7-.2.1-.1.2 0 .2-.2-1.7-.8-4.1-.8-6.2-.9-.1-.1-.6.3-.6 1.1-.2-.1-.3-.1-.4 0-.4-.4-.5-.6-.1-1.1 0-.2 0-.3-.1-.5 0 0 .1 0 .1 0-2.3-.3-4.1-.7-4.3-2.4.4-1.3.9-2.7 1.3-4 5.2-.5 11.8 1.9 16.4.1-.1 0-.6 0-.6 0 0-.1.1-.2.1-.3.7.1.5.1.5.2.4-.2.8-.3 1.2-.6-1.6-1.6-3.4-2.5-6.7-3.5m5.9-9.1c0 .1-.1.2-.1.3-.3-.1-.4-.4-.4-.6.2.1.3.2.5.3m-1.2.6c.3 0 .3.3.5.4-.1.5-.4.5-.9.3 0-.4.3-.5.4-.7m-3.9-2.7c.5.2.8.2 1.1.4 0 .1 0 .1-.1.2-.5.2-.5-.4-1-.6m-5.3-1c.5.1.5.4.3.9-.5-.2-.5-.5-.3-.9m-10.3 20.3c0 0 0 0 0 0m-.3 1.6c0-.1.1-.3.1-.4 0 .1 0 .3-.1.4m2.4-8.3c-.2-.3 0-.7.3-.9.6.2.5 1.3-.3.9m9.6 14.6c0-.1.1-.2.2-.2.1.1.2.1.2.2-.1 0-.3 0-.4 0m.7-1.1c-.1 0-.3-.4-.2-.5.4-.5.7.5.2.5m-5.5-2.3c-.2.5-.5.6-1 .5.4-.2.5-.8 1-.5m-1.4.1c-.1.2-.2 0-.2-.1.1-.2.2 0 .2.1m.9-15.9c-1 0-.4-.8-1.1-1 .1-.3.4-.6.4-.6.2.1.4.1.5.2.1 0 .6.7.2 1.4m6.1 3.4c.4.3.9 1.1.3 1.5-.9-.1-.5-.8-.3-1.5m.4 1.9c.7-.2-.6.5 0 0m-.3 2.3c-.1 0-.2-.1-.4-.1 0-.1.1-.2.1-.4.1 0 .2.1.4.1-.1.2-.1.3-.1.4m7.8-1.8c0 .2.5.2.4.5-.1.7-.9 0-1.4 0 .2-.4.2-.7.2-1 .3.1.5.3.8.5m-2.8 1.8c-1.7-.9 1.3-1.3 0 0m-1.4-1.2c.1 0 .3.2.4.1.1-.1-.3-.6.2-.7.4 0 .4.3.7.4-.1.4-.3.5-.7.4-.1.5-.3.9-.5 1-.8-.3-.3-.6-.1-.8-.1-.1-.1-.4 0-.4m-.1-1c-.8.5-.9.8-1.3 2.2-.3.2-.8-.1-1.3-.2.4-.8 1.1-1 1.5-1.7.1-.5-.2-.9-.1-1.4.2-.4.4-.6.6-.7.3.1.5.2.8.2-.1.3-.3.5-.6.5.1.3.2.7.4 1.1m16 21c.4 0 .7 0 1.1-.1-.3.1-.7.1-1.1.1m-17.4-11c-.2-.1-.3-.2-.5-.3.1.1.3.2.5.3m-.8-12.4c.3.1.6.2.9.2-.3 0-.6-.1-.9-.2m44 25.6c-.1.1-.2.2-.3.2.1 0 .2-.1.3-.2m-43-12.7c-.2-.1-.5-.3-.6-.5.4.3.8.6 1.1 1-.2-.2-.3-.3-.5-.5m9.3-14.4c.3-.4.5-.7.8-1 .1.2.2.4.1.5.1.2.8.3.5.8-.5-.1-.4-.4-.7-.6-.2.2-.4.3-.7.3m27.9 27c0 0-.2.5-.2.5-.6-.2-1.3-.1-2.1-.3-12.7-2.5-5.1-20.9 6.2-19.4 2.9 1.4 2.4 4.5 5.2 6-1.5-15.4-13-9.4-18.2-.5.1-.2.2-.1.4-.8.1 0 .1 0 .2.1 0 0 0 .4 0 .4 0 .1-.1.2-.1.4 0 0-.1-.1-.3.5-.1 0-.2-.1-.4-.1-1.9 3-3 7-2.2 10.2.2.1.3.2.5.3 0 .1-.1.1-.3.1 0 .1.1.2.1.3.4 0 .9.2 1.1.4-.1.4-.4.5-.7.5.4.8.8 1.5 1.5 2.1-.1 0-.3-.2-.3-.2l.6.1c0 0-.1.3-.1.4 1.7 1.3 3.4 2 6.3 2.4 2 .3 3.3-.3 5.3-1.3 0-.7 0-.6.2-1.1.6.6.9.2.9-.5.4 0 .6.4.7.7-.2.2-.4.4-.7.6.6-.5 1.2-1 1.8-1.6-.2-.1-.2-.3-.5-.4.1-.4.6-.2.8.1 1-1.2 2-2.6 3.1-4.2-4.5.3-5.1 3.9-8.8 4.3m4-20.7c.1 0 .2.1.4.1 0 .1-.1.2-.1.4-.1 0-.2-.1-.4-.1 0-.1.1-.3.1-.4m-11.6 22.4c-.1-.1.2-.2.2-.1.1.1-.2.2-.2.1m0-.6c0-.4.3-.4.4-.7.3 0 .3.3.5.4-.1.5-.4.5-.9.3m1.3.8c-.1 0-.2-.1-.4-.1 0-.1.1-.2.1-.4.1 0 .2.1.4.1 0 .2 0 .3-.1.4m1.3-.2c-.4-.5.3-.5.4-.7.2-.3 0-.8.4-1.3.9 0-.3.9.3 1.1-.4.3-.5 1.2-1.1.9m1.1 1c-.2-.1-.5-.2-.7-.2.1-.6.4-.8 1-.5-.2.2-.2.4-.3.7m6.7-2.8c-.2-.1-.4-.1-.5-.2.1-.2.1-.4.2-.5.2.1.4.1.5.2-.1.1-.2.3-.2.5m1.4-1.2c-.1-.1.2-.2.2-.1.1.1-.2.2-.2.1m.9-1.7c0 0-.1 0-.1 0m-.3 3.7c-.2-.1-.4-.1-.5-.2.1-.2.2-.5.2-.7.5.1.5.4.3.9m1.1-1.7c-.1-.2-.7-.3-.4-.7.2-.1.5-.1.8.1 0 .4-.2.4-.4.6m.4-2.4c.2.1.2.4.4.5-.2.4-.6.2-1 .1.1-.5.5-.3.6-.6m10.2 9.4c-2.7-.6-3.6-2.2-3-4.5 2.8.5 4.5 1.7 3 4.5m-12.7-4.2c-.2.2-.5.3-.7.5.3-.1.5-.3.7-.5"/></svg>
