<?xml version="1.0" encoding="utf-8"?>
<!-- Generator: Adobe Illustrator 16.0.0, SVG Export Plug-In . SVG Version: 6.00 Build 0)  -->
<!DOCTYPE svg PUBLIC "-//W3C//DTD SVG 1.1//EN" "http://www.w3.org/Graphics/SVG/1.1/DTD/svg11.dtd">
<svg version="1.1" id="Layer_1" xmlns="http://www.w3.org/2000/svg" xmlns:xlink="http://www.w3.org/1999/xlink" x="0px" y="0px"
	 width="212.9px" height="201.9px" viewBox="0 0 212.9 201.9" enable-background="new 0 0 212.9 201.9" xml:space="preserve">
<path fill-rule="evenodd" clip-rule="evenodd" fill="#4D4B47" d="M52.6,23.5c0.6,0-0.3,0.3,0,0.8c0.4-0.8,0.9-1.4,1.8-1.8
	c-0.1-0.4-0.5-0.6-0.4-1.2c0.8-0.2,1.5-0.7,1.3-1.8c1-0.7,2-1.3,2.2-2.6c1.3-0.9,2.3-2,2.4-4c1-0.1,1.1-1.1,1.8-1.6
	c0.6,0,0.3,0.8,0.9,0.8c0.5-0.1,0.1-1-0.4-0.8c0.9-3.1,3.4-4.8,4.8-7.4c0.5,0.1,0.8,0,1.1-0.2C69,2.5,69.3,0.7,70.8,0
	c4.4,0.2,6.4,2.5,10.6,2.8c0,0.2,0,0.4,0,0.6c2.3,0.5,4.9,0.2,6.4,1.4c0.2-0.2,1.6-0.4,1.8,0c0.2,0.9-0.6-0.3-0.7,0.4
	c0.1,0.4,1.3,0.3,0.9-0.4c2.4,0.4,4.6,1.1,7,1.6c0.2,0.6-0.3,0.5-0.2,1c0.4,0.4,0.7-0.2,1.5,0c0.1-0.7-1.3,0-1.1-0.8
	c0.4,0,1.1-0.2,0.9,0.4c0.2,0,0.1-0.4,0.4-0.4c1.7,0.7,4.7,0.7,7,1c0.7,0.1,2.2,0.2,2,1c0.2-1.1,2.3-0.1,3.7-0.4
	c0.4,0.4-0.1,0.4,0,1c0.4,0,0.3-0.5,0.9-0.4c0-0.2-0.3-0.2-0.4-0.2c0.8-0.3,2.3,0.1,2.6,0.2c3.4,0.7,8,0.4,10.8,2.4
	c0.3-0.3,0.6-0.6,0.9-0.8c0.6,1.2,3.2,0.4,3.5,1.4c0.2-0.1,0.4-0.2,0.7-0.2c0-0.4-0.1-0.7-0.4-0.8c0.4-0.6,0.8,0.5,1.1,0.6
	c3.8-1,8.8,2.7,13.4,2.2c0.5,0,0.1,0.7,0,0.8c0.4,0,0.5-0.3,0.4-0.8c0.7,0.1,1.4,0.2,1.8,0.6c0.3,0,0.2-0.4,0-0.4
	c2.3-0.2,3.9,0.7,5.7,1.6c1.3-0.1,3.8,0.2,4.4,1.4c1.1-0.6,4.2-0.1,4.8,1c0.3,0,0.2-0.4,0.2-0.6c0.3,0.3,1,0.2,1.5,0.2
	c0.1,0.3-0.2,0.3-0.2,0.6c3.5-0.5,7,1.5,10.3,1.8c0.4,0.1-0.9,1.3-0.9,0.4c-0.5,0.1,0.3,0.6,0.4,0.8c0.6-0.6,0.5,0,0.7-0.8
	c3.7,0.9,5.9,2.3,9,3.2c0,0.4-0.3,0.4-0.2,0.8c1.4-0.9,4.1,0.8,5.5,1c0.1,0.4,0,0.6-0.4,0.6c0.1,0.2,0.2,0.4,0.4,0.4
	c0.2-0.2,0.1-0.4,0.2-1c0.6,0,1.4,0.2,0.9,0.6c0.4-0.2,0.8-0.3,1.3-0.4c0.1,0.4,0.9,0.2,0.7,0.8c0.3-0.7,3,0.8,4.8,1.2
	c1.3,0.3,2.9,0,3.1,1.6c0.3,0,0.1-0.6,0.4-0.6c0.6,0.1,0,1.5,1.5,1.2c0.5,3.1,2,7.2,1.1,9.8c1.7,3.7,2.4,8.9,3.1,13.5
	c0.4,2.7,1,5.3,0.4,7.4c0.5,0.1,0.4-0.3,0.4-0.6c1.9,5.4,1.1,11.7,2.9,16.3c1.3,3.6,1.8,7.5,2.6,11.7c0,0.2,0.3,0.2,0.4,0.2
	c0.1,4.4,0.5,7.9,1.3,11.9c-0.4,0.3-0.7,0.7-1.3,0.8c0.1,0.3,0.3-0.1,0.7,0c-0.7,0.8-1.6,1.3-1.8,2.6c-0.5,0.1-0.6-0.1-0.9-0.2
	c0,2.8-1.7,5.7-3.3,7.6c-0.1-0.6,0.5-0.6,0.4-1.2c0-0.4-0.9,0.4-0.7-0.6c-0.2,0.1-0.3,0.4-0.4,0.6c1.1,1,0.4,2.3,0,3.8
	c-0.9,0.2-0.8,0.4-1.8,0.2c-0.1,0.5,0.9,0.2,0.7,0.8c-0.8,0.8-0.9,3.1-2,3c0,1-1.2,4.2-2.4,3.4c0.6-0.1,0.5-0.7,1.1-0.8
	c0.2-0.6-0.2-0.7-0.2-1.2c-0.4,0-0.5,0.2-0.9,0.2c-0.2-1.1,1-0.8,1.3-0.4c0-0.5-0.3-0.6-0.4-1c-0.8,0.3-1,1.1-1.8,1.4
	c0.4,1.1-0.4,2.2,0.9,2.6c-2,3.7-5.3,6.1-6.8,10.2c-0.3,0.2-0.3,0.1-0.7,0c-0.1,0.9-0.3,1.6-1.1,1.8c0.4-0.4,0.1-1-0.7-0.8
	c0.2,0.2,0.9,0.6,0,0.6c0.5,0.2,0.5,0.7,0.4,1.4c-0.7,0.2-0.3-0.7-0.7-0.8c-0.7,0-0.3,0.9-0.7,1.2c0.1,0.7,0.6-0.7,0.7,0
	c-1.3,1.9-2.9,3.7-4,5.8c-0.8-1.3,1.1-1.8,0.9-3.2c0.7,1.1,0.6-0.7,1.3-0.8c0-0.4-1.1,0.4-1.1-0.4c-0.7,0.2-0.4,1.3-0.9,1.6
	c-0.4-1-1.2,0.6-1.5-0.4c-0.7,0.1-0.3,1.2-0.7,1.6c0.9,0.3,0.5-0.5,0.9-0.6c2.1,1.1-1,5.7-1.3,5.2c-0.6,1.7-2.4,2.4-2.9,4.2
	c-0.4-0.4-0.4-0.9-0.2-1.4c-0.2-0.2-0.4-0.3-0.7-0.4c-0.1,0.5-0.3,0.2-0.9,0.4c0.3,0.4,0.2,1.3,0.4,1.8c0.5-0.1,0.4-0.5,0.7-0.8
	c-1.6,3.8-4.7,7.9-7.9,10.8c-0.2-0.7-1.1,0-1.5-0.8c-0.5,0-0.1,0.7-0.2,1c0.6,0,0.9,0.5,1.5,0c-0.3,1-0.8,1.8-2,2c0,0.3,0,0.5,0,0.8
	c-0.4,0.1-0.4-0.2-0.7-0.2c-0.2,1-1,2.4-1.8,2.2c-0.3,1.2-1,2.9-2.2,2.6c-0.5,2.6-3.8,4.3-5.3,6.6c-0.3-0.1-0.3-0.4-0.7-0.4
	c0.1,1.3-1,2.7-2.4,3.2c0-0.3,0-0.5,0-0.8c1.2,0.7,0.6-1.3,1.8-1.2c-0.2-0.4-1.3,0-1.3-0.6c-0.8,0.3,0.6,0.3,0.2,1
	c-0.7,0.1-1.2,0.3-1.5,0.8c0,0.8,0.8,0.7,0.9,1.4c-1.5,0.9-2,2.6-3.3,3.6c-0.2-0.6,0.6-0.4,0.4-1c-1.1,1-0.7,2.4-1.8,4
	c-1.1,0-0.5-1.4-1.3-1.6c-0.5,0-0.5,0.5-0.4,1c0,0.6,1,0.3,1.3,0.6c0.2,1-0.6,0.8-1.1,1.2c-2.7,2.4-4.2,5.7-6.6,8.4
	c-0.2-0.1-0.4-0.2-0.7-0.2c-1.2,3.1-4,4.6-5.7,7.2c-0.2-0.6,0.6-0.4,0.4-1c-1.1,0.6-0.5,1-0.7,1.8c-0.4,0-0.7-0.1-0.9-0.4
	c-0.3,1-1.9,0.8-2.2,1.8c-1.3,0-2-0.7-3.5-0.6c0.1-0.4,0.9-0.2,0.7-0.8c-1.1,1.3-2.2-0.5-4.2-0.2c0.6-0.5,0.3-0.8-0.2-1.2
	c-0.9,0.3,0.1,0.4,0,1c-2.1,0.1-2.5-1.3-4.8-1c0.4-0.8,1.3-1,1.8-0.2c-0.2-0.6-0.2-1.5-0.9-1.6c-0.8-0.2-0.4,0.7-0.9,0.8
	c-0.8-0.3-0.5-0.5-1.1-1c-0.5,0.1-0.2,0.7-0.7,0.8c0.2,0.6,0.6,0.3,1.1,0.2c0.2,0.7-0.4,0.7-0.9,0.8c0-0.2,0-0.4,0-0.6
	c-0.5,0.2-1,0.5-1.8,0.4c0.1-0.4-0.3-0.4-0.7-0.4c-0.1-0.3,0.2-0.3,0.2-0.6c-0.6-0.1-0.9-0.3-0.9,0.4c-0.5-0.1-0.2-0.7-0.7-0.8
	c-0.6-0.1-0.8,0.1-0.7,0.6c-0.3-0.9-1.7-1.3-2.6-0.6c-1.6-0.7-2.3-2.2-5.1-1.8c0.2-0.7,0.4-0.6,0.9-0.2c0.2-0.8-0.8-0.5-0.9-1
	c-0.9,0.2,0.1,0.8-0.4,1.2c-0.6-0.4-1.3-0.7-2.4-0.6c0-0.3,0-0.5,0-0.8c-0.5-0.1,0.1,0.9-0.7,0.6c0-0.7-0.6,0-0.7-0.8
	c-0.4,0.8-1.4,0.2-1.5-0.4c-0.5,0.4-1.5,0.5-2.4,0.6c-0.5-1.2-3.3-0.5-4-1.8c-0.5,0.9-1.4,0.1-1.5-0.6c-0.3,0-0.2,0.4-0.2,0.6
	c-0.3,0-0.4-0.8-0.4,0c-1.5-1-3.7-1.2-5.5-1.4c-0.1-0.4-0.6-0.6-0.2-1c-1.6,0.8-2.6-0.6-4.4-0.4c-0.2-0.5-0.5-0.9-0.4-1.6
	c-0.6,0-0.4,0.3-0.9,0c0.1,0.3,1.1,1,0.2,0.6c0.1,0.7,0.6,0,0.7,0.4c-1.4,0.1-4.8-1.2-6.8-1.2c-0.1-0.3-0.3-0.5-0.7-0.6
	c-0.4,0.1-1.3-0.2-1.3,0.2c-0.4,0-0.5-0.3-0.4-0.8c-0.7,0.6-2.3-0.2-2.9-1c-1.7,0.4-2.2-0.7-4-0.6c0.2-0.6,0.3-0.7-0.2-1
	c-1.5,1.5-2.9-1-5.3-0.4c-0.1-0.4,0.2-0.5,0.2-0.8c-0.5-0.1-0.4,0.3-0.4,0.6c-5.3-0.7-8.7-2.9-14.5-3.4c-0.2-0.9,0.1-1.2-0.2-1.8
	c-0.4,0.4-0.4,0.9-0.2,1.4c-1.9,0.1-2.1-0.3-3.7-0.4c0-0.3,0-0.5,0-0.8c-2.6,0.9-5.1-1.2-7.9-1.2c0.1-0.8-0.4-1.1-0.2-2
	c-0.8,0.1-0.3,1-0.2,1.4c-2.3-1.2-4.5-0.6-5.9-1.8c-5.6-0.5-11.2-3.7-17.6-5.4c0.1-0.4-0.1-0.5-0.2-0.8c-3.5,0-5.6-2.9-9-3.6
	c-0.1-0.7,0.6-0.7,0.9-1c-0.1-0.4-0.6,0.3-0.9-0.2c0.1-2.9-0.2-5.1,0.2-7c-0.7-2.4-0.8-5.5-1.3-8.6c-0.2-1.3-0.4-2.9-0.2-4
	c-0.1,0.7,1.1-0.4,0.2-0.6c-0.4,0-0.1,0.7-0.4,0.8c0-1.4,0.8-2.2,0-4c0.3,0,0.6,0,0.7-0.2c0-0.4-0.7-0.1-0.9-0.4
	c0.3-3.4-0.1-6.8,0.4-9.2c0.2-0.6-0.6-0.4-0.7-0.8c0.9-1.7,0.8-5.2,0.4-6.4c0.6-2,1.3-4.5,0.9-7c0.2,0,0.4,0,0.7,0
	c0.4-1.7-1.7-2.4-0.2-3.4c-1.2-1.1-0.2-4.6-1.3-5.4c1.9-2-0.9-4-0.2-7.2C1,99.3,0.6,99.2,0,99.5c0.3-0.9-0.2-2.2,0.4-3.2
	c1.7,0,3.4-0.4,4.8-0.2c0.7,0.1,0.7,0.2,0.7,0.2c0.3-0.1,2.8-0.8,2.6-0.2c2-1.1,4.3,0.6,6.6,1c0.1,0.4-0.2,0.5-0.2,0.8
	c0.3,0,0.6,0,0.7,0.2c0.7-0.2-0.5-0.3-0.2-0.8c2.3,1.4,6.4,1.2,8.4,3.4c0.7,0.1-0.6-0.6,0.2-0.6c0.6-0.1,0.8,0.1,0.7,0.6
	c1.2-0.9,2.4,0.6,4.2,0.4c0,0.3,0,0.5,0,0.8c0.9,0-0.1-0.3,0.4-0.6c0.7,0.7,2.7,0.2,2.9,1.4c0.5,0.1,0.4-0.3,0.4-0.6
	c1.9,0.5,3.4,1.3,5.7,1.4c0.2,0.5-0.4,0.4-0.4,0.8c0.7,0.2,0.3-0.7,0.9-0.6c2.3,1,9.8,2.2,10.1,3.4c2.6-0.7,5.6,1.2,8.1,1.2
	c0.6,0,0.7,0.5,1.1,0.6c1.7,0.3,4.6,0.1,5.7,1.6c2.3-0.6,5,1.4,7.3,1.4c-0.2,0.2-0.2,0.5-0.2,0.8c-0.1-0.9,2.1-0.6,1.5,0
	c0.9-0.1,3.2,0,3.1,1c1.1-0.5,0.9,0,2.6-0.2c0,0.5,0,1,0.2,1.2c0.6,0.1,0.4-0.4,0.7-0.6c1.5,0.2,2.8,1,3.7,1.4c1.1,0.5,3.7,0,4,1.6
	c0.9-0.4,4.3,0.3,4.6,1.8c-0.8,0.1-1.4,0-2-0.2c0.3,1.1,2.5,0.4,3.1,0.8c0.1-0.8-0.9-0.6-0.9-1.4c2.2,0.7,4.4,1,7.5,1.4
	c0.3,0.2,0.2,0.7,0.2,1.2c0.3-0.1,0.2-0.5,0.2-0.8c1.7-0.1,3.1,1,5.3,1c0,0.2,0,0.4,0,0.6c1.4-0.7,4.4,0.5,5.9,1.4
	c1.5-0.1,4,0.6,4.8,1.8c1.7-0.5,4.7,1,5.9,1.2c1-1,2.4-4,4.4-4c0.3-0.7-0.7-0.2-0.4-0.8c0.9,0.1,0.5-1.1,0.9-1.4
	c1.4,1,3.7-2.2,5.3-2.2c0,0.4-0.7,0.1-0.9,0.4c0.1,0.3,0.3,0.5,0.7,0.6c0.4-0.3,0.4-1,0.9-1.2c0-0.7-0.6-0.8-1.1-1
	c0.5-0.2,0.8-0.5,0.9-1c1.5,0.3,1.7-1.3,2-2c0.8-1.7,4-3,4.2-4.8c0.5,0,0.1,0.9,0.2,1.2c0.7,0.2,0.4-0.4,0.4-0.8
	c0.3,0.2,0.4,0.5,0.9,0.6c0.4-0.3,0.7-0.7,0.7-1.4c-0.2-0.8-0.8,0-1.5-0.2c0.2-0.6,0.8-0.9,1.1-1.4c0.6,1,1.6,1.6,2.2,2.6
	c-0.9-0.4-1.6,0.3-2.4,0.6c0.1,0.6,1.1,0.4,1.5,0.6c0.6-0.2-0.3-0.5,0.2-0.8c0.4-0.4,0.4,0.1,0.9,0.2c0.6-0.3,0.2-0.5,0.4-1.4
	c-1.4,0.3,0.6-0.4-0.9-0.4c0-0.3,0-0.7,0-1c0.4,0,1.1,0.2,0.9-0.4c-0.4-0.8-1,1-0.9-0.4c-0.8-0.2-0.3,0.8-1.1,0.6
	c0.1-0.4-0.2-0.4-0.2-0.2c-0.7-0.8,0.7-1.5,0.9-2.2c0.3,0.2,0.5,0.7,1.1,0.6c-0.7-1-0.2-2.1,0.9-2.4c0.5,0.4,0.5,0.8,0,1.2
	c0.6,0,1.3-0.1,1.3,0.4c0.4,0,0.5-0.3,0.4-0.8c-0.5-0.2-0.8-0.3-1.5-0.6c0.3,0,0.3-1.2,0-0.6c0.9-3.6,5.2-6.9,6.8-9.8
	c0.4,0,0.5,0.2,0.9,0.2c0.1-0.3-0.2-0.4-0.4-0.4c2.5-3.6,4.4-7.6,6.8-11.3c0.3,0.1,0.3,0.4,0.7,0.4c0-2.3,2.8-3.8,4-5.8
	c0.4-0.1,0.4,0.2,0.7,0.2c0-1,0.8-2.3,1.5-3.2c0.6-0.1,0.4,0.4,0.9,0.4c-1.2-2.1,0.9-5,2.9-4.8c-0.6-1.8,1.4-1.1,1.5-2.6
	c0.4-0.1,0.4,0.2,0.4,0.4c3.7-4.8,5.7-11.3,10.1-15.5c0.5,0.2,0.9,0.6,1.3,0.8c0.1-0.7-0.5-0.8-1.1-0.8c0.9-1,2-3.8,3.3-5.6
	c0.2,0.4,0.8,0.5,1.5,0.4c-0.3-0.2-0.5-0.6-1.1-0.6c1.8-3.8,6.2-6.1,5.7-11.3c3.3-0.6,2.7-5.1-1.3-3.8c-1.5-1.6-5.6-0.6-5.9-2.4
	c-0.5-0.1-0.4,0.3-0.4,0.6c-0.5-0.1-0.5-0.6-0.9-0.8c-0.1,0.6-1.7,0.4-2.6,0c-0.2-0.6,0.2-0.8,0.4-1c-0.4-0.6-0.5,0.7-0.9-0.2
	c-0.8,0.1,0.8,0.5,0,0.6c-0.7,0.2-0.7-0.3-0.7-0.8c-0.2,0.7-0.5,0.2-0.7,0.8c-4.4-1.8-9.9-3.2-15.4-4.8c-0.4-0.6,1.2,0.6,1.5,0
	c-0.8-1-2,0-2.6-0.8c0,0.3,0.4,0.5,0,0.6c-2.6-0.3-5.6-0.4-8.4-1c-0.1-0.4,0.1-0.5,0.2-0.8c-0.5,0.4-0.2,0-0.7-0.2
	c-0.8,0.4,0.4,0.6,0.2,1c-2.5-0.6-5-0.8-7.5-0.6c-0.1-0.6,0.5-0.6,0.4-1.2c-0.4,0.3-0.4,0.8-0.9,1c-1.3-0.9-4.2-1.4-4.8-1.2
	c-4.1-1.3-8.1-0.5-11.4-1.6c-0.4,0.1-0.9,0.1-1.1,0.4c-0.5,0-0.1-0.7-0.2-1c-0.7,0.1-0.3,0.5-0.2,1c-3.6-0.8-7.6-1.9-11.4-3
	c-0.1-0.4,0.4-0.3,0.4-0.6c-0.3-0.8-1.2,0.5-0.4,0.6c-3.5,0.5-6.6-1.6-11.4-1.4c-0.1-0.5,0-0.8,0.2-1c-0.4,0.1-0.6,0.5-0.7,1
	c-0.4-0.1-1.3,0.2-1.3-0.2c-0.1-0.4,0.3-0.4,0.7-0.4c-0.4-0.2-0.6-0.6-0.4-1.2c-0.2-0.5-0.4,0.5-1.1,0.2c-0.2,0.6,0.6,0.4,0.4,1
	c-0.6-0.6-0.8,0.1-1.3,0.2c0-0.2,0-0.4,0-0.6c-2.7,0.6-4.1-0.4-6.6-0.6c-0.3-0.2-0.3-0.8-0.7-1c0.2,1.4-1.1-0.7-1.5,0.4
	c-1.2-0.5-3.2-0.8-2.6-1.8C88,8.3,87.3,9,87.7,9c-0.1,0.5-0.4-0.3-0.9,0c0-0.5,0.3-0.6,0.4-1c0.4,0,0.9,0,1.3,0c-0.3-1-2,0-2-0.8
	c-0.6,0.8-0.1,0.4-1.3,0c0,0.1,0,0.3,0,0.4c0.1,0.3,0.3-0.1,0.7,0c-0.1,0.6,0.3,0.8,0.7,1c-1.2,0-4.8-0.5-5.1-1.4
	c-0.4,0-1.1-0.2-0.9,0.4c-0.3-0.4-1.9-0.2-1.3-0.8c-0.4,0-0.5,0.2-0.9,0.2c-0.3-0.3-0.1-0.3,0-0.6c-1.1-0.3-0.8,0.4-2,0
	c-0.1-0.5,0.6-0.2,0.7-0.6c-0.1-0.5-1-0.2-0.7,0.4c-0.8,0-1.3-0.3-2-0.4c-0.1-0.3,0.2-0.4,0.4-0.4c-0.1-0.2-0.2-0.4-0.4-0.4
	c-0.5,0.6-0.4,1.7-0.4,2.8c-0.5,0.2-1.7-0.2-2.2,0.4c-0.2,2.1-2.4,2.3-3.5,3.6c-0.7,1.9-2.3,3-3.3,4.6c-0.8-0.6-1,0.4-2,0.2
	c0.3,1.3,0.9,0.1,1.5,0.8c-1.6,2.9-4.3,4.6-5.7,7.6c-2.4,0-3.2,1.5-3.5,3.4c-1.7,0.8-1.8,3.1-3.7,3.6c0.2,0.6,0.1,0.5-0.2,1
	c-1.2-0.3-1.7,0.2-2.6,0.2c-0.2,0.5,0.4,0.4,0.4,0.8c0.5-0.1,0.5-0.8,1.3-0.6c-0.3,1.8-2.1,2.3-2.4,4c-0.5,0-1.1,0-1.1,0.4
	c0.6,0.6-1.2,3.5-1.8,5c-0.6-0.2,0.5-0.9-0.4-1c-0.7,0.4,0.4,1.5-0.2,1.8c-1.1,0.2-0.4-1.3-0.9-1.6c-0.2,0-0.2,0.2-0.4,0.2
	c-0.2,0.4,0.6,1.3-0.7,1.4c0.7,0.2,0.4,1.3,1.3,0.8c-0.3,0.8-0.4,1.8-1.5,1.8c0.5,1.5-1.2,2.1-2.2,2.4c1.5,0.9-0.8,2.5-1.3,3.4
	c-0.7,0.1-0.1-1-0.9-0.8c0.9,1-1.1,3.9-2.4,4c-1.1,3.3-4,5.3-4.8,8.2c-0.2,0-0.2-0.2-0.2-0.4c-0.1,1.8-2.5,3-2.9,5.2
	c-5.8,5.7-10.2,12.6-15.4,18.9c-0.8,0-0.6-0.2-1.3,0c0.4,0.6,0.4,0.7-0.2,1.2c-0.6-0.2,0.1-0.6,0-1c-0.9-0.1-0.2,1.1-0.2,1.4
	c-1.5,1.5-3.2,3.5-3.1,5.8c-1.5,0.2-2.4,0.3-5.1,0.2c0-0.6,0.7-0.6,0.4-1.4c-1,0.1-0.4,1.7-1.8,1.4C-0.4,92,3.3,90.6,4,88.2
	c0.6-2.2,0-3.5,1.5-4.8c0.5-0.4,1.5-0.4,2-1c0.3-0.4,0.3-1.5,1.3-1.2c0-1,1-1.3,1.5-1.8c-0.1-1.7,1.6-1.8,1.5-3.4
	c2.2-1.1,2.6-3.7,4.8-4.8c0.2-1.5,1.3-2.3,2.4-3c-0.2-1.1,0.7-1.3,1.3-1.6c-0.1-1.8,1.4-2.2,1.8-3.6c0.3,0,0.2,0.4,0.2,0.6
	c0.8-0.4,0.2-2.2,1.3-2.4c0.4,0.2,0.7,1,1.3,0.4c-0.3-0.4-0.6-0.8-0.9-1.2c0.2-0.4,0.5-0.6,0.7-1c0.3,0.1,0.2,0.5,0.2,0.8
	c0.6-0.6,1.7-0.7,1.8-1.8c-0.4,0.1-0.2,0.8-0.9,0.6c-0.3-0.2-0.2-0.7-0.2-1.2c2.1-0.8,1.7-3.8,4.4-4c-0.9-0.8,0.8-0.8,0.4-2.2
	c0.5,0.1,1,0.1,0.9,0.8c0.5-0.1,0.1-1.1-0.4-1c0.6-0.4,0.9-1.9,1.8-1.4c-0.9-1.2,1.4-2,1.5-3.4c0.4,0,0.1,0.7,0.4,0.8
	c0.4-0.2,0.8-0.4,0.7-1c-0.2-0.5-0.8,0.4-1.1-0.2c1-0.4,1.7-0.8,2.4,0c-0.3-0.7-0.8-2,0-2.6c0.5,0.2-0.2,0.9-0.2,1.2
	c0.9-0.3,0.6-1.5,2-1c-0.9-1.7,0.7-2.8,1.1-4c0.9,0.4-0.4,1.4-0.9,1.8c2.3,0.5,0.6-4.1,3.1-3.6c-1-1.2,1.2-2.5,2-3.4
	c0.5-0.6,0.8-3,2-1.8c-1-1.1,0.7-1.6,1.5-0.6c0.1,0.5-0.5,0.4-0.7,0.6c0,0.2,0.2,0.2,0.2,0.4c0.8,0,0.7-0.8,1.1-1.2
	c0.1-0.5-0.3-0.7-0.9-0.6c1-0.5,0.4-2,1.8-3.2c0.5,0,0.5,0.5,0.4,1c0.3-0.5,0.7-0.9,1.1-1.2c-0.3-0.1-0.6-0.1-1.1-0.4
	c0.3-0.4,0.6-0.8,0.7-1.4c0.5,0,0.1,0.7,0.2,1c0.6,0,0.6-0.6,1.1-0.8c-0.1-0.3-0.6-0.2-0.9-0.2c0.2-0.7,0.6-1.1,1.3-0.8
	c-0.6-0.6,0.1-1.3,0.4-2C52.4,23,51.9,24.2,52.6,23.5z M189.5,135c-0.9,0.2-0.8,1.6-0.2,1.8C189.7,136.3,189.2,135.8,189.5,135z
	 M184.9,137.8c-1,0-0.9-0.9-1.5-1.2c-0.4,0.5,0.3,0.8-0.4,0.8c0.1,0.7,1.2,1,0.4,1.8C184.5,139.3,184.2,138.1,184.9,137.8z
	 M179.2,145.3c-0.1,1-0.8-0.1-1.1-0.2c0.1,0.5,0.5,0.7-0.4,0.6c0.1,1.2,1.6-0.2,1.5,1.2c0.3,0,0.5-0.1,0.7-0.2
	C179.8,146.1,179.7,145.5,179.2,145.3z M161.2,172.2c-0.2-0.8-1.1-0.9-1.1-1.8c-1.4-0.1-1.4,1-1.3,2.2c0.5,0.1,1.9,0,1.1-0.4
	c0,0.2-0.2,0.2-0.4,0.2c0.4-0.3-0.5-1.3,0.7-1.2C160.3,171.7,160.6,172,161.2,172.2z M152.6,180.6c0.3,0.3,0.7,0.8,1.1,0.4
	c0.1-0.4-0.3-0.4-0.4-0.6c0.1,0,0.2-0.2,0-0.2C153.3,180.6,152.7,180.3,152.6,180.6z M27.7,57.3c0-0.2,0-0.4,0.2-0.4
	c0.3,0,0.3,0.3,0.7,0.2c0.2-0.5-0.4-0.4-0.4-0.8c1.2,0.3,0.9-0.7,1.1-0.8c0.7-0.5,1,0.6,1.3-0.2c-0.7-0.4-0.9-1-2-0.6
	c-0.4,0.7-0.1,1.5-0.7,0.8C28,55.9,27.4,56.8,27.7,57.3z M38,46c0.3,0,0.6,0,0.9,0c0-0.6-0.4-0.9-0.2-1.6c-0.6,0-0.5-0.6-1.1-0.6
	c-0.2,0.6,0.6,0.4,0.4,1c-0.4,0.7-0.5-0.7-0.9,0C37.6,45.1,38.6,45.5,38,46z M83.8,4.6c0.8-0.2,0.7,0,1.3-0.4
	C85.9,4.9,83.9,3.2,83.8,4.6z M83.6,7.4c0.9-0.2,0.7,0.6,1.5,0.4C85.3,6.9,83.8,6.9,83.6,7.4z M65.1,8.8c1.1,0.3,0.5-1.6,0-0.8
	C65.6,8.1,65.2,8.7,65.1,8.8z M94.6,8.8c-0.5-0.1-1.9-0.2-1.5,0C93.5,9,94.4,9.6,94.6,8.8z M101.1,8.8c0,0.3-0.1,0.7,0.2,0.8
	c0-0.1,0-0.2,0.2-0.2c0,0.1,0,0.3,0,0.4c0.3,0,1.2-0.3,0.7-0.4C101.5,10,102.3,8.7,101.1,8.8z M119.4,10.2c0.2-0.5,1.1,1.1,1.1-0.2
	C119.9,9.9,118.9,9.8,119.4,10.2z M101.1,10.2c-0.6,0.2-1-0.6-1.3,0C100.4,10.6,100.8,10.9,101.1,10.2z M118.1,10.2
	c0.1,0.4-0.6,0.8,0,1c0.3-0.6,0.8,0.1,1.1,0.2c-0.3-0.5,0.5-1,0-1C118.8,11.4,118.7,10.2,118.1,10.2z M66.4,11.7
	c0.4,0,0.7,0,0.9-0.2c0.1-0.6-0.6-0.6-0.9-0.8C66.4,11,66.4,11.3,66.4,11.7z M105.5,11.7c0.3-0.6-0.9-0.9-1.1-0.4
	C105.1,11.1,104.7,11.9,105.5,11.7z M65.3,14.3c0.6,0,1.1-0.5,0.7-0.8C65.4,13.4,65.4,13.9,65.3,14.3z M60.5,14.7
	c0.5-0.1,1-0.1,0.9-0.8c-0.4,0-0.7,0-1.1,0C60.2,14.2,60.3,14.5,60.5,14.7z M148.9,15.9c0-0.2,0-0.4,0.2-0.4c0,0.1,0,0.2,0.2,0.2
	c0-0.4,0-0.6,0.2-0.8c-0.4-0.1-0.7-0.3-1.1,0c0.3,0.1,0.5,0.3,0.4,0.6C148.6,15.5,148.6,15.8,148.9,15.9z M157.9,19.1
	c0.3,0.3,0.9,0,1.1-0.4C158.5,18.3,158,18.7,157.9,19.1z M161.8,18.9c0.5,0,0.1,0.7,0.2,1C164,21.4,162.4,18.8,161.8,18.9z
	 M174.2,21.7c0.5-0.4,0.1-1.1-0.4-1.2C173.9,20.8,173.8,21.5,174.2,21.7z M169.8,22.5c0.7-0.3,1.3,0.5,1.5,0
	C170.9,22.1,170.1,21.9,169.8,22.5z M179.9,25.7c-0.1-1.5,1.1,0.6,1.3-0.6c-0.8,0.3-0.1-0.7-0.7-0.6c-0.2,0.7-2.2-0.3-1.5,0.2
	C179.4,25,179.3,25.7,179.9,25.7z M47.9,34.6c-0.4,0-0.5-0.2-0.4-0.6c-0.3,0-0.6,0-0.9,0C46.6,34.5,47.7,34.9,47.9,34.6z
	 M193.5,35.8c0.2-1.2-1.9-0.3-2.2-1c0,0.1,0,0.3,0,0.4c0,0.1,0,0.2,0.2,0.2C192.1,35.2,192.8,35.8,193.5,35.8z M183.6,54.9
	c-0.8,0-0.8,1,0,1C183.6,55.5,183.6,55.2,183.6,54.9z M178.6,62.5c-0.1,0.5,0.4,0.4,0.2,1c-4.1,3.1-5.4,8.8-9.5,11.9
	c-0.2,0.7-0.6,2-1.3,1.6c-0.1,1.6-1,1.5-1.8,1.8c0,0.8,0.2,0.1,0.7,0.2c-1.5,1.8-2.1,4.5-4.4,5.6c-0.3,1.2-0.7,2.1-1.8,2.6
	c-0.5,1.8-2.2,4.1-3.3,5.6c-0.2,0.3-1.3,1.2-1.8,1c-0.8,3.7-3.8,5.4-5.7,8c-0.2-0.6-0.3-1.3-0.7-1.8c-0.6,0.4-0.9,0.4-1.5,0
	c0.2,0.5-0.7,1,0,1.2c0.8-0.5,2,0.1,2.2,0.8c-0.8,0.2-0.3,1.6-1.3,1c-1.5,3-4,5.1-6.2,7.4c0-0.3-0.2-0.5-0.4-0.6
	c-0.3,0.8,0.6,0.4,0.4,1c-1.8,2.4-3.9,5.5-6.2,6.8c-0.2,1.3-0.6,2.9-1.5,3c0.1,0-0.5-0.4-0.2,0.6c-0.1-0.1-0.8-0.5-0.9,0
	c0.5,0,0.1,0.9,0.2,1.2c-0.8,0.1-0.8,1.3-1.5,1c-0.1,0.9-1.8,3.2-2.6,3.4c-0.5,1.3-1,2.6-2.4,3c-0.3-0.2-0.4-0.5-0.9-0.6
	c-1.1,0.4-3.7,0.6-4.4-0.6c-1.8-0.4-3.5,0.1-4.8-0.2c0,0-0.1-0.6-0.2-0.6c-1-0.5-3.5,0-3.3-1.2c-2.2,0.3-3.8-1.2-6.6-1.6
	c0-0.2,0.4-0.5,0-0.6c-0.8,1.1-2.5-0.9-3.7-0.2c0-0.5,0-0.9,0-1.4c-1.1-0.2,0.1,1.1-0.4,1c-1.1-0.5-2.2-1-3.1-0.8
	c-0.3-0.1,0-0.8-0.4-0.8c-0.5,0.4-2.7,0.5-2.9-0.6c0,0.2,0,0.4-0.2,0.4c-1.5-0.4-3,0.3-3.7-0.6c-1.2,0.4-3.8,0.1-5.5-1.2
	c0.5,0,1.3-0.8,0.7-1.2c-0.5,0.7-0.9,0.9-1.3,1.4c-2.7-1-5.6-1.8-8.1-3c-1.1,0-3.2-0.2-4-1.4c-2.4,0.5-7.5-1.6-10.3-2.4
	c0.3-0.3,0.2-1-0.4-1c-0.3,0.5,0.6,0.8,0,0.8c-6.6-1.8-14.4-3.2-20.4-4.8c0-0.5-0.4-0.7-0.7-1c0.1,0.5-0.1,0.9-0.7,0.8
	c0.1-1-2.3-0.1-2-1.2c-0.8,1-2.1-0.6-2.9-1c-0.3,0.5,1,0.5,0.2,0.8c-0.9,0.1-0.6-0.8-1.1-1c-0.2,0.4,0.7,0.7,0,0.8
	c-2.2-1.3-5.7-1.3-7.9-2c-0.1-0.6,0.4-0.7,0.2-1.4c-0.6-0.4-1.3-0.3-2.2-0.2c-0.3,0.9,1.2,0.2,0.9,1.2c-1.5,0-1.5-1.3-2.2-2
	c0.5-0.3,1.3-0.3,1.3-1c-0.6,0.1-0.7-0.3-0.7-0.8c-0.7-0.2-0.3,0.7-1.1,0.4c0,0.7,0.4,1,0.2,1.8c-0.6,0.2-1.1-0.7-1.1,0.2
	c0.1,0.3,1.1-0.2,0.9,0.8c-1.6-0.5-1.5,0-2.4-0.8c0.7,0.3,1-0.1,1.3-0.6c-0.9-0.4-2.2-0.5-2.2-1.8c-0.6,1.1-0.3,1.8,0.7,2.2
	c-0.5,0.6-0.7,0.2-1.5,0.4c-0.4-0.5,0.3-0.7-0.2-1c0,0.3-0.2,0.5-0.4,0.6c-0.6-0.7-2-1-3.1-0.8c0-0.6-0.1-1-0.4-1.2
	c-0.1,1.4-1.3-0.3-2-0.2c0-0.3,0.4-0.2,0.4-0.4c-1.8,0.1-3.8-0.6-6.6-1.4c0.2,0.6-0.5,0.4-0.9,0.4c-0.2,1,0.2,1.4,0.9,1.6
	c-0.7,2.9,0,6.2,0,9.6c0,5.6,1.8,11.8-0.4,16.3c-0.1-0.1-0.8-0.5-0.9,0c0.3,0.2,0.4,0.5,0.9,0.6c0.1-0.4,0.4-0.7,0.9-0.8
	c-0.6,6.7-0.2,13.4-0.2,19.3c0,5.3-1.4,13,2.2,16.7c0.7-0.7,1.7-0.1,2.4,0.2c-0.1,0.4-1,0-0.9,0.6c3.6,1.1,6.4,2.9,9.7,4.2
	c-0.2,0-0.3,0.2-0.4,0.4c0.4,0.1,0.4-0.3,0.7-0.4c4.5,1.2,7.3,2.9,12.8,3.6c0,0.3,0,0.7,0,1c1,0.2-0.1-0.7,0.4-0.6
	c6.1,1.5,15.8,3.5,22,5.8c-0.3,0-0.2-0.3-0.2-0.6c3.2,1.3,7.1,1.1,9.7,3.2c0-0.5-0.4-0.6,0.2-0.8c0.7,0.3,0.4,0.6,0.7,1
	c0-0.3,0.2-0.5,0.4-0.6c2.4,1,5.4,0.5,7,2.4c0.1-0.3,0.3-0.4,0.7-0.4c9.6,3.3,19.3,4.2,26.8,8c2.6-0.2,5.5,1.2,9.5,1.4
	c0.5,0.6,1.4,0.7,2.4,0.8c0.1,0.4,0.7,0.4,0.2,0.8c0.7,0.2,0.3-0.7,1.1-0.4c0.4,0.8-0.2,2.3-0.9,2c0.3,0.7,2.1,1.5,2.2,0.2
	c-0.4-0.3-1.1-0.2-1.3-0.6c0.5-0.4,0.6-1.1,1.1-1.4c3.7,1.3,9.3,1.3,12.3,2.6c0-1.6,1.9-4.5-0.7-6.8c1.5-5-0.1-9.6-0.2-14.7
	c0.3,0,0.7,0.8,0.7,0c-1.4-1.6-0.8-4.3-1.3-7c0.4,0,0.7,0,1.1,0c0.2-0.8-1.2-0.1-1.1-0.8c-0.6-5.2,0.3-12-2.6-15.1
	c0.4-0.3,0.2-1.2,0.2-1.8c-1.7-5.1-0.2-13.1-2.6-17.5c0.9-0.3,1.8-0.5,2.6-1.2c1,0.8,2.1,1.6,3.1,2.8c-0.6,8.1,3.3,13.8,3.3,22.1
	c-0.6,0.2-0.6-0.3-1.1-0.2c1.6,1.1,2.4,5.5,1.3,7c0.6,0.4,1.1-0.2,1.3,0.6c-0.3,0.9,0.1,1.3-0.2,1.8c0-0.3-0.2-0.5-0.4-0.6
	c-0.3,1,1.3,1.2,0.7,1.8c-0.7-0.4-1.5-0.7-2.2-1.2c0-0.2,0-0.4-0.2-0.4c0,2,1.6,1.6,2.6,2.4c-0.1,2.2,2.3,4.6,0.4,6.4
	c0.3,0,0.5-0.1,0.7-0.2c-0.4,1.1,0.6,1.6-0.4,2.4c1.4,0.3-0.5,4.1-0.9,4.2c0.1-0.1-0.9-0.4-0.9,0c0.2,0.8-0.2,1.2,0.4,1.2
	c0.6-0.6,1.2-1.1,2-1.4c-0.3,0.7,0.9,1.8,0.2,2.4c-0.8,0.3-0.4-0.6-1.1-0.4c-0.2,1.2,1.2,0.9,1.5,1.6c1.7,3.1-0.3,7.3,1.1,10.8
	c0.5-0.8,1.4-1.2,2.2-1.8c0.1,0.4-0.3,1.3,0.2,1.4c0.1-0.9,0.3-1.2,0-2c3.1,0.6,3.7-3.8,5.5-4.4c0-0.5,0-1.1,0-1.6
	c0.8-0.2,1.5-1,2.2-0.2c-0.3-1,0.6-0.2,0.7-0.6c-0.2-0.2-0.1-0.4-0.2-1c0.4-0.4,0.4,0.1,0.9-0.2c0-0.5,0-1.1,0-1.6
	c1.9-0.5,1.8-2.9,3.3-3.8c0.1,0.4-0.7,1.1-0.2,1.2c0.5-0.6,0.7-1.1,1.1-0.8c0.3-0.8-1,0-0.7-0.8c1.3-1.3,2.4-1.6,2.9-3.4
	c3.1-1.9,4.8-6.2,7.7-7.6c-0.2-1.2,0.8-1.5,1.1-1.6c-0.3,0.1,0-0.9,0.2-1c0,0.2,0.2,0.1,0.4,0c-0.3,0.3-0.2,0.9-0.2,1.4
	c0.9,0,0.9-0.9,0.9-1.8c-0.4-0.1-0.6,0.3-0.7,0c0.3-1,1-1.1,1.5-1.4c-0.9-0.3,0-1.2,0.7-1.2c0.1,0.6-0.6,0.5-0.7,1
	c0.6-0.2,0.7-0.2,1.3,0c0.2-1-0.3-1.2-0.7-1.6c2.3-1.3,3.7-4.5,5.9-6.4c-0.3,0-0.2-0.5-0.2-0.8c0.5-0.3,0.8,0.5,0.9,0
	c0.2-1.6,2-3.4,3.1-4.8c0.2,0.2,0.1,0.7,0.7,0.6c0.6-0.3-0.8-0.4-0.4-1.2c0.7,0.2,0.3-0.7,0.9-0.6c0.3,0.1,0.9,0.9,0.9,0
	c0.2-0.9-0.7,0.1-0.7-0.4c3.5-4.3,6.1-9.5,9.7-13.7c0.2,0,0.3,0.3,0.4,0c0.4-1.4,1.3-4.1,3.1-4.8c0-0.4,0-0.8,0-1.2
	c1.1,0.3,1.6-2.3,2.4-3.4c0.9-1.2,1.9-2.1,2.6-3c0.1,0.1,1,0.5,1.1,0c-0.2-0.6-0.7-0.1-0.9-0.4c0-0.6,0.7-0.4,0.4-1.2
	c0.3,0.3,0.9,0.1,1.1-0.2c-0.5,0-0.7,0.4-0.9-0.2c2.7-4.2,4.4-6.9,7.7-10.6c0,0.4,0.2,0.6,0.7,0.6c-0.1-0.4,1.2-0.5,0.4-0.8
	c-0.5,0-0.8,0.6-1.1,0c1.7-1.7,3-3.8,4-6.2c0.9-0.2,1.7,0.6,2.2,0c-0.8-0.1-1.4-0.3-2.4-0.2c0.8-6.4-2-9.6-1.8-15.5
	c-0.2-0.4-0.7-0.6-0.7-1.2c0.3,0,0.8,0,0.7-0.4c-0.3-0.5-0.7,0.4-0.9-0.2c0.3-2-1-4.4-0.9-6.4c0.5,0.1,1.2,1.1,1.8,0.4
	c-0.5-0.1-0.1-0.9-0.7-0.8c0,0.2-0.1,0.5-0.4,0.4c0.8-0.7-0.6-0.5-0.7-1c0.6-2.6-2.2-4.5-0.4-6.2c-2.9,0.3-1.6-4.6-1.5-5.8
	c-0.4-0.1-0.6,0.3-0.7,0c0.5-1.5-0.8-4.6,0.7-5.6c-3-3.1-2.3-10.2-3.3-14.5c1.5-0.1-0.2-3.3,1.3-3.4c-0.5-0.7-0.7-0.3-1.1-0.4
	c1.2-6-4.2-4.9-3.1-0.6c-0.4,0.1-0.9,0.1-1.1,0.4c0.4,0,0.6,0.2,0.7,0.4c-1.5,2.3-2.3,4.7-3.5,6.8c-0.3,0.1-0.4,0.3-0.9,0.2
	c-0.1,1-0.8,1.5-0.9,2.6c-0.4-0.4-0.6,0-1.1,0c-0.6,2-1.5,3.7-3.7,4.2c-1,1.7-2,3.2-3.3,4.6c0-0.1-0.2-0.2-0.2,0
	C181.3,59.9,179.9,62.6,178.6,62.5z M155,94.6c-0.2,0-0.4,0-0.7,0c0,0.4,0,0.8,0,1.2C154.9,95.7,155.3,94.9,155,94.6z M157.4,172.6
	c0-0.2,0.3-0.2,0.7-0.2c-0.1-0.4,0.3-1.3-0.2-1.4c-0.1,1-0.4-0.2-0.9,0C157.1,171.7,157.4,172.3,157.4,172.6z M42.7,38.4
	c0.6-0.1,0.7,0.5,1.3,0.4c0.1-0.4-0.3-0.4-0.4-0.6c0.5-0.1,0-0.8-0.4-0.6C43,37.9,42.8,38.1,42.7,38.4z M46.2,40.2
	c0-0.5,0-0.9,0-1.4c-0.4,0-0.5-0.2-0.9-0.2C45.1,39.6,45.1,40,46.2,40.2z M201.9,41.4c-0.2-0.7-0.5-1.3-0.9-1.8
	c-0.7,0.6-0.2,1.3,0.2,0.6C201.1,40.9,201.6,41,201.9,41.4z M42.2,40.8c0.5,0.1,0.8,0.4,0.9,0.8c0.6-0.1,1.9,0.4,1.5-0.6
	c-1.3,0-1.8,0.3-1.1-0.6C43.2,40.6,42.4,40.5,42.2,40.8z M190.4,41.6c0.3-0.3,0.2-1.2-0.4-1.2C189.7,40.6,189.9,41.5,190.4,41.6z
	 M41.6,42.2c0.3,0.3,1.3,0.2,1.3-0.4C42.3,41.8,41.6,41.7,41.6,42.2z M41.1,44.4c0.2-1,0.2-2.5-1.3-2.4
	C41.2,42.6,40.5,43.7,41.1,44.4z M39.6,44.8c-0.1-0.6,0-1.4-0.7-1.4C38.9,44.1,39.1,44.6,39.6,44.8z M186.5,44.4
	c-0.1-0.3,0.9-0.5,0.2-0.6c-0.2,0.5-0.8-0.3-1.1-0.4c0,0.1,0,0.3,0,0.4c0,0.1,0,0.2,0.2,0.2c0-0.1,0-0.2,0.2-0.2
	C186.1,44,186.3,44.3,186.5,44.4z M34.3,48.6c-0.2,0.7,0.9,0.2,1.1,0.6C35.4,48.6,34.8,48.2,34.3,48.6z M201.9,52.6
	c0.1-0.7,0.3-1.1-0.2-1.6C201.2,51.4,201.6,52.3,201.9,52.6z M185.2,53.8c0.5-0.1,1-1.2,0.7-1.4C185.5,52.8,185.2,53.3,185.2,53.8z
	 M31.7,61.5c-0.3-0.3,0.1-1.3-0.7-1.2C30.9,61,30.5,61.6,31.7,61.5z M30.8,61.5c-0.7,0-0.7-0.7-1.3-0.8
	C29.3,61.5,30.6,62.2,30.8,61.5z M204.9,62.1c0.1-0.7,0.7,0.9,0.9,0.2c-0.3-0.1-0.2-0.4,0-0.6c-0.3-0.2-1.6-1.3-1.3-0.8
	C205.3,61,204.6,62,204.9,62.1z M25.5,62.5c-0.1,0.2-0.1,0.7-0.2,1.4c0.7,0.1,1.6,0.8,1.8-0.2C26.5,63.8,26.2,62.8,25.5,62.5z
	 M177,63.9c-0.6-0.2,1.2-0.9,0.2-1.4c-0.1,0.3-0.3,0.4-0.7,0.4C176.4,63.4,176.7,64.5,177,63.9z M204.1,64.1c0-0.5,0-1-0.4-1
	C203.2,63.5,203.6,63.9,204.1,64.1z M204.3,65.9c-0.7-0.1,0.2-0.4,0-0.8c-1-0.2-1.1-1.2-1.8-1.8C202.3,64.1,204,65.7,204.3,65.9z
	 M27,67.3c1,0,0.6-1.2,1.5-1.2c-0.1-1.1-0.2-1.1,0.2-1.8c-0.3-0.3-1.3,0-1.8,0.2C27.9,65.1,27.5,66.7,27,67.3z M21.8,65.7
	c0.3,0,0.2,0.4,0.4,0.4c0-0.1,0-0.2,0.2-0.2c0,0.2,0,0.4,0.2,0.4c-0.1-0.5,1-1,0.2-1.4C22.8,65.4,21.9,65.3,21.8,65.7z M204.1,70.3
	c0.7-0.1,0.8,0.3,0.9,0.8c0.5-0.3,0.8,0.5,0.9,0c-1.4-0.1-0.7-1.7-1.3-2c0,0.3-0.2,0.5-0.4,0.6c0-0.2,0-0.4-0.2-0.4
	C203.8,69.8,204.2,69.8,204.1,70.3z M24.2,71.1c0.3-0.6,0.3-1.5-0.4-1.6C23.8,70.2,23.9,70.8,24.2,71.1z M22.2,70.5
	c0.6,0,1.1-0.5,0.7-0.8C22.3,69.7,22.3,70.1,22.2,70.5z M171.3,71.3c-0.7,0.1-0.5-0.8-1.1-0.8C169.9,71.3,170.9,71.8,171.3,71.3z
	 M206.5,72.9c0.3-0.6-0.1-0.7,0.7-1C206.5,71.2,205.4,72.7,206.5,72.9z M166.9,73.5c0.7-0.1,0.4-0.1,1.1,0c-0.4-0.5,0.5-0.9-0.4-1
	C167.7,73.2,167,73.1,166.9,73.5z M166.9,74.3c0.3,0,0.2,0.4,0.4,0.4c-0.1-0.5,0.9-0.2,0.7-0.8C167.5,73.9,167.1,74,166.9,74.3z
	 M16.9,74.9c0.3,0,0.6,0,0.9,0c-0.1-0.4,0.2-1-0.4-0.8C17.6,74.8,16.7,74.3,16.9,74.9z M206.3,75.3c0.8-0.2,0.2,1.1,1.1,0.8
	c0.5-0.4-0.1-0.8-0.2-1.2c0.3,0,0.7-0.5,0-0.4C207.3,75.2,206.3,74.9,206.3,75.3z M168,75.8c0.5,0.7,1.4-0.5,0.9-0.8
	C168.6,75.6,168.1,74.9,168,75.8z M18,76.2c0.3,0.2,0.6,0.3,1.1,0.2C19.2,75.7,18.1,75.5,18,76.2z M166.9,76
	c-0.3,0.1-1.1-0.2-1.1,0.2c0.8,0.5,0.9,0.4,1.8,0.8C167.6,76,166.9,76.6,166.9,76z M17.2,77.8c0,0.7,0.6,0.8,1.3,0.8
	c-0.2-0.5,0.5-0.4,0.7-0.6c0-0.5-0.4-0.7-0.7-1C18.8,77.9,17.9,77.8,17.2,77.8z M162.1,79.8c0.8,0.3,0.9-1.2,0.4-1.4
	C162.5,78.9,162.1,79.2,162.1,79.8z M208.9,80.8c0.4-0.4,0-1.5-0.4-1.8c0.1,0.7-0.8,0.5-0.7,1.2c0.1,0.3,1,0,1.1,0.4
	C208.8,80.6,208.6,80.7,208.9,80.8z M160.1,80.6c0.8,0.1,1.3-0.1,1.1-0.8c-0.4,0-0.7,0-1.1,0C160.1,80,160.1,80.3,160.1,80.6z
	 M208.9,82c0-0.2,0.3-0.2,0.7-0.2c0-0.8-0.9-0.8-1.8-0.8C207.9,81.6,208.8,81.4,208.9,82z M210,84.6c0-0.4,0.2-0.4,0.2-0.8
	c-0.3,0-0.5-0.1-0.7-0.2C209.1,84,209.5,84.4,210,84.6z M206.3,86.8c0-0.2,0.3-0.2,0.2,0.2c0.1,0,0.3,0,0.4,0c0-0.3,0.3-0.3,0.2-0.6
	c-0.7,0.2-0.3-0.7-0.9-0.6C206.4,86.2,205.6,86.6,206.3,86.8z M156.3,86.6c0,0.8,0.5,1.2,1.1,1.6c-0.3-0.8,0.8-1.2,0.2-1.6
	c0,0.1-0.2,0.2-0.2,0c0-0.1,0-0.2-0.2-0.2C157.4,87.1,156.5,86.7,156.3,86.6z M209.3,89c1.7-0.2,0.5,0.6,1.5,1.2
	c0.1-0.8-0.5-1.1,0.2-1.4C210.6,88.3,209.4,87.8,209.3,89z M158.1,89.4c0,0.5,0.1,1,0.4,1.2c0-0.4,0.5-1.5,0.2-1.6
	C158.7,89.3,158.5,89.4,158.1,89.4z M153.7,90c0.5,0,1,0,1.5,0c0-0.4-0.3-0.4-0.2-0.8C154.5,89.8,153.9,89,153.7,90z M7.7,90.8
	c0.1,0,0.3,0,0.4,0c0-0.3,0.3-0.3,0.2-0.6c-0.7,0.2-0.5-0.3-0.9-0.4C7.3,90.4,7.8,90.3,7.7,90.8z M157.2,91.2
	c-1.1-0.9-1.5-0.3-2.2,0.6c0-0.1-0.2-0.2-0.2,0C155.5,92.6,157.1,92.2,157.2,91.2z M207.8,91.6c0.3-0.3,0-0.8-0.4-1
	C207,90.9,207.1,91.7,207.8,91.6z M151.7,92.8c0.4,0,0.2,0.7,0.7,0.6c-0.1-0.3,0.9-0.5,0.2-0.6C152.6,93.4,152,92,151.7,92.8z
	 M153.9,92.8c0.1,0.6,0.8,0.6,1.3,0.8C155.2,93,154.3,92.5,153.9,92.8z M152.6,94c0.6,1,0.2,1,0,2.2c0.5,0.1,0.9,0.2,1.3,0.4
	c-0.1-0.3,0.3-0.5,0-0.6C153.1,96.5,153.8,93.9,152.6,94z M151.5,99.1c-0.1-0.6,0.6,0.5,0.7-0.2c-0.8-0.4,0.7-0.4,0.4-1
	c-0.5-0.1-0.5,0.4-1.1,0.2C151.8,98.6,151,99,151.5,99.1z M16.7,99.7c-0.2-0.4-0.4-0.7-1.1-0.6c-0.1,1,1,0.8,0.9,1.8
	c1,0,1.8-1,2.4-0.2c0-0.8,0.3,0.1,0.7-0.4c0-0.3,0-0.5,0-0.8c-1.3,0.7-1.4-0.7-2.2-1C17.1,98.8,17.2,99.5,16.7,99.7z M149.3,99.1
	c-0.4-0.2-0.3-0.8-1.1-0.6C147.9,99.2,149,99.6,149.3,99.1z M208.5,99.5c0.4,0,0.5,0.2,0.9,0.2c-0.1-0.3,0.3-1-0.2-1
	c0,0.2-0.1,0.5-0.4,0.4c0-0.2,0-0.6-0.2-0.6C208.5,98.8,208.5,99.1,208.5,99.5z M23.3,100.9c-0.3-0.1-0.2-0.6-0.9-0.4
	C22,101.1,23.2,101.3,23.3,100.9z M147.5,103.1c0.2,0,0.1-1.4-0.7-1.2C147,102.4,146.9,103.1,147.5,103.1z M145.1,104.9
	c0.3,0,0.6,0,0.9,0C146.2,104.1,145,104.1,145.1,104.9z M38.3,104.9c-0.2,0.8,1.4,0.4,1.1-0.2C38.8,104.6,38.5,104.7,38.3,104.9z
	 M5.5,105.5c0.2,0.3,1.1,0,0.9,0.6c0.6,0.1,0.7-0.3,0.7-0.8C6.3,105.7,6.1,104.7,5.5,105.5z M45.3,107.7c0-0.6,0.1-1.1,0.9-1.4
	c-0.6,0.1-0.4-0.4-0.9-0.4c-0.6,0.6,0,1-0.7,1.4c0.1-0.5-0.4-0.4-0.2-1c-0.7-0.2-0.3,0.7-0.7,0.8C44.4,107.1,44.7,107.5,45.3,107.7z
	 M144.9,106.1c0,0.3,0.1,0.4,0.2,0.6c0.1,0,0.3,0,0.4,0c-0.2-0.4,0.7-0.7,0-0.8C145.5,106.1,145.2,106.1,144.9,106.1z M48.6,109.5
	c0.5-0.4,0-0.9-0.4-1C48.1,109,48.1,109.5,48.6,109.5z M57.2,111.5c-0.5-0.8,1.7-1.3,0.7-1.8c-0.3,0.5-1.5,0.1-2,0.6
	C57.1,110.8,56.4,110.9,57.2,111.5z M137.2,111.9c-0.6,0.4-1.3,0.9-2,1.2c0.1,0.6,0.8,0.8,0,1.2c0.6,0.2,1.1,0.5,1.5,0.8
	c0.1-0.5,0.3-0.7-0.2-1c0,0.2,0,0.6-0.2,0.6c0-0.4-0.2-0.4-0.2-0.8c0.3-0.5,0.7,0.4,0.9-0.2c-0.6,0.1-0.7-0.3-0.7-0.8
	c1.6-0.2,2.2,1.1,3.7,0.8c-0.2-0.6,0.1-0.5-0.2-1C138.5,113.4,138.1,112.2,137.2,111.9z M140.5,112.7c-0.4-0.7-0.9-1.3-1.1-2.2
	c-0.5,0.7-0.6-0.6-1.1-0.6c0,0.2-0.2,0.2-0.4,0.2c0.5,0.7,1.1,0.4,0.7,1.6C139.5,111.6,139.9,113.2,140.5,112.7z M202.7,114.1
	c0.4,0,0.7,0,0.9-0.2c-0.6-0.6,0.1-1.2-0.7-1.6C203.1,113.1,202.7,113.5,202.7,114.1z M138.1,115.7c-0.1-0.5,0.9-0.2,0.7-0.8
	c0-0.4-0.6-0.4-1.1-0.4C137.7,115,137.8,115.5,138.1,115.7z M135,116.1c0-0.3,0-0.5,0-0.8c-0.2,0-0.4,0-0.7,0
	C134.3,115.9,134.4,116.2,135,116.1z M78.9,117.1c0.6-0.4-0.5-1.4-0.9-0.8C78.8,116.2,78.4,117.1,78.9,117.1z M81.1,116.9
	c0.4,0.4,0.9-0.2,1.3-0.4C82,116.2,81.3,116.5,81.1,116.9z M201.6,117.5c0.1-0.6-0.3-0.8-0.7-1C200.9,117.1,201,117.6,201.6,117.5z
	 M79.4,117.3c-0.2,0.5,0.7,0.9,0.9,0.4c-0.4,0-0.1-0.6-0.4-0.6C79.8,117.3,79.6,117.4,79.4,117.3z M197.5,120.4
	c0.3-0.6,0.1-0.7-0.4-1C196.7,119.7,196.7,120.5,197.5,120.4z M133.9,121c0.2-0.8-0.5-0.8-0.9-1C133,120.5,133.5,120.7,133.9,121z
	 M131.9,122.8c0.6-0.3,1,0.3,1.3-0.4C132.8,122.5,131.7,122,131.9,122.8z M192.6,123.8c0.3-0.2,1.5-0.5,0.7-1
	C193.3,123.2,192.1,123.5,192.6,123.8z M195.7,123.4c0.2,0,0.4,0,0.7,0c0-0.3,0.1-0.4,0.2-0.6c-0.3,0-0.6,0-0.9,0
	C195.7,123,195.7,123.2,195.7,123.4z M7.5,124.6c-0.5-0.1-0.4-0.7-1.1-0.6C6.2,124.8,7.4,125.3,7.5,124.6z M193.1,124.2
	c-0.2,0.4-0.5,0.6-0.7,1c0.8-0.2,0.3,0.8,1.1,0.6c0.3-1,0.5-0.9,1.8-0.8c0-0.8-1.2-0.5-1.5-1C193.5,124.5,193.5,124.7,193.1,124.2z
	 M195.3,125.8c0.7-0.4,1.7-1,0.2-1.4C195.9,125,195.3,125.1,195.3,125.8z M113.7,126c0.2-0.1,0.6-1.4-0.2-1.2
	C113.1,125.1,113.4,125.7,113.7,126z M191.3,127.8c-0.4,0-0.7,0.1-0.9,0.4C190.1,129.5,190.7,128.9,191.3,127.8z M7.5,130.2
	c-1,0.1,0.8-1.1-0.7-1c0.1,0.5,0,0.8-0.2,1C7,130,7.3,130.8,7.5,130.2z M2,130.4c0.4-0.2,0.7,0.6,0.9,0c-0.8-0.2,0.8-0.8,0-1
	C2.7,129.9,2.1,129.9,2,130.4z M188.9,131.8c0.9-0.5,1-0.3,1.8,0.2c0-0.8-0.7-0.9-1.1-1.4C189.5,131.1,188.9,131.2,188.9,131.8z
	 M190.9,131.6c0.7,0.1,0.7,0.7,1.1,1c-0.1-1.1-0.2-1.3-0.9-2C190.9,130.8,190.8,131.1,190.9,131.6z M7.7,134.2c-0.1-0.3,0.3-1-0.2-1
	C6.9,133.4,6.5,134.3,7.7,134.2z M5.9,141.5c0.1-0.6-0.3-0.8-0.7-1C5.2,141,5.2,141.5,5.9,141.5z M2.6,141.7
	c0.1-0.4,0.9-0.2,0.7-0.8c-0.3,0-0.5-0.1-0.7-0.2C2.9,141.1,2.1,141.6,2.6,141.7z M184.5,142.3c0.5-1.1,0.3-0.1,0.9,0
	c0.1-0.9-0.6-1.1-1.3-1.2C184.3,141.4,184.1,142.1,184.5,142.3z M181.6,143.1c0.3-0.2,0.2-0.7,0.2-1.2c-0.7,0.2-0.5-0.3-0.9-0.4
	C180.4,142,181.2,142.7,181.6,143.1z M181.2,146.5c0.7-0.2,0.5-1.3,1.3-0.4c-0.2-0.6,0.3-0.5,0.2-1c-0.7,0.2-0.7-0.3-1.1-0.4
	C181.7,145.5,181,145.6,181.2,146.5z M171.7,153.5c0,0.4,0.2,0.4,0.2,0.8c0.7,0.1,0.3-0.9,1.3-0.6c0-0.5-0.3-0.6-0.7-0.8
	C172.7,153.4,172.3,153.6,171.7,153.5z M171.7,154.7c-0.9-0.1-0.3,1.2-1.1,1.2c0-0.1-0.2-0.2-0.2,0
	C171.2,156.5,171.9,155.6,171.7,154.7z M171.5,156.9c0.6,0,1-0.1,1.3-0.4c-0.2,0-0.3-0.2-0.2-0.4
	C172.1,156.2,171.5,156.3,171.5,156.9z M168.4,158.5c0.1-0.3,0.3,0,0.7,0c-0.1-0.5,0.4-0.4,0.2-1
	C168.7,157.4,168.1,158.4,168.4,158.5z M168,160.3c0.6,0,0.9-0.3,0.9-0.8c-0.3-0.2-0.6-0.3-1.1-0.2
	C167.7,159.8,168.2,159.8,168,160.3z M168.9,160.3c0,0.3,0.2,0.5,0.4,0.6c0-0.3,0.6-0.1,0.7-0.4
	C169.6,160.4,169.3,159.9,168.9,160.3z M167.6,162.4c0.9,0.2,0.9-1.2,0-1C167.5,161.8,167.1,162,167.6,162.4z M128,164.2
	c-0.1,0.5,0.3,0.7,0.9,0.6C129,164.1,128.3,163.9,128,164.2z M166.2,164.8c0.5,0.1,0.8,0,0.9-0.4c-0.3-0.1-0.4-0.3-0.9-0.2
	C166.2,164.4,166.2,164.6,166.2,164.8z M163.6,168.4c0.4,0,0.5,0.2,0.9,0.2c0.3-0.8-0.5-0.8-0.4-1.4c0.3,0,0.8,0.1,0.9-0.2
	c-0.4-0.4-0.6-1-1.1-1.2C163,166.6,164.5,168.1,163.6,168.4z M160.5,167.8c0.3-0.5,0.6,0.5,0.9,0.6c0.5-0.4,0.7-1.1,1.3-0.4
	c0-0.3,0.1-0.4,0.2-0.6c-0.7-0.8-1.7,0.3-2.4-0.2C160.6,167.5,160.2,167.7,160.5,167.8z M161.6,170c0.5-0.1,1-0.3,1.1-0.8
	C162,169.1,161.5,169.2,161.6,170z M129.5,172c-0.2-0.5,0.4-0.4,0.4-0.8c-1,0.1-1.2-0.5-1.8-0.8C128.4,171.3,128,172.1,129.5,172z
	 M133.7,172.2c0.2-0.5,0.2-1.4-0.7-1.4C132.7,171.4,132.8,172.1,133.7,172.2z M27.9,173.4c0-0.5,0.4-1.2-0.2-1.6
	C27.6,172.5,27.4,172.9,27.9,173.4z M25.1,172.8c0,0.6,1,0.3,1.3,0.6c0-0.3,0-0.7,0-1C25.8,172.2,25.1,172.1,25.1,172.8z M155.5,174
	c0.1,0.5,0.2,0.9,0.7,1c0.1-0.8,0.6-1.2,0.9-1.8c0-0.2-0.2-0.3-0.4-0.4C156.7,173.7,155.8,173.6,155.5,174z M38,174.2
	c-0.2,0.7,0.7,0.3,1.1,0.4C39.2,173.8,38.6,174.1,38,174.2z M154.6,176.8c0.8,0.2,1.6-0.6,0.9-1c-0.3,1-0.6,0.3-0.9-0.2
	C154.1,176,154.7,176.2,154.6,176.8z M55.6,178c0.2,0.4-0.7,0.7,0,0.8c0.2-0.6,0.3-0.2,0.9-0.2c-0.4-0.4-0.6-1.1-1.3-1.2
	C55.1,177.8,55.5,177.8,55.6,178z M152.4,178.6c0.4-0.3,0.6-0.9-0.2-1C152.3,177.9,151.9,178.7,152.4,178.6z M53.7,178.4
	c0.4,0,1.3,0.5,1.5,0c-0.7,0-0.5-0.7-1.3-0.6C53.9,178.1,53.8,178.3,53.7,178.4z M60,179.8c0.3-1.1-1.1-0.7-1.1-1.6
	c-0.5,0-1.1,0-1.1,0.4c0.4,0.4,0.4-0.1,0.9-0.2C59.3,178.7,58.9,180,60,179.8z M150,179.8c0.7-0.6,0.8,0.3,2.2,0
	c-0.2-1.2-2.1-0.5-2.4-0.4C149.9,179.5,150,179.6,150,179.8z M129.7,181.6c0.1-0.4,0.4-0.5,0.7-0.8c-0.7,0.2-0.7-0.3-1.1-0.4
	C129,181.1,129.3,181.2,129.7,181.6z M130.6,182.2c0.6-0.1,0.9-1.1,0.7-1.4c-0.2,0-0.4,0-0.7,0C130.3,181.5,130.6,181.5,130.6,182.2
	z M71.5,182.6c0.3,0,0.5,0.1,0.7,0.2c-0.3-0.6,0.6-1,0-1.2c0,0.2-0.2,0.1-0.4,0C71.5,181.9,71.4,182.2,71.5,182.6z M133.7,183.4
	c0-0.7-0.5-0.9-0.9-1.2C132.6,183.1,133.3,183.1,133.7,183.4z M77.8,184.7c0-0.6,0.1-1.3-0.7-1.2c0,0.3-0.1,0.4-0.2,0.6
	C77.7,183.7,78,185.4,77.8,184.7z M83.6,185.5c0-0.3,0-0.5,0-0.8c-0.3,0-0.8-0.1-0.9,0.2C83,185.1,83.1,185.4,83.6,185.5z
	 M81.8,188.1c0.9-0.6,0.7-0.2,1.3-1.4c-0.9,0.1-0.9,0.1-1.8,0C81.3,187.3,82.1,187.2,81.8,188.1z M129.3,189.1
	c0.7-0.1,1.4,0,1.5,0.4c0-0.3,0-0.7,0-1c-1.2,0.4-0.8-0.8-1.5-0.8C129.3,188.1,129.3,188.6,129.3,189.1z M100.1,190.3
	c0.3-0.3,0.4-1.2-0.2-1.2C99.7,189.5,99.3,190.2,100.1,190.3z M105.3,192.1c0,0.2,0.1,0.5,0.2,0.2c0.7-0.8,1,0.1,1.8,0.2
	c-0.2-0.4,0.7-0.7,0-0.8c-0.3,0.6-0.7-0.6-0.2-0.8c-0.5,0-1.1,0-1.3-0.2c0,0.1,0,0.3,0,0.4c-0.1,0-0.3,0-0.2,0.2
	c0.3,0,0.5-0.1,0.7-0.2c0,0.3,0,0.5,0,0.8C105.8,191.9,105.5,191.9,105.3,192.1z M134.6,191.7c-0.7,0.1-0.1-1-0.9-0.8
	c0.1,0.3-0.3,1,0.2,1C133.9,191.2,134.6,192.3,134.6,191.7z M101.1,192.3c0.4,0.2,0.3,0.9,1.1,0.8c0.2-0.2,0.1-0.7,0.7-0.6
	c-0.3-0.5-0.4-1.1-0.9-1.4C101.8,191.7,102.1,192.1,101.1,192.3z M109.3,192.1c0-0.3,0-0.5,0-0.8
	C108.4,191.1,108.4,192.2,109.3,192.1z M110.6,193.9c0.2-0.7-0.3-0.7-0.9-0.6C109.7,193.8,110.2,193.8,110.6,193.9z M125.8,195.5
	c0.6,0,1-0.1,1.3-0.4c-0.9,0-2-0.9-2.6-0.4C125,194.9,125.7,194.9,125.8,195.5z M122.7,196.9c0.6,0,1.1,0,1.1-0.6
	C123.2,196.3,122.6,196.3,122.7,196.9z M125.8,198.1c0.5-0.2,1.3,0,1.5-0.8C126.7,196.7,124.8,197.3,125.8,198.1z M130.6,198.9
	c0-0.3,0-0.5,0-0.8c-0.2,0-0.4,0-0.7,0C129.9,198.6,130,199,130.6,198.9z M75.2,89.7c0.2-0.2,0.2-0.4,0.3-0.7c0,0.2,0.1,0.4,0.1,0.6
	c-0.5-6-7.7-12.6-11-16.6c0.7-0.7,1.4-1.2,2.1-1.5c-0.1-0.2,0-0.5,0.3-0.6c0.1,0.1,0.2,0.2,0.3,0.4c5.3-1.9,9.2,7.1,12.4,7.5
	c2.1-8.4-10.2-13.3-16.3-8.8c0.2,0.2,0.5,0.4,0.7,0.6c-0.7,0.6-0.3,1.9-0.8,2.3c-0.3-0.4-1.4-0.3-2-0.6c-0.6,1-1,2.3-1.2,3.7
	c2.1,2.9,5.8,4.9,8.4,7.5c0-0.2,0.1-0.4,0.4-0.6c0.1,0.2,0.2,0.7,0,1c1.8,1.9,2.9,4.1,2.3,7.2c-1.5-0.4-1.4,2.5-3.2,1.6
	c-4.3-0.7-4.7-3.4-8.3-4.5c0.1,0,0.2,0.1,0.3,0.1c-0.1,0-0.3,0-0.4,0c-2.2,5.4,4.5,8.2,9.5,8.2C69,96.4,68.9,96.2,69,96
	c0.1-0.4,0.3-0.8,0.8-0.5c-0.1,0.3-0.3,0.3-0.4,0.7c0.5,0.4,0.3-0.5,0.8-0.1c0.1,0.2,0.1,0.4,0,0.5c1.4-0.1,2.5-0.5,3.2-1.2
	c1.7-1.8,2.3-3.7,2.2-5.7C75.5,89.7,75.4,89.7,75.2,89.7z M76.1,74.4c0.3,0.1,0.7,0.1,0.7,0.4C76.8,75.5,75.5,75,76.1,74.4z
	 M77,71.1c-0.2,0.1-0.3,0.5-0.7,0.4c0-0.3,0-0.7,0-1C76.6,70.7,76.8,70.9,77,71.1z M75.7,73.3c-0.2,0.2-0.2-0.1-0.4-0.1
	C75.5,73,75.8,73.1,75.7,73.3z M73.7,69.1c0.1,0,0.2,0.1,0.3,0.1c0,0.1,0,0.2-0.1,0.3c-0.1-0.1-0.1-0.2-0.3-0.3
	C73.6,69.2,73.6,69.1,73.7,69.1z M73.3,71.3c-0.2,0.4-0.6,0.3-0.8,0C72.7,70.9,73.2,71,73.3,71.3z M71.4,69.7
	c0.2,0.1,0.4,0.1,0.5,0.2c-0.1,0.2-0.1,0.4-0.2,0.5c-0.2-0.1-0.4-0.1-0.5-0.2C71.3,70.1,71.4,69.9,71.4,69.7z M70.2,68.7
	c0.5-0.6,0.8,0.5,0.2,0.5C70.3,69.2,70.1,68.8,70.2,68.7z M67.3,68.3c0,0.1,0,0.3-0.1,0.4c-0.2-0.1-0.5-0.2-0.8-0.2
	C66.7,68.4,67,68.4,67.3,68.3z M60.7,76.7c0.1,0,0.2-0.1,0.2-0.2c0.4,0.1,0.4,0.4,0.3,0.8C61,77.1,60.8,76.9,60.7,76.7z M61.9,75
	c0.2,0.2,0.3,0.4,0.2,0.7C61.5,75.7,61.6,75.2,61.9,75z M64.6,69.2c0,0.1,0,0.1-0.1,0.2c-0.1,0-0.1,0-0.2-0.1
	C64.5,69.2,64.6,69.2,64.6,69.2z M64.4,71.1c-1-0.4,0.2-0.8,0.2-1.3c0.2,0.1,0.4,0.1,0.5,0.2C65.2,70.5,64.2,70.2,64.4,71.1z
	 M67.3,78.3c-0.3-0.3-0.2-0.9,0-1.4c0.2,0.1,0.4,0.1,0.5,0.2C67.7,77.6,67.6,78.1,67.3,78.3z M61,91.7c0-0.4,0.4-0.3,0.7-0.2
	C61.5,91.7,61.3,91.8,61,91.7z M69.7,94.9c-0.1,0-0.2-0.1-0.4-0.1c0-0.3,0.3-0.3,0.4-0.5c0.1,0,0.2,0.1,0.4,0.1
	C70.1,94.7,69.8,94.7,69.7,94.9z M70.9,95.7c-0.4,0.2-1.1-0.1-0.8-0.7C70.5,94.8,71.2,95.1,70.9,95.7z M73.4,89.3
	c-0.3-0.1-0.3-0.4-0.1-0.8C73.7,88.6,73.6,89.1,73.4,89.3z M78.5,97c0.1,0.1,0.1,0.3,0.2,0.4C78.7,97.3,78.6,97.2,78.5,97z
	 M78.2,96.2c0-0.1-0.1-0.3-0.1-0.4C78.1,95.9,78.2,96,78.2,96.2z M51.7,73.4C51.7,73.5,51.7,73.5,51.7,73.4
	c-0.1,0.3-0.7,0.1-0.9-0.2c0,0,0,0,0,0c-1.7-0.4-3.2-0.7-5.2-1.2c-0.1,0.2-0.1,0.4-0.1,0.4s-0.4-0.1-0.7-0.2c0,0,0.2-0.2,0.3-0.4
	c0,0,0,0.1,0,0.1c-0.2,0-0.3,0-0.5-0.1c0,0,0,0,0,0c0.1,0.4-0.4,0.9-0.8,0.6c0.1-0.4,0.4-0.5,0.5-0.7c-0.3-0.1-0.6-0.1-0.8-0.2
	c0.9-3.8,2.7-6.1,4.5-8.3c0.8,0.6,1.5,0.9,2.3,1.3c0,0-0.2-0.1-0.2-0.1c0-0.1,0.2-0.5,0.2-0.5s0,0,0.7,0.2l-0.2,0.7
	c-0.7-0.2-0.2-0.1-0.3-0.1c1.6,0.5,3.1,1,4.9,1.6c0,0,0,0,0,0s0,0,0.2-0.7c0,0,0.3,0.1,0.5,0.2c-0.2,0.7-0.2,0.4-0.3,0.5
	c1.3,0.4,2.6,0.9,4.2,1.6c-0.1-4.7-7.9-5.4-12.7-7.6c-6,6.3-10.4,16.5-11.2,26.6c3.7,2.1,10.2,2.8,14.9,2.2c0-0.3,0.1-0.6,0.4-1.2
	c0.2,0.1,0.5,0.2,0.7,0.2c-0.2,0.7-0.2,0.6-0.3,0.8c0.5-0.1,1-0.1,1.4-0.2c0.1-0.9-0.1-1.6-0.5-2.2c-0.3,0.3-0.8,0.1-1.3,0
	c-0.1-0.2-0.1-0.5,0-0.8c-0.2,0-0.4,0.1-0.6,0c-0.1,0.3,0.2,1.3-0.5,1c-0.3-0.2,0.3-0.9-0.1-1c0-0.4,0.5-0.1,0.7-0.2
	c0.1-0.1,0.2,0,0.2-0.2c-1.7-0.8-4.1-0.8-6.2-0.9c0,0,0,0,0,0c-0.1-0.1-0.6,0.3-0.6,1.1c-0.2-0.1-0.3-0.1-0.4,0
	c-0.4-0.4-0.5-0.6-0.1-1.1c0-0.2,0-0.3-0.1-0.5c0,0,0.1,0,0.1,0c-2.3-0.3-4.1-0.7-4.3-2.4c0.4-1.3,0.9-2.7,1.3-4
	c5.2-0.5,11.8,1.9,16.4,0.1c-0.1,0-0.6,0-0.6,0c0-0.1,0.1-0.2,0.1-0.3c0.7,0.1,0.5,0.1,0.5,0.2c0.4-0.2,0.8-0.3,1.2-0.6
	C56.8,75.3,55,74.4,51.7,73.4z M57.6,64.3c0,0.1-0.1,0.2-0.1,0.3c-0.3-0.1-0.4-0.4-0.4-0.6C57.3,64.1,57.4,64.2,57.6,64.3z
	 M56.4,64.9c0.3,0,0.3,0.3,0.5,0.4c-0.1,0.5-0.4,0.5-0.9,0.3C56,65.2,56.3,65.1,56.4,64.9z M52.5,62.2c0.5,0.2,0.8,0.2,1.1,0.4
	c0,0.1,0,0.1-0.1,0.2C53,63,53,62.4,52.5,62.2C52.5,62.2,52.5,62.2,52.5,62.2z M47.2,61.2c0.5,0.1,0.5,0.4,0.3,0.9
	C47,61.9,47,61.6,47.2,61.2z M36.9,81.5C36.9,81.5,36.9,81.5,36.9,81.5C36.9,81.5,36.9,81.5,36.9,81.5
	C36.9,81.5,36.9,81.5,36.9,81.5z M36.6,83.1c0-0.1,0.1-0.3,0.1-0.4c0,0,0,0,0,0C36.7,82.8,36.7,83,36.6,83.1z M39,74.8
	c-0.2-0.3,0-0.7,0.3-0.9C39.9,74.1,39.8,75.2,39,74.8z M48.6,89.4c0-0.1,0.1-0.2,0.2-0.2c0.1,0.1,0.2,0.1,0.2,0.2
	C48.9,89.4,48.7,89.4,48.6,89.4z M49.3,88.3c-0.1,0-0.3-0.4-0.2-0.5C49.5,87.3,49.8,88.3,49.3,88.3z M43.8,86
	c-0.2,0.5-0.5,0.6-1,0.5C43.2,86.3,43.3,85.7,43.8,86z M42.4,86.1c-0.1,0.2-0.2,0-0.2-0.1C42.3,85.8,42.4,86,42.4,86.1z M43.3,70.2
	c-1,0-0.4-0.8-1.1-1c0.1-0.3,0.4-0.6,0.4-0.6c0.2,0.1,0.4,0.1,0.5,0.2C43.2,68.8,43.7,69.5,43.3,70.2z M49.4,73.6
	c0.4,0.3,0.9,1.1,0.3,1.5C48.8,75,49.2,74.3,49.4,73.6z M49.8,75.5C50.5,75.3,49.2,76,49.8,75.5L49.8,75.5z M49.5,77.8
	c-0.1,0-0.2-0.1-0.4-0.1c0-0.1,0.1-0.2,0.1-0.4c0.1,0,0.2,0.1,0.4,0.1C49.5,77.6,49.5,77.7,49.5,77.8z M57.3,76
	c0,0.2,0.5,0.2,0.4,0.5c-0.1,0.7-0.9,0-1.4,0c0.2-0.4,0.2-0.7,0.2-1C56.8,75.6,57,75.8,57.3,76z M54.5,77.8
	C52.8,76.9,55.8,76.5,54.5,77.8L54.5,77.8z M53.1,76.6c0.1,0,0.3,0.2,0.4,0.1c0.1-0.1-0.3-0.6,0.2-0.7c0.4,0,0.4,0.3,0.7,0.4
	c-0.1,0.4-0.3,0.5-0.7,0.4c-0.1,0.5-0.3,0.9-0.5,1c-0.8-0.3-0.3-0.6-0.1-0.8C53,76.9,53,76.6,53.1,76.6z M53,75.6
	c-0.8,0.5-0.9,0.8-1.3,2.2c-0.3,0.2-0.8-0.1-1.3-0.2c0.4-0.8,1.1-1,1.5-1.7c0.1-0.5-0.2-0.9-0.1-1.4c0.2-0.4,0.4-0.6,0.6-0.7
	c0.3,0.1,0.5,0.2,0.8,0.2c-0.1,0.3-0.3,0.5-0.6,0.5C52.7,74.8,52.8,75.2,53,75.6z M69.1,96.6c0.4,0,0.7,0,1.1-0.1
	C69.9,96.6,69.5,96.6,69.1,96.6z M51.7,85.6c-0.2-0.1-0.3-0.2-0.5-0.3C51.3,85.4,51.5,85.5,51.7,85.6z M50.9,73.2
	c0.3,0.1,0.6,0.2,0.9,0.2C51.5,73.4,51.2,73.3,50.9,73.2z M95.3,98.8C95.2,98.9,95.1,99,95,99C95.1,99,95.2,98.9,95.3,98.8z
	 M52.3,86.1c-0.2-0.1-0.5-0.3-0.6-0.5c0.4,0.3,0.8,0.6,1.1,1C52.6,86.4,52.5,86.3,52.3,86.1z M61.6,71.7c0.3-0.4,0.5-0.7,0.8-1
	c0.1,0.2,0.2,0.4,0.1,0.5c0.1,0.2,0.8,0.3,0.5,0.8c-0.5-0.1-0.4-0.4-0.7-0.6C62.1,71.6,61.9,71.7,61.6,71.7z M89.5,98.9
	c0,0-0.2,0.5-0.2,0.5s0,0-0.1,0c-0.5-0.2-1.2-0.1-2-0.3c-12.7-2.5-5.1-20.9,6.2-19.4c2.9,1.4,2.4,4.5,5.2,6
	c-1.5-15.4-13-9.4-18.2-0.5c0.1-0.2,0.2-0.1,0.4-0.8c0.1,0,0.1,0,0.2,0.1c0,0,0,0.4,0,0.4c0,0.1-0.1,0.2-0.1,0.4
	c0,0-0.1-0.1-0.3,0.5c-0.1,0-0.2-0.1-0.4-0.1c-1.9,3-3,7-2.2,10.2c0.2,0.1,0.3,0.2,0.5,0.3c0,0.1-0.1,0.1-0.3,0.1
	c0,0.1,0.1,0.2,0.1,0.3c0.4,0,0.9,0.2,1.1,0.4c-0.1,0.4-0.4,0.5-0.7,0.5c0.4,0.8,0.8,1.5,1.5,2.1c-0.1,0-0.3-0.2-0.3-0.2
	c0,0,0-0.1,0-0.1l0.6,0.2c0,0-0.1,0.3-0.1,0.4c1.7,1.3,3.4,2,6.3,2.4c2,0.3,3.3-0.3,5.3-1.3c0,0,0,0,0,0c0-0.7,0-0.6,0.2-1.1
	c0.6,0.6,0.9,0.2,0.9-0.5c0.4,0,0.6,0.4,0.7,0.7c-0.2,0.2-0.4,0.4-0.7,0.6c0.6-0.5,1.2-1,1.8-1.6c-0.2-0.1-0.2-0.3-0.5-0.4
	c0.1-0.4,0.6-0.2,0.8,0.1c1-1.2,2-2.6,3.1-4.2C93.8,94.9,93.2,98.5,89.5,98.9z M93.5,78.2c0.1,0,0.2,0.1,0.4,0.1
	c0,0.1-0.1,0.2-0.1,0.4c-0.1,0-0.2-0.1-0.4-0.1C93.4,78.5,93.5,78.3,93.5,78.2z M81.9,100.6c-0.1-0.1,0.2-0.2,0.2-0.1
	C82.2,100.6,81.9,100.7,81.9,100.6z M81.9,100c0-0.4,0.3-0.4,0.4-0.7c0.3,0,0.3,0.3,0.5,0.4C82.7,100.2,82.4,100.2,81.9,100z
	 M83.2,100.8c-0.1,0-0.2-0.1-0.4-0.1c0-0.1,0.1-0.2,0.1-0.4c0.1,0,0.2,0.1,0.4,0.1C83.3,100.6,83.3,100.7,83.2,100.8z M84.5,100.6
	c-0.4-0.5,0.3-0.5,0.4-0.7c0.2-0.3,0-0.8,0.4-1.3c0.9,0-0.3,0.9,0.3,1.1C85.2,100,85.1,100.9,84.5,100.6z M85.6,101.6
	c-0.2-0.1-0.5-0.2-0.7-0.2c0.1-0.6,0.4-0.8,1-0.5C85.7,101.1,85.7,101.3,85.6,101.6z M92.3,98.8c-0.2-0.1-0.4-0.1-0.5-0.2
	c0.1-0.2,0.1-0.4,0.2-0.5c0.2,0.1,0.4,0.1,0.5,0.2C92.4,98.4,92.3,98.6,92.3,98.8z M93.7,97.6c-0.1-0.1,0.2-0.2,0.2-0.1
	C94,97.6,93.7,97.7,93.7,97.6z M94.6,95.9c0,0-0.1,0-0.1,0C94.5,95.9,94.6,95.9,94.6,95.9C94.6,95.9,94.6,95.9,94.6,95.9z
	 M94.2,99.6c-0.2-0.1-0.4-0.1-0.5-0.2c0.1-0.2,0.2-0.5,0.2-0.7C94.4,98.8,94.4,99.1,94.2,99.6z M95.3,97.9c-0.1-0.2-0.7-0.3-0.4-0.7
	c0.2-0.1,0.5-0.1,0.8,0.1C95.7,97.7,95.5,97.7,95.3,97.9z M95.7,95.5c0.2,0.1,0.2,0.4,0.4,0.5c-0.2,0.4-0.6,0.2-1,0.1
	C95.2,95.6,95.6,95.8,95.7,95.5z M105.9,104.9c-2.7-0.6-3.6-2.2-3-4.5C105.7,100.9,107.4,102.1,105.9,104.9z M93.2,100.7
	c-0.2,0.2-0.5,0.3-0.7,0.5C92.8,101.1,93,100.9,93.2,100.7z"/>
</svg>
